<svg width="46" height="37" viewBox="0 0 46 37" fill="none" xmlns="http://www.w3.org/2000/svg">
<path d="M19.0528 20.4384L14.7 12.8643V10.25H29.6H30.1V9.75V5.375V4.875H29.6H14.7V3.1875C14.7 1.70077 13.4883 0.5 12 0.5H3.2C1.71174 0.5 0.5 1.70077 0.5 3.1875V11.9375C0.5 13.4242 1.71174 14.625 3.2 14.625H9.4914L14.377 23.1269L14.8064 23.8741L15.2419 23.1304C15.921 21.971 17.166 21.1875 18.6 21.1875H18.6193H19.4833L19.0528 20.4384ZM27.4 22.375H18.6C17.1117 22.375 15.9 23.5758 15.9 25.0625V33.8125C15.9 35.2992 17.1117 36.5 18.6 36.5H27.4C28.8883 36.5 30.1 35.2992 30.1 33.8125V25.0625C30.1 23.5758 28.8883 22.375 27.4 22.375ZM42.8 0.5H34C32.5117 0.5 31.3 1.70077 31.3 3.1875V11.9375C31.3 13.4242 32.5117 14.625 34 14.625H42.8C44.2883 14.625 45.5 13.4242 45.5 11.9375V3.1875C45.5 1.70077 44.2883 0.5 42.8 0.5Z" fill="white" stroke="black"/>
</svg>
