<svg width="37" height="37" viewBox="0 0 37 37" fill="none" xmlns="http://www.w3.org/2000/svg">
<path d="M27.3275 9.67255C31.6147 13.9598 32.0513 20.4362 29.0626 25.162L11.8379 7.93746C16.5667 4.94687 23.0425 5.38763 27.3275 9.67255ZM18.5 0.5C8.55892 0.5 0.5 8.55885 0.5 18.5C0.5 28.4412 8.55892 36.5 18.5 36.5C28.4411 36.5 36.5 28.4411 36.5 18.5C36.5 8.55892 28.4412 0.5 18.5 0.5ZM9.67255 27.3275C5.38533 23.0402 4.94874 16.5638 7.93739 11.838L25.1621 29.0625C20.4334 32.0531 13.9575 31.6124 9.67255 27.3275Z" fill="#FF265A" stroke="black"/>
</svg>
