<svg width="37" height="37" viewBox="0 0 37 37" fill="none" xmlns="http://www.w3.org/2000/svg">
<path d="M14.8697 0.853418L14.8695 0.853457C7.87542 2.2185 2.24348 7.83587 0.864152 14.8099C-0.436098 21.3813 1.88169 27.1204 5.63279 31.0347C9.36957 34.9341 14.5798 37.0713 19.1231 36.3672L19.1232 36.3671C22.3325 35.8686 23.8167 32.164 22.3974 29.3777C20.9905 26.6125 22.9953 23.3777 26.115 23.3777H31.5634C34.2926 23.3777 36.4924 21.1249 36.5 18.4152L36.5 18.4122C36.4648 7.32915 26.3796 -1.38811 14.8697 0.853418ZM7.56182 22.3777C6.62797 22.3777 5.87427 21.624 5.87427 20.6902C5.87427 19.7564 6.62797 19.0027 7.56182 19.0027C8.49567 19.0027 9.24937 19.7564 9.24937 20.6902C9.24937 21.624 8.49567 22.3777 7.56182 22.3777ZM9.74937 13.6276C8.81552 13.6276 8.06182 12.8739 8.06182 11.9401C8.06182 11.0062 8.81552 10.2525 9.74937 10.2525C10.6832 10.2525 11.4369 11.0062 11.4369 11.9401C11.4369 12.8739 10.6832 13.6276 9.74937 13.6276ZM18.4996 9.25253C17.5657 9.25253 16.812 8.49883 16.812 7.565C16.812 6.63117 17.5657 5.87747 18.4996 5.87747C19.4334 5.87747 20.1871 6.63117 20.1871 7.565C20.1871 8.49883 19.4334 9.25253 18.4996 9.25253ZM27.2498 13.6276C26.3159 13.6276 25.5622 12.8739 25.5622 11.9401C25.5622 11.0062 26.3159 10.2525 27.2498 10.2525C28.1836 10.2525 28.9373 11.0062 28.9373 11.9401C28.9373 12.8739 28.1836 13.6276 27.2498 13.6276Z" fill="#FF8A00" stroke="black"/>
</svg>
