<svg width="37" height="37" viewBox="0 0 37 37" fill="none" xmlns="http://www.w3.org/2000/svg">
<path d="M25.4299 30.4592L25.4299 30.4592C26.7784 29.1107 25.8233 26.8049 23.9162 26.8049H20.9141V20.9141H26.805V23.916C26.8049 25.8232 29.1107 26.7782 30.4592 25.4297L35.873 20.016C36.709 19.18 36.709 17.8246 35.873 16.9886L30.4592 11.5749C29.1107 10.2264 26.805 11.1815 26.805 13.0886V16.0859H20.9141V10.1951H23.9115C25.8186 10.1951 26.7737 7.88927 25.4252 6.54077L20.0114 1.12699C19.1754 0.291002 17.8201 0.291002 16.9841 1.12699L11.5703 6.54077L11.5703 6.54078C10.2218 7.88935 11.1768 10.1951 13.084 10.1951H16.086V16.0859H10.1951V13.084C10.1951 11.1769 7.8893 10.2218 6.54079 11.5703L1.12702 16.984C1.12701 16.9841 1.127 16.9841 1.127 16.9841C0.290984 17.82 0.291018 19.1754 1.127 20.0114L6.54079 25.4251L6.5408 25.4251C7.88937 26.7736 10.1951 25.8186 10.1951 23.9114V20.9141H16.086L16.0861 26.805H13.0887C11.1815 26.8049 10.2265 29.1107 11.575 30.4592L16.9888 35.873C17.8248 36.709 19.1801 36.709 20.0161 35.873L25.4299 30.4592Z" fill="white" stroke="black"/>
</svg>
