<svg width="29" height="41" viewBox="0 0 29 41" fill="none" xmlns="http://www.w3.org/2000/svg">
<path d="M0.5 14.6463C0.5 22.2659 13.7 39.5732 14.2561 40.3049C14.3439 40.422 14.4902 40.5 14.6463 40.5C14.8024 40.5 14.939 40.4317 15.0366 40.3049C15.6024 39.5732 28.7927 22.2659 28.7927 14.6463C28.7927 6.84146 22.4512 0.5 14.6463 0.5C6.84146 0.5 0.5 6.84146 0.5 14.6463ZM27.8171 14.6463C27.8171 21.2317 16.861 36.2366 14.6463 39.2024C12.4317 36.2366 1.47561 21.2317 1.47561 14.6463C1.47561 7.3878 7.3878 1.47561 14.6463 1.47561C21.9049 1.47561 27.8171 7.3878 27.8171 14.6463Z" fill="black"/>
<path d="M5.37891 14.6463C5.37891 19.7585 9.535 23.9146 14.6472 23.9146C19.7594 23.9146 23.9155 19.7585 23.9155 14.6463C23.9155 9.53415 19.7594 5.37805 14.6472 5.37805C9.535 5.37805 5.37891 9.53415 5.37891 14.6463ZM22.9399 14.6463C22.9399 19.222 19.2228 22.939 14.6472 22.939C10.0716 22.939 6.35452 19.222 6.35452 14.6463C6.35452 10.0707 10.0716 6.35366 14.6472 6.35366C19.2228 6.35366 22.9399 10.0707 22.9399 14.6463Z" fill="black"/>
</svg>
