<svg width="300" height="300" viewBox="0 0 300 300" fill="none" xmlns="http://www.w3.org/2000/svg">
<rect width="300" height="300" rx="150" fill="black"/>
<mask id="path-2-inside-1" fill="white">
<path d="M152.201 150.102C152.201 137.656 151.069 125.331 148.871 113.832C146.674 102.333 143.452 91.8841 139.391 83.0829C135.329 74.2818 130.508 67.3004 125.202 62.5372C119.895 57.7741 114.208 55.3226 108.465 55.3226C102.721 55.3226 97.0338 57.7741 91.7275 62.5372C86.4212 67.3004 81.5998 74.2818 77.5385 83.0829C73.4772 91.8841 70.2557 102.333 68.0577 113.832C65.8598 125.331 64.7285 137.656 64.7285 150.102L73.4757 150.102C73.4757 140.145 74.3807 130.285 76.1391 121.086C77.8975 111.887 80.4747 103.528 83.7237 96.4868C86.9728 89.4459 90.8299 83.8608 95.0749 80.0503C99.32 76.2398 103.87 74.2785 108.465 74.2785C113.059 74.2785 117.609 76.2398 121.854 80.0503C126.099 83.8608 129.956 89.4459 133.205 96.4868C136.454 103.528 139.032 111.887 140.79 121.086C142.548 130.285 143.453 140.145 143.453 150.102L152.201 150.102Z"/>
</mask>
<path d="M152.201 150.102C152.201 137.656 151.069 125.331 148.871 113.832C146.674 102.333 143.452 91.8841 139.391 83.0829C135.329 74.2818 130.508 67.3004 125.202 62.5372C119.895 57.7741 114.208 55.3226 108.465 55.3226C102.721 55.3226 97.0338 57.7741 91.7275 62.5372C86.4212 67.3004 81.5998 74.2818 77.5385 83.0829C73.4772 91.8841 70.2557 102.333 68.0577 113.832C65.8598 125.331 64.7285 137.656 64.7285 150.102L73.4757 150.102C73.4757 140.145 74.3807 130.285 76.1391 121.086C77.8975 111.887 80.4747 103.528 83.7237 96.4868C86.9728 89.4459 90.8299 83.8608 95.0749 80.0503C99.32 76.2398 103.87 74.2785 108.465 74.2785C113.059 74.2785 117.609 76.2398 121.854 80.0503C126.099 83.8608 129.956 89.4459 133.205 96.4868C136.454 103.528 139.032 111.887 140.79 121.086C142.548 130.285 143.453 140.145 143.453 150.102L152.201 150.102Z" fill="white" stroke="black" stroke-width="2" mask="url(#path-2-inside-1)"/>
<mask id="path-3-inside-2" fill="white">
<path d="M148.407 150.026C148.407 162.482 149.535 174.817 151.728 186.326C153.921 197.834 157.135 208.291 161.187 217.099C165.239 225.907 170.049 232.894 175.343 237.661C180.637 242.428 186.311 244.882 192.041 244.882C197.771 244.882 203.445 242.428 208.739 237.661C214.033 232.894 218.844 225.907 222.896 217.099C226.947 208.291 230.161 197.834 232.354 186.326C234.547 174.817 235.676 162.482 235.676 150.026L226.949 150.026C226.949 159.991 226.046 169.859 224.292 179.066C222.537 188.272 219.966 196.638 216.725 203.684C213.483 210.731 209.635 216.321 205.4 220.134C201.165 223.948 196.625 225.911 192.041 225.911C187.457 225.911 182.918 223.948 178.683 220.134C174.447 216.321 170.599 210.731 167.358 203.684C164.116 196.638 161.545 188.272 159.791 179.066C158.036 169.859 157.134 159.991 157.134 150.026L148.407 150.026Z"/>
</mask>
<path d="M148.407 150.026C148.407 162.482 149.535 174.817 151.728 186.326C153.921 197.834 157.135 208.291 161.187 217.099C165.239 225.907 170.049 232.894 175.343 237.661C180.637 242.428 186.311 244.882 192.041 244.882C197.771 244.882 203.445 242.428 208.739 237.661C214.033 232.894 218.844 225.907 222.896 217.099C226.947 208.291 230.161 197.834 232.354 186.326C234.547 174.817 235.676 162.482 235.676 150.026L226.949 150.026C226.949 159.991 226.046 169.859 224.292 179.066C222.537 188.272 219.966 196.638 216.725 203.684C213.483 210.731 209.635 216.321 205.4 220.134C201.165 223.948 196.625 225.911 192.041 225.911C187.457 225.911 182.918 223.948 178.683 220.134C174.447 216.321 170.599 210.731 167.358 203.684C164.116 196.638 161.545 188.272 159.791 179.066C158.036 169.859 157.134 159.991 157.134 150.026L148.407 150.026Z" fill="white" stroke="black" stroke-width="2" mask="url(#path-3-inside-2)"/>
<path d="M149.969 164.713C155.475 164.713 160.441 163.034 164.019 160.344C167.597 157.653 169.764 153.973 169.764 149.951C169.764 145.928 167.597 142.249 164.019 139.558C160.441 136.868 155.475 135.188 149.969 135.188C144.463 135.188 139.497 136.868 135.919 139.558C132.341 142.249 130.174 145.928 130.174 149.951C130.174 153.973 132.341 157.653 135.919 160.344C139.497 163.034 144.463 164.713 149.969 164.713Z" fill="white" stroke="black"/>
<path d="M64.7288 165.018C70.2351 165.018 75.201 163.339 78.7791 160.648C82.357 157.958 84.5239 154.278 84.5239 150.256C84.5239 146.233 82.357 142.554 78.7791 139.863C75.201 137.172 70.2351 135.493 64.7288 135.493C59.2224 135.493 54.2566 137.172 50.6784 139.863C47.1005 142.554 44.9336 146.233 44.9336 150.256C44.9336 154.278 47.1005 157.958 50.6784 160.648C54.2566 163.339 59.2224 165.018 64.7288 165.018Z" fill="#E29E00" stroke="black"/>
<path d="M235.209 164.714C240.716 164.714 245.681 163.035 249.26 160.344C252.837 157.653 255.004 153.974 255.004 149.951C255.004 145.929 252.837 142.249 249.26 139.559C245.681 136.868 240.716 135.189 235.209 135.189C229.703 135.189 224.737 136.868 221.159 139.559C217.581 142.249 215.414 145.929 215.414 149.951C215.414 153.974 217.581 157.653 221.159 160.344C224.737 163.035 229.703 164.714 235.209 164.714Z" fill="#00AF91" stroke="black"/>
<mask id="path-7-inside-3" fill="white">
<path d="M149.897 152.281C162.22 152.281 174.422 151.138 185.807 148.918C197.192 146.698 207.536 143.444 216.25 139.342C224.963 135.24 231.875 130.37 236.591 125.01C241.307 119.651 243.734 113.906 243.734 108.105C243.734 102.304 241.307 96.5595 236.591 91.1998C231.875 85.8402 224.963 80.9703 216.25 76.8682C207.536 72.7661 197.192 69.5122 185.807 67.2921C174.422 65.0721 162.22 63.9294 149.897 63.9294L149.897 72.7646C159.756 72.7646 169.517 73.6787 178.625 75.4547C187.733 77.2307 196.009 79.8339 202.979 83.1156C209.95 86.3973 215.48 90.2932 219.252 94.5809C223.025 98.8686 224.967 103.464 224.967 108.105C224.967 112.746 223.025 117.342 219.252 121.629C215.48 125.917 209.95 129.813 202.979 133.095C196.009 136.376 187.733 138.979 178.625 140.756C169.517 142.532 159.756 143.446 149.897 143.446L149.897 152.281Z"/>
</mask>
<path d="M149.897 152.281C162.22 152.281 174.422 151.138 185.807 148.918C197.192 146.698 207.536 143.444 216.25 139.342C224.963 135.24 231.875 130.37 236.591 125.01C241.307 119.651 243.734 113.906 243.734 108.105C243.734 102.304 241.307 96.5595 236.591 91.1998C231.875 85.8402 224.963 80.9703 216.25 76.8682C207.536 72.7661 197.192 69.5122 185.807 67.2921C174.422 65.0721 162.22 63.9294 149.897 63.9294L149.897 72.7646C159.756 72.7646 169.517 73.6787 178.625 75.4547C187.733 77.2307 196.009 79.8339 202.979 83.1156C209.95 86.3973 215.48 90.2932 219.252 94.5809C223.025 98.8686 224.967 103.464 224.967 108.105C224.967 112.746 223.025 117.342 219.252 121.629C215.48 125.917 209.95 129.813 202.979 133.095C196.009 136.376 187.733 138.979 178.625 140.756C169.517 142.532 159.756 143.446 149.897 143.446L149.897 152.281Z" fill="white" stroke="black" stroke-width="2" mask="url(#path-7-inside-3)"/>
<mask id="path-8-inside-4" fill="white">
<path d="M149.972 148.449C137.64 148.449 125.428 149.589 114.034 151.804C102.64 154.018 92.287 157.265 83.5665 161.357C74.8459 165.45 67.9284 170.309 63.2088 175.656C58.4893 181.003 56.0602 186.734 56.0602 192.522C56.0602 198.31 58.4893 204.041 63.2088 209.388C67.9284 214.735 74.8459 219.594 83.5665 223.686C92.287 227.779 102.64 231.025 114.034 233.24C125.428 235.455 137.64 236.595 149.972 236.595L149.972 227.78C140.106 227.78 130.337 226.868 121.222 225.096C112.106 223.325 103.824 220.727 96.8477 217.453C89.8712 214.179 84.3372 210.292 80.5616 206.015C76.7859 201.737 74.8426 197.152 74.8426 192.522C74.8426 187.892 76.7859 183.307 80.5616 179.029C84.3372 174.751 89.8712 170.864 96.8477 167.59C103.824 164.316 112.106 161.719 121.222 159.947C130.337 158.175 140.106 157.263 149.972 157.263L149.972 148.449Z"/>
</mask>
<path d="M149.972 148.449C137.64 148.449 125.428 149.589 114.034 151.804C102.64 154.018 92.287 157.265 83.5665 161.357C74.8459 165.45 67.9284 170.309 63.2088 175.656C58.4893 181.003 56.0602 186.734 56.0602 192.522C56.0602 198.31 58.4893 204.041 63.2088 209.388C67.9284 214.735 74.8459 219.594 83.5665 223.686C92.287 227.779 102.64 231.025 114.034 233.24C125.428 235.455 137.64 236.595 149.972 236.595L149.972 227.78C140.106 227.78 130.337 226.868 121.222 225.096C112.106 223.325 103.824 220.727 96.8477 217.453C89.8712 214.179 84.3372 210.292 80.5616 206.015C76.7859 201.737 74.8426 197.152 74.8426 192.522C74.8426 187.892 76.7859 183.307 80.5616 179.029C84.3372 174.751 89.8712 170.864 96.8477 167.59C103.824 164.316 112.106 161.719 121.222 159.947C130.337 158.175 140.106 157.263 149.972 157.263L149.972 148.449Z" fill="white" stroke="black" stroke-width="2" mask="url(#path-8-inside-4)"/>
<path d="M130.641 150.021C130.641 163.988 140.359 175.178 152.194 175.178C164.03 175.178 173.748 163.988 173.748 150.021C173.748 136.054 164.03 124.864 152.194 124.864C140.359 124.864 130.641 136.054 130.641 150.021Z" fill="white" stroke="black"/>
<path d="M135.132 63.9281C135.132 69.4931 136.796 74.5113 139.461 78.1265C142.126 81.7419 145.767 83.9272 149.743 83.9272C153.719 83.9272 157.36 81.7419 160.025 78.1265C162.69 74.5113 164.354 69.4931 164.354 63.9281C164.354 58.3631 162.69 53.3449 160.025 49.7297C157.36 46.1143 153.719 43.929 149.743 43.929C145.767 43.929 142.126 46.1143 139.461 49.7297C136.796 53.3449 135.132 58.3631 135.132 63.9281Z" fill="#E29E00" stroke="black"/>
<path d="M135.433 236.121C135.433 241.686 137.097 246.704 139.761 250.32C142.426 253.935 146.067 256.12 150.044 256.12C154.02 256.12 157.661 253.935 160.326 250.32C162.991 246.704 164.654 241.686 164.654 236.121C164.654 230.556 162.991 225.538 160.326 221.923C157.661 218.307 154.02 216.122 150.044 216.122C146.067 216.122 142.426 218.307 139.761 221.923C137.097 225.538 135.433 230.556 135.433 236.121Z" fill="#00AF91" stroke="black"/>
<mask id="path-12-inside-5" fill="white">
<path d="M148.476 148.365C139.675 157.166 131.76 166.681 125.183 176.366C118.606 186.052 113.496 195.718 110.144 204.813C106.793 213.908 105.265 222.254 105.649 229.374C106.033 236.494 108.321 242.249 112.383 246.31C116.444 250.372 122.199 252.66 129.319 253.044C136.439 253.428 144.785 251.9 153.88 248.549C162.975 245.197 172.641 240.087 182.327 233.51C192.012 226.933 201.527 219.018 210.328 210.217L204.143 204.032C197.102 211.073 189.49 217.405 181.742 222.666C173.994 227.928 166.261 232.016 158.985 234.697C151.709 237.379 145.032 238.6 139.336 238.293C133.64 237.986 129.036 236.156 125.786 232.907C122.537 229.658 120.707 225.053 120.4 219.357C120.093 213.661 121.314 206.985 123.996 199.708C126.677 192.432 130.765 184.699 136.027 176.951C141.288 169.203 147.62 161.591 154.661 154.55L148.476 148.365Z"/>
</mask>
<path d="M148.476 148.365C139.675 157.166 131.76 166.681 125.183 176.366C118.606 186.052 113.496 195.718 110.144 204.813C106.793 213.908 105.265 222.254 105.649 229.374C106.033 236.494 108.321 242.249 112.383 246.31C116.444 250.372 122.199 252.66 129.319 253.044C136.439 253.428 144.785 251.9 153.88 248.549C162.975 245.197 172.641 240.087 182.327 233.51C192.012 226.933 201.527 219.018 210.328 210.217L204.143 204.032C197.102 211.073 189.49 217.405 181.742 222.666C173.994 227.928 166.261 232.016 158.985 234.697C151.709 237.379 145.032 238.6 139.336 238.293C133.64 237.986 129.036 236.156 125.786 232.907C122.537 229.658 120.707 225.053 120.4 219.357C120.093 213.661 121.314 206.985 123.996 199.708C126.677 192.432 130.765 184.699 136.027 176.951C141.288 169.203 147.62 161.591 154.661 154.55L148.476 148.365Z" fill="white" stroke="black" stroke-width="2" mask="url(#path-12-inside-5)"/>
<mask id="path-13-inside-6" fill="white">
<path d="M151.106 151.102C159.915 142.294 167.838 132.774 174.426 123.085C181.013 113.397 186.134 103.73 189.497 94.6369C192.861 85.5434 194.4 77.2015 194.027 70.0873C193.655 62.9731 191.377 57.226 187.325 53.1742C183.274 49.1224 177.527 46.8451 170.412 46.4724C163.298 46.0998 154.956 47.639 145.863 51.0023C136.769 54.3655 127.103 59.4869 117.414 66.0741C107.726 72.6612 98.2059 80.5851 89.3977 89.3933L95.5685 95.5642C102.615 88.5176 110.231 82.1785 117.982 76.9088C125.732 71.6391 133.466 67.542 140.741 64.8513C148.015 62.1607 154.689 60.9293 160.38 61.2275C166.072 61.5256 170.669 63.3474 173.911 66.5889C177.152 69.8304 178.974 74.428 179.272 80.1194C179.57 85.8107 178.339 92.4843 175.648 99.759C172.958 107.034 168.861 114.767 163.591 122.518C158.321 130.269 151.982 137.885 144.935 144.931L151.106 151.102Z"/>
</mask>
<path d="M151.106 151.102C159.915 142.294 167.838 132.774 174.426 123.085C181.013 113.397 186.134 103.73 189.497 94.6369C192.861 85.5434 194.4 77.2015 194.027 70.0873C193.655 62.9731 191.377 57.226 187.325 53.1742C183.274 49.1224 177.527 46.8451 170.412 46.4724C163.298 46.0998 154.956 47.639 145.863 51.0023C136.769 54.3655 127.103 59.4869 117.414 66.0741C107.726 72.6612 98.2059 80.5851 89.3977 89.3933L95.5685 95.5642C102.615 88.5176 110.231 82.1785 117.982 76.9088C125.732 71.6391 133.466 67.542 140.741 64.8513C148.015 62.1607 154.689 60.9293 160.38 61.2275C166.072 61.5256 170.669 63.3474 173.911 66.5889C177.152 69.8304 178.974 74.428 179.272 80.1194C179.57 85.8107 178.339 92.4843 175.648 99.759C172.958 107.034 168.861 114.767 163.591 122.518C158.321 130.269 151.982 137.885 144.935 144.931L151.106 151.102Z" fill="white" stroke="black" stroke-width="2" mask="url(#path-13-inside-6)"/>
<path d="M160.388 139.614C156.494 135.721 151.796 133.397 147.363 132.769C142.93 132.142 138.796 133.211 135.952 136.056C133.108 138.9 132.038 143.034 132.665 147.467C133.293 151.899 135.617 156.598 139.511 160.492C143.404 164.385 148.103 166.709 152.536 167.337C156.968 167.964 161.102 166.895 163.946 164.05C166.791 161.206 167.86 157.072 167.233 152.639C166.605 148.207 164.281 143.508 160.388 139.614Z" fill="white" stroke="black"/>
<path d="M220.878 199.671C216.984 195.778 212.286 193.454 207.853 192.826C203.42 192.199 199.286 193.268 196.442 196.113C193.598 198.957 192.528 203.091 193.156 207.523C193.783 211.956 196.107 216.655 200.001 220.549C203.894 224.442 208.593 226.766 213.026 227.394C217.458 228.021 221.592 226.952 224.437 224.107C227.281 221.263 228.351 217.129 227.723 212.696C227.096 208.263 224.772 203.565 220.878 199.671Z" fill="#E29E00" stroke="black"/>
<path d="M100.11 79.34C96.2169 75.4464 91.5182 73.1223 87.0854 72.4949C82.6528 71.8675 78.5189 72.937 75.6745 75.7813C72.8302 78.6257 71.7607 82.7596 72.3881 87.1922C73.0155 91.625 75.3396 96.3237 79.2332 100.217C83.1267 104.111 87.8254 106.435 92.2582 107.062C96.6908 107.69 100.825 106.62 103.669 103.776C106.513 100.932 107.583 96.7976 106.956 92.365C106.328 87.9322 104.004 83.2335 100.11 79.34Z" fill="#00AF91" stroke="black"/>
<mask id="path-17-inside-7" fill="white">
<path d="M151.649 148.46C142.935 139.747 133.499 131.926 123.879 125.446C114.259 118.965 104.643 113.952 95.5812 110.691C86.5191 107.43 78.1881 105.986 71.0637 106.441C63.9394 106.897 58.1612 109.242 54.0591 113.345C49.957 117.447 47.6114 123.225 47.156 130.349C46.7007 137.474 48.1447 145.805 51.4055 154.867C54.6663 163.929 59.68 173.544 66.1605 183.164C72.641 192.784 80.4612 202.221 89.1748 210.934L95.4222 204.687C88.4513 197.716 82.1951 190.167 77.0107 182.471C71.8264 174.775 67.8154 167.082 65.2067 159.833C62.5981 152.583 61.4429 145.918 61.8072 140.219C62.1714 134.519 64.0479 129.897 67.3296 126.615C70.6113 123.333 75.2338 121.457 80.9333 121.093C86.6328 120.728 93.2976 121.884 100.547 124.492C107.797 127.101 115.489 131.112 123.185 136.296C130.881 141.481 138.43 147.737 145.401 154.708L151.649 148.46Z"/>
</mask>
<path d="M151.649 148.46C142.935 139.747 133.499 131.926 123.879 125.446C114.259 118.965 104.643 113.952 95.5812 110.691C86.5191 107.43 78.1881 105.986 71.0637 106.441C63.9394 106.897 58.1612 109.242 54.0591 113.345C49.957 117.447 47.6114 123.225 47.156 130.349C46.7007 137.474 48.1447 145.805 51.4055 154.867C54.6663 163.929 59.68 173.544 66.1605 183.164C72.641 192.784 80.4612 202.221 89.1748 210.934L95.4222 204.687C88.4513 197.716 82.1951 190.167 77.0107 182.471C71.8264 174.775 67.8154 167.082 65.2067 159.833C62.5981 152.583 61.4429 145.918 61.8072 140.219C62.1714 134.519 64.0479 129.897 67.3296 126.615C70.6113 123.333 75.2338 121.457 80.9333 121.093C86.6328 120.728 93.2976 121.884 100.547 124.492C107.797 127.101 115.489 131.112 123.185 136.296C130.881 141.481 138.43 147.737 145.401 154.708L151.649 148.46Z" fill="white" stroke="black" stroke-width="2" mask="url(#path-17-inside-7)"/>
<mask id="path-18-inside-8" fill="white">
<path d="M148.89 151.116C157.61 159.836 167.051 167.665 176.674 174.156C186.297 180.647 195.913 185.672 204.974 188.944C214.034 192.216 222.361 193.672 229.479 193.229C236.597 192.785 242.368 190.45 246.46 186.357C250.553 182.265 252.888 176.495 253.331 169.376C253.775 162.258 252.319 153.931 249.047 144.871C245.774 135.811 240.749 126.194 234.259 116.572C227.768 106.949 219.939 97.5074 211.219 88.7869L204.986 95.0197C211.962 101.996 218.225 109.549 223.418 117.248C228.61 124.946 232.63 132.639 235.248 139.887C237.866 147.135 239.031 153.797 238.676 159.491C238.321 165.186 236.453 169.802 233.179 173.076C229.905 176.35 225.289 178.218 219.594 178.573C213.9 178.928 207.238 177.763 199.99 175.145C192.742 172.527 185.049 168.507 177.35 163.315C169.652 158.123 162.099 151.859 155.123 144.883L148.89 151.116Z"/>
</mask>
<path d="M148.89 151.116C157.61 159.836 167.051 167.665 176.674 174.156C186.297 180.647 195.913 185.672 204.974 188.944C214.034 192.216 222.361 193.672 229.479 193.229C236.597 192.785 242.368 190.45 246.46 186.357C250.553 182.265 252.888 176.495 253.331 169.376C253.775 162.258 252.319 153.931 249.047 144.871C245.774 135.811 240.749 126.194 234.259 116.572C227.768 106.949 219.939 97.5074 211.219 88.7869L204.986 95.0197C211.962 101.996 218.225 109.549 223.418 117.248C228.61 124.946 232.63 132.639 235.248 139.887C237.866 147.135 239.031 153.797 238.676 159.491C238.321 165.186 236.453 169.802 233.179 173.076C229.905 176.35 225.289 178.218 219.594 178.573C213.9 178.928 207.238 177.763 199.99 175.145C192.742 172.527 185.049 168.507 177.35 163.315C169.652 158.123 162.099 151.859 155.123 144.883L148.89 151.116Z" fill="white" stroke="black" stroke-width="2" mask="url(#path-18-inside-8)"/>
<path d="M163.668 163.67C173.545 153.793 174.585 139.009 166.216 130.641C157.847 122.272 143.063 123.312 133.187 133.188C123.311 143.065 122.27 157.849 130.639 166.217C139.008 174.586 153.792 173.546 163.668 163.67Z" fill="white" stroke="black"/>
<path d="M99.6146 221.371C103.55 217.436 105.922 212.711 106.594 208.27C107.266 203.83 106.237 199.71 103.425 196.898C100.613 194.086 96.4934 193.057 92.0525 193.729C87.6118 194.401 82.8872 196.773 78.9522 200.708C75.0171 204.643 72.6449 209.368 71.9729 213.809C71.3009 218.25 72.3302 222.369 75.1419 225.181C77.9535 227.993 82.0734 229.022 86.5143 228.35C90.955 227.678 95.6796 225.306 99.6146 221.371Z" fill="#E29E00" stroke="black"/>
<path d="M221.158 99.3986C225.093 95.4636 227.465 90.739 228.137 86.2983C228.809 81.8574 227.78 77.7375 224.968 74.9259C222.156 72.1142 218.036 71.0849 213.595 71.7569C209.155 72.4289 204.43 74.8011 200.495 78.7362C196.56 82.6712 194.188 87.3958 193.516 91.8365C192.844 96.2774 193.873 100.397 196.685 103.209C199.496 106.021 203.616 107.05 208.057 106.378C212.498 105.706 217.223 103.334 221.158 99.3986Z" fill="#00AF91" stroke="black"/>
</svg>
