<svg width="107" height="128" viewBox="0 0 107 128" fill="none" xmlns="http://www.w3.org/2000/svg">
<path d="M106.986 77.647H0.0136719V127.803H106.986V77.647Z" fill="#2D2A32"/>
<path d="M106.999 47.9971H0V77.984H106.999V47.9971Z" fill="white"/>
<path d="M63.1968 71.1061C64.0597 71.1047 64.8903 70.7797 65.5225 70.1959C66.1548 69.6121 66.5421 68.8126 66.6072 67.9572L69.9753 67.9751C70.0156 68.6319 70.2466 69.263 70.6405 69.7919C71.0343 70.3208 71.574 70.7247 72.1942 70.9548C72.8143 71.1848 73.4883 71.2311 74.1344 71.088C74.7804 70.9448 75.3709 70.6185 75.8341 70.1484C76.2973 69.6784 76.6134 69.0848 76.7441 68.4397C76.8748 67.7946 76.8145 67.1257 76.5705 66.514C76.3264 65.9023 75.9091 65.3741 75.3692 64.9935C74.8293 64.6129 74.1898 64.3961 73.5285 64.3695L70.618 60.061C71.1315 59.6002 71.4925 58.9954 71.6535 58.3265C71.8145 57.6576 71.7678 56.9559 71.5196 56.3139C71.2714 55.6719 70.8334 55.1197 70.2633 54.7301C69.6932 54.3405 69.0177 54.1317 68.3259 54.1313C67.6341 54.131 66.9584 54.339 66.3878 54.728C65.8173 55.117 65.3787 55.6687 65.1298 56.3104C64.8809 56.9522 64.8335 57.6538 64.9937 58.3229C65.1539 58.992 65.5143 59.5971 66.0273 60.0586L63.0587 64.3061C62.1636 64.3415 61.3182 64.7245 60.7041 65.3728C60.0899 66.0211 59.7561 66.883 59.7741 67.7734C59.7922 68.6638 60.1608 69.5116 60.8008 70.1347C61.4408 70.7578 62.301 71.1066 63.1968 71.1061ZM76.302 67.7659C76.302 68.3389 76.1311 68.8989 75.8109 69.3754C75.4907 69.8518 75.0357 70.2231 74.5032 70.4424C73.9707 70.6616 73.3849 70.719 72.8196 70.6072C72.2543 70.4955 71.7351 70.2195 71.3276 69.8144C70.9201 69.4093 70.6425 68.8931 70.5301 68.3312C70.4176 67.7692 70.4753 67.1867 70.6958 66.6573C70.9164 66.128 71.2899 65.6756 71.7691 65.3572C72.2482 65.0389 72.8116 64.8689 73.3879 64.8689C74.1605 64.8698 74.9012 65.1753 75.4475 65.7184C75.9938 66.2615 76.3011 66.9978 76.302 67.7659ZM65.4101 57.542C65.4101 56.9691 65.581 56.409 65.9012 55.9326C66.2214 55.4562 66.6765 55.0848 67.209 54.8656C67.7415 54.6463 68.3274 54.589 68.8926 54.7007C69.4579 54.8125 69.9771 55.0885 70.3846 55.4936C70.7922 55.8988 71.0697 56.415 71.1821 56.977C71.2945 57.5389 71.2368 58.1214 71.0162 58.6508C70.7956 59.1801 70.4221 59.6326 69.9429 59.9508C69.4637 60.2691 68.9003 60.439 68.324 60.439C67.5514 60.4381 66.8108 60.1326 66.2645 59.5896C65.7182 59.0465 65.411 58.3101 65.4101 57.542ZM68.324 60.9455C68.9977 60.946 69.6565 60.7476 70.2167 60.3756L72.9328 64.3961C72.1631 64.4997 71.4517 64.8601 70.9152 65.4184C70.3786 65.9766 70.0488 66.6995 69.9798 67.4686L66.6073 67.4506C66.5484 66.6744 66.2237 65.9417 65.6873 65.3746C65.151 64.8075 64.4354 64.4402 63.6597 64.334L66.4277 60.3734C66.9887 60.7469 67.6488 60.9461 68.324 60.9455ZM63.1968 64.8057C63.7731 64.8057 64.3365 64.9756 64.8157 65.2939C65.2949 65.6123 65.6684 66.0647 65.8889 66.5941C66.1094 67.1234 66.1671 67.7059 66.0547 68.2678C65.9422 68.8298 65.6647 69.346 65.2572 69.7511C64.8496 70.1563 64.3304 70.4321 63.7651 70.5439C63.1999 70.6557 62.614 70.5983 62.0815 70.379C61.5491 70.1598 61.094 69.7885 60.7738 69.3121C60.4536 68.8357 60.2827 68.2756 60.2827 67.7026C60.2836 66.9345 60.5908 66.1981 61.1372 65.655C61.6835 65.1119 62.4242 64.8065 63.1968 64.8057Z" fill="black"/>
<path d="M10.8501 71.1704C10.7055 71.1704 10.5882 71.0614 10.5882 70.927V57.2965C10.5882 57.1621 10.7055 57.0531 10.8501 57.0531H23.4169C23.5615 57.0531 23.6787 57.1621 23.6787 57.2965V70.927C23.6787 71.0614 23.5615 71.1704 23.4169 71.1704H10.8501ZM23.1551 70.6835V57.5399H11.1119V70.6835H23.1551ZM24.4641 55.1059C24.6087 55.1059 24.726 55.2149 24.726 55.3493V57.2965C24.726 57.431 24.6087 57.5399 24.4641 57.5399H9.80282C9.65822 57.5399 9.54102 57.431 9.54102 57.2965V55.3493C9.54102 55.2149 9.65822 55.1059 9.80282 55.1059H13.3597L14.3303 54.2036C14.3793 54.158 14.446 54.1323 14.5154 54.1323H19.7516C19.821 54.1323 19.8876 54.158 19.9367 54.2036L20.9072 55.1059H24.4641ZM24.2023 55.5927H20.7988C20.7294 55.5927 20.6628 55.5671 20.6137 55.5214L19.6431 54.6191H14.6238L13.6533 55.5214C13.6042 55.5671 13.5376 55.5927 13.4682 55.5927H10.0646V57.0531H24.2023V55.5927Z" fill="black"/>
<path d="M46.7142 69.3702L44.784 70.435L42.4258 70.861L42.4262 68.5183L49.286 64.2588L48.6436 67.0275L46.7142 69.3702Z" fill="#FF265A"/>
<path d="M46.7128 65.7496L43.7115 67.6664L42.4252 68.3053L42.1016 66.6733L42.102 64.3306L48.4282 60.6382L49.071 62.342L49.2856 64.0458L46.7128 65.7496Z" fill="#00C1FF"/>
<path d="M46.7128 65.7496L43.7115 67.6664L42.4252 68.3053L42.1016 66.6733L42.102 64.3306L48.4282 60.6382L49.071 62.342L49.2856 64.0458L46.7128 65.7496Z" fill="#00C1FF"/>
<path d="M46.5625 61.6218L43.7115 63.6194L42.1882 64.1774L42.1016 62.6263L42.102 60.2836L46.0464 57.7881L47.3334 59.066L48.2134 60.4247L46.5625 61.6218Z" fill="#FFCC91"/>
<path d="M44.9956 58.5082L43.4949 59.5731L42.3665 60.2122L42.209 57.6565L42.3665 54.7319L43.311 55.2887L44.6104 56.5538L46.0678 57.8695L44.9956 58.5082Z" fill="#799DC9"/>
<path d="M49.1199 63.9133C49.1177 65.1016 48.8078 66.277 48.2098 67.3081C47.6333 68.3049 46.8034 69.1509 45.8153 69.7472C44.7968 70.3629 43.6245 70.7052 42.4326 70.7353C41.2278 70.7655 40.0273 70.4835 38.9698 69.9108C37.9535 69.3597 37.0824 68.5568 36.4604 67.588C35.8212 66.5934 35.4485 65.4417 35.39 64.262C35.3206 62.8304 35.702 61.4053 36.4865 60.2019C37.0217 59.3817 37.7476 58.6971 38.4541 58.0233C39.2212 57.2914 40.0121 56.5809 40.8074 55.8791C41.3101 55.4357 41.8172 54.9965 42.3286 54.5616C42.3524 54.5401 42.3784 54.5186 42.4023 54.4992C42.3004 54.4992 42.1986 54.4992 42.0967 54.4992C42.3459 54.7102 42.5951 54.9233 42.8422 55.1386C43.4186 55.6359 43.9907 56.1396 44.5562 56.6477C45.1998 57.2268 45.8391 57.8145 46.4567 58.4194C47.0158 58.9684 47.5727 59.5281 48.0039 60.1847C48.6432 61.1599 49.0289 62.2922 49.1047 63.4547C49.1155 63.6076 49.1199 63.7604 49.1199 63.9133C49.1199 64.1909 49.5532 64.1909 49.5532 63.9133C49.5511 62.6969 49.2434 61.4914 48.6562 60.4258C48.2314 59.6551 47.6529 59.0028 47.0331 58.3806C46.4263 57.7693 45.7936 57.1837 45.1543 56.6046C44.5584 56.0643 43.956 55.5304 43.3471 55.003C43.0394 54.736 42.7317 54.4648 42.4175 54.2043C42.4131 54.2 42.4088 54.1978 42.4044 54.1935C42.3091 54.1139 42.1942 54.1139 42.0989 54.1935C41.7175 54.5164 41.3404 54.8437 40.9634 55.1709C40.1681 55.8641 39.3815 56.5637 38.6101 57.2827C37.9166 57.9286 37.2059 58.5809 36.6056 59.315C35.6435 60.4861 35.0671 61.9284 34.9652 63.4375C34.8786 64.7248 35.1451 66.0251 35.728 67.1768C36.2763 68.2618 37.1062 69.1983 38.1095 69.8893C39.1367 70.5976 40.3437 71.0238 41.5853 71.1379C42.8552 71.2542 44.1424 71.0324 45.3017 70.505C46.4155 69.9991 47.382 69.2069 48.1144 68.2339C48.8599 67.2436 49.3301 66.0638 49.4904 64.8389C49.5316 64.5311 49.5511 64.2232 49.5511 63.9133C49.5533 63.6355 49.1199 63.6355 49.1199 63.9133Z" fill="black"/>
<path d="M42.4666 70.9611C42.4666 70.8126 42.4666 70.6662 42.4666 70.5176C42.4666 70.1151 42.4666 69.7125 42.4666 69.3099C42.4666 68.7136 42.4666 68.1194 42.4666 67.5232C42.4666 66.7955 42.4666 66.07 42.4666 65.3424C42.4666 64.5459 42.4666 63.7494 42.4666 62.9528C42.4666 62.1498 42.4666 61.3447 42.4666 60.5417C42.4666 59.7926 42.4666 59.0412 42.4666 58.2921C42.4666 57.6549 42.4666 57.0198 42.4666 56.3826C42.4666 55.9262 42.4666 55.472 42.4666 55.0156C42.4666 54.8003 42.4709 54.585 42.4666 54.3676C42.4666 54.359 42.4666 54.3482 42.4666 54.3396C42.4666 54.0619 42.0332 54.0619 42.0332 54.3396C42.0332 54.4882 42.0332 54.6346 42.0332 54.7831C42.0332 55.1857 42.0332 55.5882 42.0332 55.9908C42.0332 56.5871 42.0332 57.1813 42.0332 57.7776C42.0332 58.5052 42.0332 59.2307 42.0332 59.9584C42.0332 60.7548 42.0332 61.5514 42.0332 62.3479C42.0332 63.1509 42.0332 63.956 42.0332 64.759C42.0332 65.5082 42.0332 66.2595 42.0332 67.0087C42.0332 67.6458 42.0332 68.2809 42.0332 68.9181C42.0332 69.3745 42.0332 69.8287 42.0332 70.2852C42.0332 70.5004 42.0288 70.7157 42.0332 70.9331C42.0332 70.9417 42.0332 70.9525 42.0332 70.9611C42.0332 71.2388 42.4666 71.2388 42.4666 70.9611Z" fill="black"/>
<path d="M42.3605 60.5435C42.8047 60.2615 43.2511 59.9817 43.6953 59.6996C44.4039 59.2518 45.1125 58.8041 45.8211 58.3584C45.9836 58.2573 46.144 58.1539 46.3065 58.0528C46.5405 57.9042 46.3239 57.5318 46.0876 57.6803C45.6434 57.9623 45.197 58.2422 44.7528 58.5242C44.0442 58.972 43.3356 59.4198 42.627 59.8654C42.4645 59.9666 42.3041 60.0699 42.1416 60.1711C41.9076 60.3196 42.1243 60.6921 42.3605 60.5435Z" fill="black"/>
<path d="M48.3153 60.2691C47.6197 60.7083 46.9219 61.1474 46.2264 61.5887C45.1168 62.2884 44.0095 62.988 42.9001 63.6877C42.6465 63.847 42.3952 64.0063 42.1416 64.1656C41.9076 64.3142 42.1243 64.6866 42.3605 64.538C43.0561 64.0989 43.7538 63.6597 44.4494 63.2184C45.5589 62.5187 46.6662 61.8191 47.7757 61.1194C48.0293 60.9601 48.2806 60.8008 48.5342 60.6415C48.7682 60.4908 48.5515 60.1184 48.3153 60.2691Z" fill="black"/>
<path d="M42.3605 68.6211C42.5945 68.4726 42.8285 68.3241 43.0647 68.1777C43.6281 67.8225 44.1916 67.4673 44.755 67.1099C45.4397 66.6772 46.1245 66.2445 46.8093 65.8118C47.3987 65.4393 47.9881 65.0669 48.5775 64.6967C48.8635 64.5158 49.1561 64.3415 49.4356 64.1542C49.44 64.152 49.4443 64.1499 49.4486 64.1455C49.6826 63.997 49.4659 63.6246 49.2297 63.7731C48.9957 63.9216 48.7617 64.0702 48.5255 64.2166C47.9621 64.5718 47.3987 64.927 46.8353 65.2843C46.1505 65.7171 45.4657 66.1497 44.781 66.5825C44.1916 66.9549 43.6022 67.3273 43.0127 67.6976C42.7267 67.8784 42.4342 68.0528 42.1546 68.2401C42.1503 68.2422 42.146 68.2444 42.1416 68.2487C41.9076 68.3972 42.1243 68.7697 42.3605 68.6211Z" fill="black"/>
<path d="M87.0371 60.157C87.0371 63.4026 92.6597 70.7746 92.8965 71.0863C92.9339 71.1362 92.9962 71.1694 93.0627 71.1694C93.1292 71.1694 93.1874 71.1403 93.229 71.0863C93.47 70.7746 99.0884 63.4026 99.0884 60.157C99.0884 56.8325 96.3872 54.1313 93.0627 54.1313C89.7383 54.1313 87.0371 56.8325 87.0371 60.157ZM98.6729 60.157C98.6729 62.962 94.0061 69.3534 93.0627 70.6167C92.1194 69.3534 87.4527 62.962 87.4527 60.157C87.4527 57.0652 89.971 54.5469 93.0627 54.5469C96.1545 54.5469 98.6729 57.0652 98.6729 60.157Z" fill="black"/>
<path d="M89.1172 60.1573C89.1172 62.3348 90.8875 64.1051 93.065 64.1051C95.2426 64.1051 97.0129 62.3348 97.0129 60.1573C97.0129 57.9798 95.2426 56.2095 93.065 56.2095C90.8875 56.2095 89.1172 57.9798 89.1172 60.1573ZM96.5973 60.1573C96.5973 62.1063 95.014 63.6896 93.065 63.6896C91.116 63.6896 89.5327 62.1063 89.5327 60.1573C89.5327 58.2083 91.116 56.625 93.065 56.625C95.014 56.625 96.5973 58.2083 96.5973 60.1573Z" fill="black"/>
<path d="M106.718 0H0V48.3954H106.718V0Z" fill="white"/>
<path d="M27.3005 2.48145H6.20508V23.5768H27.3005V2.48145Z" fill="#2D2A32"/>
<path d="M27.3005 24.8179H6.20508V45.9133H27.3005V24.8179Z" fill="#C55C5C"/>
<path d="M102.994 2.48145H31.0215V23.5768H102.994V2.48145Z" fill="#E5E5E5"/>
<path d="M102.994 24.8179H31.0215V45.9133H102.994V24.8179Z" fill="#E5E5E5"/>
<path d="M39.6609 11.8598L39.3189 13.4798H40.5609V14.1998H39.1659L38.7789 15.9998H37.9959L38.3829 14.1998H36.4929L36.1059 15.9998H35.3229L35.7099 14.1998H34.2969V13.4798H35.8629L36.2049 11.8598H34.8099V11.1398H36.3579L36.7449 9.33984H37.5279L37.1409 11.1398H39.0309L39.4179 9.33984H40.2009L39.8139 11.1398H41.0649V11.8598H39.6609ZM38.8779 11.8598H36.9879L36.6459 13.4798H38.5359L38.8779 11.8598ZM42.0175 15.3428C42.7795 14.7308 43.3765 14.2298 43.8085 13.8398C44.2405 13.4438 44.6035 13.0328 44.8975 12.6068C45.1975 12.1748 45.3475 11.7518 45.3475 11.3378C45.3475 10.9478 45.2515 10.6418 45.0595 10.4198C44.8735 10.1918 44.5705 10.0778 44.1505 10.0778C43.7425 10.0778 43.4245 10.2068 43.1965 10.4648C42.9745 10.7168 42.8545 11.0558 42.8365 11.4818H42.0445C42.0685 10.8098 42.2725 10.2908 42.6565 9.92484C43.0405 9.55884 43.5355 9.37584 44.1415 9.37584C44.7595 9.37584 45.2485 9.54684 45.6085 9.88884C45.9745 10.2308 46.1575 10.7018 46.1575 11.3018C46.1575 11.7998 46.0075 12.2858 45.7075 12.7598C45.4135 13.2278 45.0775 13.6418 44.6995 14.0018C44.3215 14.3558 43.8385 14.7698 43.2505 15.2438H46.3465V15.9278H42.0175V15.3428ZM49.3813 9.72684C50.0653 9.72684 50.6563 9.85584 51.1543 10.1138C51.6583 10.3658 52.0423 10.7288 52.3063 11.2028C52.5763 11.6768 52.7113 12.2348 52.7113 12.8768C52.7113 13.5188 52.5763 14.0768 52.3063 14.5508C52.0423 15.0188 51.6583 15.3788 51.1543 15.6308C50.6563 15.8768 50.0653 15.9998 49.3813 15.9998H47.4283V9.72684H49.3813ZM49.3813 15.3248C50.1913 15.3248 50.8093 15.1118 51.2353 14.6858C51.6613 14.2538 51.8743 13.6508 51.8743 12.8768C51.8743 12.0968 51.6583 11.4878 51.2263 11.0498C50.8003 10.6118 50.1853 10.3928 49.3813 10.3928H48.2473V15.3248H49.3813ZM53.5575 15.3428C54.3195 14.7308 54.9165 14.2298 55.3485 13.8398C55.7805 13.4438 56.1435 13.0328 56.4375 12.6068C56.7375 12.1748 56.8875 11.7518 56.8875 11.3378C56.8875 10.9478 56.7915 10.6418 56.5995 10.4198C56.4135 10.1918 56.1105 10.0778 55.6905 10.0778C55.2825 10.0778 54.9645 10.2068 54.7365 10.4648C54.5145 10.7168 54.3945 11.0558 54.3765 11.4818H53.5845C53.6085 10.8098 53.8125 10.2908 54.1965 9.92484C54.5805 9.55884 55.0755 9.37584 55.6815 9.37584C56.2995 9.37584 56.7885 9.54684 57.1485 9.88884C57.5145 10.2308 57.6975 10.7018 57.6975 11.3018C57.6975 11.7998 57.5475 12.2858 57.2475 12.7598C56.9535 13.2278 56.6175 13.6418 56.2395 14.0018C55.8615 14.3558 55.3785 14.7698 54.7905 15.2438H57.8865V15.9278H53.5575V15.3428ZM62.6763 14.6048H59.9403L59.4363 15.9998H58.5723L60.8403 9.76284H61.7853L64.0443 15.9998H63.1803L62.6763 14.6048ZM62.4423 13.9388L61.3083 10.7708L60.1743 13.9388H62.4423ZM64.8797 11.1308C64.9217 10.5788 65.1347 10.1468 65.5187 9.83484C65.9027 9.52284 66.4007 9.36684 67.0127 9.36684C67.4207 9.36684 67.7717 9.44184 68.0657 9.59184C68.3657 9.73584 68.5907 9.93384 68.7407 10.1858C68.8967 10.4378 68.9747 10.7228 68.9747 11.0408C68.9747 11.4128 68.8667 11.7338 68.6507 12.0038C68.4407 12.2738 68.1647 12.4478 67.8227 12.5258V12.5708C68.2127 12.6668 68.5217 12.8558 68.7497 13.1378C68.9777 13.4198 69.0917 13.7888 69.0917 14.2448C69.0917 14.5868 69.0137 14.8958 68.8577 15.1718C68.7017 15.4418 68.4677 15.6548 68.1557 15.8108C67.8437 15.9668 67.4687 16.0448 67.0307 16.0448C66.3947 16.0448 65.8727 15.8798 65.4647 15.5498C65.0567 15.2138 64.8287 14.7398 64.7807 14.1278H65.5727C65.6147 14.4878 65.7617 14.7818 66.0137 15.0098C66.2657 15.2378 66.6017 15.3518 67.0217 15.3518C67.4417 15.3518 67.7597 15.2438 67.9757 15.0278C68.1977 14.8058 68.3087 14.5208 68.3087 14.1728C68.3087 13.7228 68.1587 13.3988 67.8587 13.2008C67.5587 13.0028 67.1057 12.9038 66.4997 12.9038H66.2927V12.2198H66.5087C67.0607 12.2138 67.4777 12.1238 67.7597 11.9498C68.0417 11.7698 68.1827 11.4938 68.1827 11.1218C68.1827 10.8038 68.0777 10.5488 67.8677 10.3568C67.6637 10.1648 67.3697 10.0688 66.9857 10.0688C66.6137 10.0688 66.3137 10.1648 66.0857 10.3568C65.8577 10.5488 65.7227 10.8068 65.6807 11.1308H64.8797ZM70.0985 15.3428C70.8605 14.7308 71.4575 14.2298 71.8895 13.8398C72.3215 13.4438 72.6845 13.0328 72.9785 12.6068C73.2785 12.1748 73.4285 11.7518 73.4285 11.3378C73.4285 10.9478 73.3325 10.6418 73.1405 10.4198C72.9545 10.1918 72.6515 10.0778 72.2315 10.0778C71.8235 10.0778 71.5055 10.2068 71.2775 10.4648C71.0555 10.7168 70.9355 11.0558 70.9175 11.4818H70.1255C70.1495 10.8098 70.3535 10.2908 70.7375 9.92484C71.1215 9.55884 71.6165 9.37584 72.2225 9.37584C72.8405 9.37584 73.3295 9.54684 73.6895 9.88884C74.0555 10.2308 74.2385 10.7018 74.2385 11.3018C74.2385 11.7998 74.0885 12.2858 73.7885 12.7598C73.4945 13.2278 73.1585 13.6418 72.7805 14.0018C72.4025 14.3558 71.9195 14.7698 71.3315 15.2438H74.4275V15.9278H70.0985V15.3428Z" fill="#8B8B8B"/>
<path d="M39.1648 34.9189L38.8228 36.5389H40.0648V37.2589H38.6698L38.2828 39.0589H37.4998L37.8868 37.2589H35.9968L35.6098 39.0589H34.8268L35.2138 37.2589H33.8008V36.5389H35.3668L35.7088 34.9189H34.3138V34.1989H35.8618L36.2488 32.3989H37.0318L36.6448 34.1989H38.5348L38.9218 32.3989H39.7048L39.3178 34.1989H40.5688V34.9189H39.1648ZM38.3818 34.9189H36.4918L36.1498 36.5389H38.0398L38.3818 34.9189ZM41.4494 35.9179C41.4494 35.3059 41.5874 34.7569 41.8634 34.2709C42.1394 33.7789 42.5144 33.3949 42.9884 33.1189C43.4684 32.8429 43.9994 32.7049 44.5814 32.7049C45.2654 32.7049 45.8624 32.8699 46.3724 33.1999C46.8824 33.5299 47.2544 33.9979 47.4884 34.6039H46.5074C46.3334 34.2259 46.0814 33.9349 45.7514 33.7309C45.4274 33.5269 45.0374 33.4249 44.5814 33.4249C44.1434 33.4249 43.7504 33.5269 43.4024 33.7309C43.0544 33.9349 42.7814 34.2259 42.5834 34.6039C42.3854 34.9759 42.2864 35.4139 42.2864 35.9179C42.2864 36.4159 42.3854 36.8539 42.5834 37.2319C42.7814 37.6039 43.0544 37.8919 43.4024 38.0959C43.7504 38.2999 44.1434 38.4019 44.5814 38.4019C45.0374 38.4019 45.4274 38.3029 45.7514 38.1049C46.0814 37.9009 46.3334 37.6099 46.5074 37.2319H47.4884C47.2544 37.8319 46.8824 38.2969 46.3724 38.6269C45.8624 38.9509 45.2654 39.1129 44.5814 39.1129C43.9994 39.1129 43.4684 38.9779 42.9884 38.7079C42.5144 38.4319 42.1394 38.0509 41.8634 37.5649C41.5874 37.0789 41.4494 36.5299 41.4494 35.9179ZM52.7215 33.2629H49.5625V35.3149C49.7005 35.1229 49.9045 34.9669 50.1745 34.8469C50.4445 34.7209 50.7355 34.6579 51.0475 34.6579C51.5455 34.6579 51.9505 34.7629 52.2625 34.9729C52.5745 35.1769 52.7965 35.4439 52.9285 35.7739C53.0665 36.0979 53.1355 36.4429 53.1355 36.8089C53.1355 37.2409 53.0545 37.6279 52.8925 37.9699C52.7305 38.3119 52.4815 38.5819 52.1455 38.7799C51.8155 38.9779 51.4045 39.0769 50.9125 39.0769C50.2825 39.0769 49.7725 38.9149 49.3825 38.5909C48.9925 38.2669 48.7555 37.8349 48.6715 37.2949H49.4725C49.5505 37.6369 49.7155 37.9039 49.9675 38.0959C50.2195 38.2879 50.5375 38.3839 50.9215 38.3839C51.3955 38.3839 51.7525 38.2429 51.9925 37.9609C52.2325 37.6729 52.3525 37.2949 52.3525 36.8269C52.3525 36.3589 52.2325 35.9989 51.9925 35.7469C51.7525 35.4889 51.3985 35.3599 50.9305 35.3599C50.6125 35.3599 50.3335 35.4379 50.0935 35.5939C49.8595 35.7439 49.6885 35.9509 49.5805 36.2149H48.8065V32.5429H52.7215V33.2629ZM58.3729 33.2629H55.2139V35.3149C55.3519 35.1229 55.5559 34.9669 55.8259 34.8469C56.0959 34.7209 56.3869 34.6579 56.6989 34.6579C57.1969 34.6579 57.6019 34.7629 57.9139 34.9729C58.2259 35.1769 58.4479 35.4439 58.5799 35.7739C58.7179 36.0979 58.7869 36.4429 58.7869 36.8089C58.7869 37.2409 58.7059 37.6279 58.5439 37.9699C58.3819 38.3119 58.1329 38.5819 57.7969 38.7799C57.4669 38.9779 57.0559 39.0769 56.5639 39.0769C55.9339 39.0769 55.4239 38.9149 55.0339 38.5909C54.6439 38.2669 54.4069 37.8349 54.3229 37.2949H55.1239C55.2019 37.6369 55.3669 37.9039 55.6189 38.0959C55.8709 38.2879 56.1889 38.3839 56.5729 38.3839C57.0469 38.3839 57.4039 38.2429 57.6439 37.9609C57.8839 37.6729 58.0039 37.2949 58.0039 36.8269C58.0039 36.3589 57.8839 35.9989 57.6439 35.7469C57.4039 35.4889 57.0499 35.3599 56.5819 35.3599C56.2639 35.3599 55.9849 35.4379 55.7449 35.5939C55.5109 35.7439 55.3399 35.9509 55.2319 36.2149H54.4579V32.5429H58.3729V33.2629ZM59.7043 35.9179C59.7043 35.3059 59.8423 34.7569 60.1183 34.2709C60.3943 33.7789 60.7693 33.3949 61.2433 33.1189C61.7233 32.8429 62.2543 32.7049 62.8363 32.7049C63.5203 32.7049 64.1173 32.8699 64.6273 33.1999C65.1373 33.5299 65.5093 33.9979 65.7433 34.6039H64.7623C64.5883 34.2259 64.3363 33.9349 64.0063 33.7309C63.6823 33.5269 63.2923 33.4249 62.8363 33.4249C62.3983 33.4249 62.0053 33.5269 61.6573 33.7309C61.3093 33.9349 61.0363 34.2259 60.8383 34.6039C60.6403 34.9759 60.5413 35.4139 60.5413 35.9179C60.5413 36.4159 60.6403 36.8539 60.8383 37.2319C61.0363 37.6039 61.3093 37.8919 61.6573 38.0959C62.0053 38.2999 62.3983 38.4019 62.8363 38.4019C63.2923 38.4019 63.6823 38.3029 64.0063 38.1049C64.3363 37.9009 64.5883 37.6099 64.7623 37.2319H65.7433C65.5093 37.8319 65.1373 38.2969 64.6273 38.6269C64.1173 38.9509 63.5203 39.1129 62.8363 39.1129C62.2543 39.1129 61.7233 38.9779 61.2433 38.7079C60.7693 38.4319 60.3943 38.0509 60.1183 37.5649C59.8423 37.0789 59.7043 36.5299 59.7043 35.9179ZM70.9764 33.2629H67.8174V35.3149C67.9554 35.1229 68.1594 34.9669 68.4294 34.8469C68.6994 34.7209 68.9904 34.6579 69.3024 34.6579C69.8004 34.6579 70.2054 34.7629 70.5174 34.9729C70.8294 35.1769 71.0514 35.4439 71.1834 35.7739C71.3214 36.0979 71.3904 36.4429 71.3904 36.8089C71.3904 37.2409 71.3094 37.6279 71.1474 37.9699C70.9854 38.3119 70.7364 38.5819 70.4004 38.7799C70.0704 38.9779 69.6594 39.0769 69.1674 39.0769C68.5374 39.0769 68.0274 38.9149 67.6374 38.5909C67.2474 38.2669 67.0104 37.8349 66.9264 37.2949H67.7274C67.8054 37.6369 67.9704 37.9039 68.2224 38.0959C68.4744 38.2879 68.7924 38.3839 69.1764 38.3839C69.6504 38.3839 70.0074 38.2429 70.2474 37.9609C70.4874 37.6729 70.6074 37.2949 70.6074 36.8269C70.6074 36.3589 70.4874 35.9989 70.2474 35.7469C70.0074 35.4889 69.6534 35.3599 69.1854 35.3599C68.8674 35.3599 68.5884 35.4379 68.3484 35.5939C68.1144 35.7439 67.9434 35.9509 67.8354 36.2149H67.0614V32.5429H70.9764V33.2629ZM72.3078 35.9179C72.3078 35.3059 72.4458 34.7569 72.7218 34.2709C72.9978 33.7789 73.3728 33.3949 73.8468 33.1189C74.3268 32.8429 74.8578 32.7049 75.4398 32.7049C76.1238 32.7049 76.7208 32.8699 77.2308 33.1999C77.7408 33.5299 78.1128 33.9979 78.3468 34.6039H77.3658C77.1918 34.2259 76.9398 33.9349 76.6098 33.7309C76.2858 33.5269 75.8958 33.4249 75.4398 33.4249C75.0018 33.4249 74.6088 33.5269 74.2608 33.7309C73.9128 33.9349 73.6398 34.2259 73.4418 34.6039C73.2438 34.9759 73.1448 35.4139 73.1448 35.9179C73.1448 36.4159 73.2438 36.8539 73.4418 37.2319C73.6398 37.6039 73.9128 37.8919 74.2608 38.0959C74.6088 38.2999 75.0018 38.4019 75.4398 38.4019C75.8958 38.4019 76.2858 38.3029 76.6098 38.1049C76.9398 37.9009 77.1918 37.6099 77.3658 37.2319H78.3468C78.1128 37.8319 77.7408 38.2969 77.2308 38.6269C76.7208 38.9509 76.1238 39.1129 75.4398 39.1129C74.8578 39.1129 74.3268 38.9779 73.8468 38.7079C73.3728 38.4319 72.9978 38.0509 72.7218 37.5649C72.4458 37.0789 72.3078 36.5299 72.3078 35.9179Z" fill="#8B8B8B"/>
<path d="M16.5956 103.161C16.5956 102.413 16.7642 101.742 17.1016 101.148C17.4389 100.547 17.8972 100.077 18.4766 99.74C19.0632 99.4027 19.7122 99.234 20.4236 99.234C21.2596 99.234 21.9892 99.4357 22.6126 99.839C23.2359 100.242 23.6906 100.814 23.9766 101.555H22.7776C22.5649 101.093 22.2569 100.737 21.8536 100.488C21.4576 100.239 20.9809 100.114 20.4236 100.114C19.8882 100.114 19.4079 100.239 18.9826 100.488C18.5572 100.737 18.2236 101.093 17.9816 101.555C17.7396 102.01 17.6186 102.545 17.6186 103.161C17.6186 103.77 17.7396 104.305 17.9816 104.767C18.2236 105.222 18.5572 105.574 18.9826 105.823C19.4079 106.072 19.8882 106.197 20.4236 106.197C20.9809 106.197 21.4576 106.076 21.8536 105.834C22.2569 105.585 22.5649 105.229 22.7776 104.767H23.9766C23.6906 105.5 23.2359 106.069 22.6126 106.472C21.9892 106.868 21.2596 107.066 20.4236 107.066C19.7122 107.066 19.0632 106.901 18.4766 106.571C17.8972 106.234 17.4389 105.768 17.1016 105.174C16.7642 104.58 16.5956 103.909 16.5956 103.161ZM28.4586 100.862C28.9133 100.862 29.324 100.961 29.6906 101.159C30.0573 101.35 30.3433 101.639 30.5486 102.028C30.7613 102.417 30.8676 102.89 30.8676 103.447V107H29.8776V103.59C29.8776 102.989 29.7273 102.53 29.4266 102.215C29.126 101.892 28.7153 101.731 28.1946 101.731C27.6666 101.731 27.245 101.896 26.9296 102.226C26.6216 102.556 26.4676 103.036 26.4676 103.667V107H25.4666V98.86H26.4676V101.83C26.6656 101.522 26.937 101.284 27.2816 101.115C27.6336 100.946 28.026 100.862 28.4586 100.862ZM32.1288 103.964C32.1288 103.348 32.2534 102.809 32.5028 102.347C32.7521 101.878 33.0931 101.515 33.5258 101.258C33.9658 101.001 34.4534 100.873 34.9888 100.873C35.5168 100.873 35.9751 100.987 36.3638 101.214C36.7524 101.441 37.0421 101.727 37.2328 102.072V100.972H38.2448V107H37.2328V105.878C37.0348 106.23 36.7378 106.523 36.3418 106.758C35.9531 106.985 35.4984 107.099 34.9778 107.099C34.4424 107.099 33.9584 106.967 33.5258 106.703C33.0931 106.439 32.7521 106.069 32.5028 105.592C32.2534 105.115 32.1288 104.573 32.1288 103.964ZM37.2328 103.975C37.2328 103.52 37.1411 103.124 36.9578 102.787C36.7744 102.45 36.5251 102.193 36.2098 102.017C35.9018 101.834 35.5608 101.742 35.1868 101.742C34.8128 101.742 34.4718 101.83 34.1638 102.006C33.8558 102.182 33.6101 102.439 33.4268 102.776C33.2434 103.113 33.1518 103.509 33.1518 103.964C33.1518 104.426 33.2434 104.829 33.4268 105.174C33.6101 105.511 33.8558 105.772 34.1638 105.955C34.4718 106.131 34.8128 106.219 35.1868 106.219C35.5608 106.219 35.9018 106.131 36.2098 105.955C36.5251 105.772 36.7744 105.511 36.9578 105.174C37.1411 104.829 37.2328 104.43 37.2328 103.975ZM42.8734 100.862C43.6067 100.862 44.2007 101.086 44.6554 101.533C45.11 101.973 45.3374 102.611 45.3374 103.447V107H44.3474V103.59C44.3474 102.989 44.197 102.53 43.8964 102.215C43.5957 101.892 43.185 101.731 42.6644 101.731C42.1364 101.731 41.7147 101.896 41.3994 102.226C41.0914 102.556 40.9374 103.036 40.9374 103.667V107H39.9364V100.972H40.9374V101.83C41.1354 101.522 41.403 101.284 41.7404 101.115C42.085 100.946 42.4627 100.862 42.8734 100.862ZM49.4585 100.873C49.9792 100.873 50.4338 100.987 50.8225 101.214C51.2185 101.441 51.5118 101.727 51.7025 102.072V100.972H52.7145V107.132C52.7145 107.682 52.5972 108.17 52.3625 108.595C52.1278 109.028 51.7905 109.365 51.3505 109.607C50.9178 109.849 50.4118 109.97 49.8325 109.97C49.0405 109.97 48.3805 109.783 47.8525 109.409C47.3245 109.035 47.0128 108.525 46.9175 107.88H47.9075C48.0175 108.247 48.2448 108.54 48.5895 108.76C48.9342 108.987 49.3485 109.101 49.8325 109.101C50.3825 109.101 50.8298 108.929 51.1745 108.584C51.5265 108.239 51.7025 107.755 51.7025 107.132V105.867C51.5045 106.219 51.2112 106.512 50.8225 106.747C50.4338 106.982 49.9792 107.099 49.4585 107.099C48.9232 107.099 48.4355 106.967 47.9955 106.703C47.5628 106.439 47.2218 106.069 46.9725 105.592C46.7232 105.115 46.5985 104.573 46.5985 103.964C46.5985 103.348 46.7232 102.809 46.9725 102.347C47.2218 101.878 47.5628 101.515 47.9955 101.258C48.4355 101.001 48.9232 100.873 49.4585 100.873ZM51.7025 103.975C51.7025 103.52 51.6108 103.124 51.4275 102.787C51.2442 102.45 50.9948 102.193 50.6795 102.017C50.3715 101.834 50.0305 101.742 49.6565 101.742C49.2825 101.742 48.9415 101.83 48.6335 102.006C48.3255 102.182 48.0798 102.439 47.8965 102.776C47.7132 103.113 47.6215 103.509 47.6215 103.964C47.6215 104.426 47.7132 104.829 47.8965 105.174C48.0798 105.511 48.3255 105.772 48.6335 105.955C48.9415 106.131 49.2825 106.219 49.6565 106.219C50.0305 106.219 50.3715 106.131 50.6795 105.955C50.9948 105.772 51.2442 105.511 51.4275 105.174C51.6108 104.829 51.7025 104.43 51.7025 103.975ZM59.9061 103.755C59.9061 103.946 59.8951 104.147 59.8731 104.36H55.0551C55.0917 104.954 55.2934 105.42 55.6601 105.757C56.0341 106.087 56.4851 106.252 57.0131 106.252C57.4457 106.252 57.8051 106.153 58.0911 105.955C58.3844 105.75 58.5897 105.478 58.7071 105.141H59.7851C59.6237 105.72 59.3011 106.193 58.8171 106.56C58.3331 106.919 57.7317 107.099 57.0131 107.099C56.4411 107.099 55.9277 106.971 55.4731 106.714C55.0257 106.457 54.6737 106.094 54.4171 105.625C54.1604 105.148 54.0321 104.598 54.0321 103.975C54.0321 103.352 54.1567 102.805 54.4061 102.336C54.6554 101.867 55.0037 101.507 55.4511 101.258C55.9057 101.001 56.4264 100.873 57.0131 100.873C57.5851 100.873 58.0911 100.998 58.5311 101.247C58.9711 101.496 59.3084 101.841 59.5431 102.281C59.7851 102.714 59.9061 103.205 59.9061 103.755ZM58.8721 103.546C58.8721 103.165 58.7877 102.838 58.6191 102.567C58.4504 102.288 58.2194 102.079 57.9261 101.94C57.6401 101.793 57.3211 101.72 56.9691 101.72C56.4631 101.72 56.0304 101.881 55.6711 102.204C55.3191 102.527 55.1174 102.974 55.0661 103.546H58.8721ZM63.786 103.975C63.786 103.352 63.9107 102.809 64.16 102.347C64.4093 101.878 64.754 101.515 65.194 101.258C65.6413 101.001 66.151 100.873 66.723 100.873C67.4637 100.873 68.0723 101.053 68.549 101.412C69.033 101.771 69.352 102.27 69.506 102.908H68.428C68.3253 102.541 68.1237 102.252 67.823 102.039C67.5297 101.826 67.163 101.72 66.723 101.72C66.151 101.72 65.689 101.918 65.337 102.314C64.985 102.703 64.809 103.256 64.809 103.975C64.809 104.701 64.985 105.262 65.337 105.658C65.689 106.054 66.151 106.252 66.723 106.252C67.163 106.252 67.5297 106.149 67.823 105.944C68.1163 105.739 68.318 105.445 68.428 105.064H69.506C69.3447 105.68 69.022 106.175 68.538 106.549C68.054 106.916 67.449 107.099 66.723 107.099C66.151 107.099 65.6413 106.971 65.194 106.714C64.754 106.457 64.4093 106.094 64.16 105.625C63.9107 105.156 63.786 104.606 63.786 103.975ZM73.4706 107.099C72.906 107.099 72.3926 106.971 71.9306 106.714C71.476 106.457 71.1166 106.094 70.8526 105.625C70.596 105.148 70.4676 104.598 70.4676 103.975C70.4676 103.359 70.5996 102.816 70.8636 102.347C71.135 101.87 71.5016 101.507 71.9636 101.258C72.4256 101.001 72.9426 100.873 73.5146 100.873C74.0866 100.873 74.6036 101.001 75.0656 101.258C75.5276 101.507 75.8906 101.867 76.1546 102.336C76.426 102.805 76.5616 103.352 76.5616 103.975C76.5616 104.598 76.4223 105.148 76.1436 105.625C75.8723 106.094 75.502 106.457 75.0326 106.714C74.5633 106.971 74.0426 107.099 73.4706 107.099ZM73.4706 106.219C73.83 106.219 74.1673 106.135 74.4826 105.966C74.798 105.797 75.051 105.544 75.2416 105.207C75.4396 104.87 75.5386 104.459 75.5386 103.975C75.5386 103.491 75.4433 103.08 75.2526 102.743C75.062 102.406 74.8126 102.156 74.5046 101.995C74.1966 101.826 73.863 101.742 73.5036 101.742C73.137 101.742 72.7996 101.826 72.4916 101.995C72.191 102.156 71.949 102.406 71.7656 102.743C71.5823 103.08 71.4906 103.491 71.4906 103.975C71.4906 104.466 71.5786 104.881 71.7546 105.218C71.938 105.555 72.18 105.808 72.4806 105.977C72.7813 106.138 73.1113 106.219 73.4706 106.219ZM78.8788 98.86V107H77.8778V98.86H78.8788ZM83.2138 107.099C82.6491 107.099 82.1358 106.971 81.6738 106.714C81.2191 106.457 80.8598 106.094 80.5958 105.625C80.3391 105.148 80.2108 104.598 80.2108 103.975C80.2108 103.359 80.3428 102.816 80.6068 102.347C80.8781 101.87 81.2448 101.507 81.7068 101.258C82.1688 101.001 82.6858 100.873 83.2578 100.873C83.8298 100.873 84.3468 101.001 84.8088 101.258C85.2708 101.507 85.6338 101.867 85.8978 102.336C86.1691 102.805 86.3048 103.352 86.3048 103.975C86.3048 104.598 86.1655 105.148 85.8868 105.625C85.6155 106.094 85.2451 106.457 84.7758 106.714C84.3065 106.971 83.7858 107.099 83.2138 107.099ZM83.2138 106.219C83.5731 106.219 83.9105 106.135 84.2258 105.966C84.5411 105.797 84.7941 105.544 84.9848 105.207C85.1828 104.87 85.2818 104.459 85.2818 103.975C85.2818 103.491 85.1865 103.08 84.9958 102.743C84.8051 102.406 84.5558 102.156 84.2478 101.995C83.9398 101.826 83.6061 101.742 83.2468 101.742C82.8801 101.742 82.5428 101.826 82.2348 101.995C81.9341 102.156 81.6921 102.406 81.5088 102.743C81.3255 103.08 81.2338 103.491 81.2338 103.975C81.2338 104.466 81.3218 104.881 81.4978 105.218C81.6811 105.555 81.9231 105.808 82.2238 105.977C82.5245 106.138 82.8545 106.219 83.2138 106.219ZM88.6219 101.951C88.7979 101.606 89.0473 101.339 89.3699 101.148C89.6999 100.957 90.0996 100.862 90.5689 100.862V101.896H90.3049C89.1829 101.896 88.6219 102.505 88.6219 103.722V107H87.6209V100.972H88.6219V101.951Z" fill="#C55C5C"/>
</svg>
