<svg width="285" height="188" viewBox="0 0 285 188" fill="none" xmlns="http://www.w3.org/2000/svg">
<path d="M63.375 86.8755L227.091 171.035" stroke="white" stroke-width="4"/>
<path d="M103.214 68.604H0.0136719V116.991H103.214V68.604Z" fill="#35495E"/>
<path d="M103.226 40H0V68.9297H103.226V40Z" fill="white"/>
<path d="M60.9707 62.2937C61.8031 62.2924 62.6044 61.9788 63.2144 61.4156C63.8243 60.8524 64.198 60.0811 64.2608 59.2558L67.5101 59.2731C67.549 59.9068 67.7719 60.5156 68.1519 61.0259C68.5318 61.5361 69.0525 61.9258 69.6508 62.1478C70.2491 62.3697 70.8993 62.4143 71.5225 62.2762C72.1458 62.1381 72.7155 61.8233 73.1623 61.3698C73.6092 60.9163 73.9142 60.3437 74.0403 59.7214C74.1664 59.099 74.1082 58.4537 73.8728 57.8635C73.6373 57.2734 73.2347 56.7639 72.7139 56.3967C72.193 56.0294 71.5761 55.8203 70.938 55.7947L68.1302 51.6381C68.6256 51.1935 68.9739 50.6101 69.1291 49.9648C69.2844 49.3194 69.2394 48.6425 69 48.0231C68.7605 47.4037 68.338 46.871 67.788 46.4951C67.238 46.1192 66.5863 45.9178 65.9189 45.9175C65.2514 45.9171 64.5996 46.1178 64.0492 46.4931C63.4987 46.8684 63.0756 47.4006 62.8355 48.0198C62.5954 48.6389 62.5496 49.3158 62.7042 49.9613C62.8587 50.6068 63.2064 51.1906 63.7013 51.6357L60.8374 55.7335C59.9739 55.7676 59.1583 56.1371 58.5658 56.7626C57.9733 57.3881 57.6512 58.2196 57.6686 59.0786C57.6861 59.9375 58.0417 60.7554 58.6591 61.3566C59.2765 61.9578 60.1065 62.2942 60.9707 62.2937ZM73.6138 59.0713C73.6138 59.6241 73.4489 60.1644 73.14 60.624C72.8311 61.0836 72.3921 61.4418 71.8784 61.6534C71.3647 61.8649 70.7995 61.9203 70.2542 61.8124C69.7088 61.7046 69.2079 61.4384 68.8147 61.0476C68.4216 60.6567 68.1538 60.1588 68.0453 59.6166C67.9369 59.0745 67.9925 58.5125 68.2053 58.0018C68.418 57.4912 68.7784 57.0547 69.2406 56.7475C69.7029 56.4404 70.2464 56.2765 70.8024 56.2765C71.5478 56.2773 72.2624 56.572 72.7894 57.096C73.3164 57.6199 73.6129 58.3303 73.6138 59.0713ZM63.1059 49.2079C63.1059 48.6552 63.2708 48.1148 63.5797 47.6552C63.8886 47.1956 64.3277 46.8374 64.8414 46.6258C65.3551 46.4143 65.9203 46.359 66.4656 46.4668C67.011 46.5747 67.5119 46.8409 67.905 47.2317C68.2982 47.6226 68.5659 48.1206 68.6744 48.6628C68.7828 49.2049 68.7271 49.7669 68.5143 50.2775C68.3015 50.7882 67.9412 51.2247 67.4789 51.5318C67.0166 51.8389 66.473 52.0027 65.917 52.0027C65.1717 52.0019 64.4572 51.7072 63.9301 51.1832C63.4031 50.6593 63.1067 49.9489 63.1059 49.2079ZM65.917 52.4914C66.567 52.4919 67.2025 52.3005 67.7431 51.9415L70.3633 55.8203C69.6208 55.9202 68.9345 56.268 68.4169 56.8065C67.8992 57.3451 67.5811 58.0425 67.5145 58.7845L64.2609 58.7671C64.2041 58.0183 63.8908 57.3114 63.3734 56.7643C62.8559 56.2172 62.1655 55.8629 61.4172 55.7604L64.0876 51.9394C64.6289 52.2998 65.2657 52.4919 65.917 52.4914ZM60.9706 56.2155C61.5266 56.2155 62.0702 56.3794 62.5324 56.6865C62.9947 56.9936 63.3551 57.4301 63.5678 57.9408C63.7806 58.4515 63.8362 59.0134 63.7277 59.5556C63.6193 60.0977 63.3515 60.5957 62.9583 60.9865C62.5652 61.3774 62.0643 61.6435 61.5189 61.7514C60.9736 61.8592 60.4084 61.8039 59.8947 61.5923C59.381 61.3808 58.942 61.0226 58.6331 60.563C58.3242 60.1034 58.1593 59.563 58.1593 59.0102C58.1601 58.2692 58.4566 57.5588 58.9836 57.0348C59.5107 56.5109 60.2253 56.2163 60.9706 56.2155Z" fill="black"/>
<path d="M10.468 62.3548C10.3285 62.3548 10.2154 62.2497 10.2154 62.12V48.9701C10.2154 48.8404 10.3285 48.7353 10.468 48.7353H22.5917C22.7312 48.7353 22.8443 48.8404 22.8443 48.9701V62.12C22.8443 62.2497 22.7312 62.3548 22.5917 62.3548H10.468ZM22.3391 61.8851V49.2049H10.7205V61.8851H22.3391ZM23.602 46.8568C23.7415 46.8568 23.8546 46.9619 23.8546 47.0916V48.9701C23.8546 49.0998 23.7415 49.2049 23.602 49.2049H9.45766C9.31816 49.2049 9.20508 49.0998 9.20508 48.9701V47.0916C9.20508 46.9619 9.31816 46.8568 9.45766 46.8568H12.8891L13.8255 45.9863C13.8728 45.9422 13.9371 45.9175 14.004 45.9175H19.0556C19.1226 45.9175 19.1869 45.9422 19.2342 45.9863L20.1705 46.8568H23.602ZM23.3495 47.3264H20.0659C19.999 47.3264 19.9347 47.3017 19.8874 47.2576L18.951 46.3871H14.1087L13.1723 47.2576C13.125 47.3017 13.0607 47.3264 12.9938 47.3264H9.71024V48.7353H23.3495V47.3264Z" fill="black"/>
<path d="M45.0669 60.6187L43.2047 61.646L40.9297 62.0569L40.9301 59.7968L47.548 55.6875L46.9282 58.3586L45.0669 60.6187Z" fill="#FF265A"/>
<path d="M45.0659 57.1255L42.1703 58.9747L40.9294 59.5911L40.6172 58.0166L40.6176 55.7565L46.7208 52.1943L47.3409 53.8381L47.5479 55.4818L45.0659 57.1255Z" fill="#00C1FF"/>
<path d="M45.0659 57.1255L42.1703 58.9747L40.9294 59.5911L40.6172 58.0166L40.6176 55.7565L46.7208 52.1943L47.3409 53.8381L47.5479 55.4818L45.0659 57.1255Z" fill="#00C1FF"/>
<path d="M44.9209 53.1438L42.1703 55.0711L40.7008 55.6094L40.6172 54.113L40.6176 51.8529L44.423 49.4453L45.6645 50.6782L46.5136 51.989L44.9209 53.1438Z" fill="#FFCC91"/>
<path d="M43.4111 50.1397L41.9633 51.167L40.8746 51.7836L40.7227 49.318L40.8746 46.4966L41.7858 47.0337L43.0394 48.2542L44.4455 49.5235L43.4111 50.1397Z" fill="#799DC9"/>
<path d="M47.3878 55.3551C47.3857 56.5015 47.0868 57.6355 46.5098 58.6303C45.9537 59.5918 45.153 60.4081 44.1997 60.9833C43.2172 61.5773 42.0862 61.9076 40.9364 61.9366C39.774 61.9657 38.6158 61.6936 37.5956 61.1412C36.6151 60.6095 35.7747 59.8349 35.1747 58.9003C34.558 57.9408 34.1984 56.8296 34.142 55.6915C34.0751 54.3104 34.443 52.9355 35.1998 51.7745C35.7162 50.9833 36.4165 50.3228 37.0981 49.6728C37.8381 48.9666 38.6012 48.2813 39.3684 47.6042C39.8534 47.1764 40.3426 46.7527 40.836 46.3332C40.859 46.3124 40.8841 46.2917 40.9071 46.273C40.8088 46.273 40.7106 46.273 40.6123 46.273C40.8527 46.4765 41.0931 46.6821 41.3315 46.8898C41.8875 47.3695 42.4395 47.8555 42.9851 48.3457C43.606 48.9043 44.2227 49.4713 44.8185 50.0549C45.3579 50.5845 45.8952 51.1245 46.3112 51.7579C46.9279 52.6988 47.3 53.7912 47.3732 54.9127C47.3836 55.0602 47.3878 55.2076 47.3878 55.3551C47.3878 55.623 47.8059 55.623 47.8059 55.3551C47.8039 54.1816 47.507 53.0186 46.9405 51.9906C46.5307 51.247 45.9725 50.6178 45.3746 50.0175C44.7893 49.4277 44.1788 48.8628 43.5621 48.3041C42.9872 47.7828 42.406 47.2678 41.8185 46.7589C41.5217 46.5014 41.2248 46.2397 40.9217 45.9884C40.9175 45.9843 40.9134 45.9822 40.9091 45.978C40.8172 45.9012 40.7064 45.9012 40.6144 45.978C40.2464 46.2896 39.8827 46.6053 39.5189 46.9209C38.7517 47.5897 37.9928 48.2647 37.2486 48.9583C36.5796 49.5814 35.8939 50.2107 35.3148 50.9189C34.3866 52.0487 33.8305 53.4402 33.7323 54.8961C33.6486 56.138 33.9058 57.3924 34.4681 58.5036C34.997 59.5503 35.7977 60.4538 36.7657 61.1204C37.7566 61.8037 38.921 62.2149 40.1189 62.325C41.344 62.4372 42.5858 62.2232 43.7043 61.7144C44.7788 61.2264 45.7112 60.4621 46.4178 59.5233C47.137 58.568 47.5906 57.4298 47.7453 56.2481C47.785 55.9511 47.8039 55.6541 47.8039 55.3551C47.8059 55.0872 47.3878 55.0872 47.3878 55.3551Z" fill="black"/>
<path d="M40.9707 62.1538C40.9707 62.0106 40.9707 61.8693 40.9707 61.726C40.9707 61.3376 40.9707 60.9493 40.9707 60.5609C40.9707 59.9856 40.9707 59.4124 40.9707 58.8371C40.9707 58.1351 40.9707 57.4352 40.9707 56.7332C40.9707 55.9648 40.9707 55.1964 40.9707 54.4279C40.9707 53.6532 40.9707 52.8765 40.9707 52.1019C40.9707 51.3791 40.9707 50.6543 40.9707 49.9315C40.9707 49.3168 40.9707 48.7041 40.9707 48.0894C40.9707 47.6491 40.9707 47.2109 40.9707 46.7706C40.9707 46.5629 40.9749 46.3552 40.9707 46.1454C40.9707 46.1371 40.9707 46.1267 40.9707 46.1184C40.9707 45.8505 40.5526 45.8505 40.5526 46.1184C40.5526 46.2617 40.5526 46.4029 40.5526 46.5463C40.5526 46.9346 40.5526 47.323 40.5526 47.7114C40.5526 48.2867 40.5526 48.8599 40.5526 49.4352C40.5526 50.1371 40.5526 50.837 40.5526 51.539C40.5526 52.3074 40.5526 53.0759 40.5526 53.8443C40.5526 54.619 40.5526 55.3958 40.5526 56.1704C40.5526 56.8932 40.5526 57.618 40.5526 58.3408C40.5526 58.9555 40.5526 59.5682 40.5526 60.1829C40.5526 60.6232 40.5526 61.0614 40.5526 61.5017C40.5526 61.7094 40.5485 61.9171 40.5526 62.1268C40.5526 62.1351 40.5526 62.1455 40.5526 62.1538C40.5526 62.4218 40.9707 62.4218 40.9707 62.1538Z" fill="black"/>
<path d="M40.8668 52.104C41.2954 51.8319 41.726 51.5619 42.1546 51.2898C42.8382 50.8578 43.5218 50.4258 44.2054 49.9959C44.3622 49.8983 44.5169 49.7986 44.6737 49.701C44.8995 49.5577 44.6904 49.1984 44.4625 49.3417C44.034 49.6138 43.6033 49.8838 43.1747 50.1559C42.4912 50.5878 41.8075 51.0198 41.1239 51.4497C40.9671 51.5474 40.8124 51.647 40.6557 51.7446C40.4298 51.8879 40.6389 52.2473 40.8668 52.104Z" fill="black"/>
<path d="M46.6116 51.8382C45.9406 52.2619 45.2674 52.6855 44.5964 53.1113C43.526 53.7862 42.4577 54.4612 41.3874 55.1362C41.1427 55.2899 40.9002 55.4436 40.6557 55.5973C40.4298 55.7406 40.6389 56.0999 40.8668 55.9566C41.5379 55.5329 42.211 55.1092 42.8821 54.6835C43.9524 54.0085 45.0207 53.3335 46.0911 52.6585C46.3357 52.5048 46.5782 52.3511 46.8228 52.1975C47.0486 52.0521 46.8395 51.6928 46.6116 51.8382Z" fill="black"/>
<path d="M40.8668 59.8962C41.0925 59.7529 41.3184 59.6097 41.5462 59.4684C42.0898 59.1257 42.6333 58.7831 43.1769 58.4383C43.8375 58.0209 44.4981 57.6034 45.1587 57.1859C45.7273 56.8266 46.296 56.4674 46.8646 56.1101C47.1406 55.9357 47.4228 55.7675 47.6925 55.5868C47.6967 55.5847 47.7008 55.5826 47.705 55.5784C47.9308 55.4351 47.7217 55.0759 47.4939 55.2192C47.2681 55.3625 47.0423 55.5058 46.8144 55.647C46.2709 55.9897 45.7273 56.3323 45.1838 56.6771C44.5232 57.0946 43.8626 57.512 43.202 57.9295C42.6333 58.2887 42.0647 58.6481 41.4961 59.0053C41.2201 59.1797 40.9379 59.348 40.6682 59.5287C40.664 59.5307 40.6598 59.5328 40.6557 59.537C40.4298 59.6802 40.6389 60.0396 40.8668 59.8962Z" fill="black"/>
<path d="M83.9688 51.7307C83.9688 54.8618 89.3929 61.9739 89.6214 62.2746C89.6575 62.3227 89.7176 62.3548 89.7817 62.3548C89.8459 62.3548 89.902 62.3267 89.9421 62.2746C90.1746 61.9739 95.5949 54.8618 95.5949 51.7307C95.5949 48.5234 92.989 45.9175 89.7817 45.9175C86.5745 45.9175 83.9688 48.5234 83.9688 51.7307ZM95.194 51.7307C95.194 54.4368 90.6918 60.6028 89.7817 61.8216C88.8717 60.6028 84.3695 54.4368 84.3695 51.7307C84.3695 48.7479 86.799 46.3184 89.7817 46.3184C92.7645 46.3184 95.194 48.7479 95.194 51.7307Z" fill="black"/>
<path d="M85.9746 51.7305C85.9746 53.8313 87.6825 55.5392 89.7833 55.5392C91.884 55.5392 93.5919 53.8313 93.5919 51.7305C93.5919 49.6297 91.884 47.9219 89.7833 47.9219C87.6825 47.9219 85.9746 49.6297 85.9746 51.7305ZM93.191 51.7305C93.191 53.6108 91.6635 55.1382 89.7833 55.1382C87.903 55.1382 86.3755 53.6108 86.3755 51.7305C86.3755 49.8502 87.903 48.3228 89.7833 48.3228C91.6635 48.3228 93.191 49.8502 93.191 51.7305Z" fill="black"/>
<path d="M284.682 139.613H181.482V188.001H284.682V139.613Z" fill="#41B883"/>
<path d="M284.695 111.009H181.469V139.939H284.695V111.009Z" fill="white"/>
<path d="M242.439 133.302C243.272 133.301 244.073 132.988 244.683 132.424C245.293 131.861 245.667 131.09 245.73 130.265L248.979 130.282C249.018 130.916 249.241 131.524 249.621 132.035C250.001 132.545 250.521 132.935 251.12 133.157C251.718 133.378 252.368 133.423 252.991 133.285C253.615 133.147 254.184 132.832 254.631 132.379C255.078 131.925 255.383 131.352 255.509 130.73C255.635 130.108 255.577 129.462 255.342 128.872C255.106 128.282 254.703 127.773 254.183 127.405C253.662 127.038 253.045 126.829 252.407 126.803L249.599 122.647C250.094 122.202 250.443 121.619 250.598 120.973C250.753 120.328 250.708 119.651 250.469 119.032C250.229 118.412 249.807 117.88 249.257 117.504C248.707 117.128 248.055 116.927 247.388 116.926C246.72 116.926 246.068 117.127 245.518 117.502C244.967 117.877 244.544 118.409 244.304 119.028C244.064 119.648 244.018 120.325 244.173 120.97C244.327 121.616 244.675 122.199 245.17 122.644L242.306 126.742C241.443 126.776 240.627 127.146 240.035 127.771C239.442 128.397 239.12 129.228 239.137 130.087C239.155 130.946 239.51 131.764 240.128 132.365C240.745 132.966 241.575 133.303 242.439 133.302ZM255.083 130.08C255.083 130.633 254.918 131.173 254.609 131.633C254.3 132.092 253.861 132.451 253.347 132.662C252.833 132.874 252.268 132.929 251.723 132.821C251.178 132.713 250.677 132.447 250.283 132.056C249.89 131.665 249.623 131.168 249.514 130.625C249.406 130.083 249.461 129.521 249.674 129.011C249.887 128.5 250.247 128.063 250.709 127.756C251.172 127.449 251.715 127.285 252.271 127.285C253.017 127.286 253.731 127.581 254.258 128.105C254.785 128.629 255.082 129.339 255.083 130.08ZM244.575 120.217C244.575 119.664 244.74 119.124 245.048 118.664C245.357 118.204 245.796 117.846 246.31 117.635C246.824 117.423 247.389 117.368 247.934 117.476C248.48 117.583 248.981 117.85 249.374 118.24C249.767 118.631 250.035 119.129 250.143 119.671C250.252 120.214 250.196 120.776 249.983 121.286C249.77 121.797 249.41 122.233 248.948 122.541C248.485 122.848 247.942 123.011 247.386 123.011C246.64 123.011 245.926 122.716 245.399 122.192C244.872 121.668 244.575 120.958 244.575 120.217ZM247.386 123.5C248.036 123.501 248.671 123.309 249.212 122.95L251.832 126.829C251.09 126.929 250.403 127.277 249.886 127.815C249.368 128.354 249.05 129.051 248.983 129.793L245.73 129.776C245.673 129.027 245.36 128.32 244.842 127.773C244.325 127.226 243.634 126.872 242.886 126.769L245.556 122.948C246.098 123.309 246.734 123.501 247.386 123.5ZM242.439 127.224C242.995 127.224 243.539 127.388 244.001 127.695C244.463 128.002 244.824 128.439 245.037 128.95C245.249 129.46 245.305 130.022 245.196 130.564C245.088 131.106 244.82 131.604 244.427 131.995C244.034 132.386 243.533 132.652 242.988 132.76C242.442 132.868 241.877 132.813 241.363 132.601C240.85 132.39 240.411 132.031 240.102 131.572C239.793 131.112 239.628 130.572 239.628 130.019C239.629 129.278 239.925 128.568 240.452 128.044C240.979 127.52 241.694 127.225 242.439 127.224Z" fill="black"/>
<path d="M191.937 133.364C191.797 133.364 191.684 133.258 191.684 133.129V119.979C191.684 119.849 191.797 119.744 191.937 119.744H204.06C204.2 119.744 204.313 119.849 204.313 119.979V133.129C204.313 133.258 204.2 133.364 204.06 133.364H191.937ZM203.808 132.894V120.214H192.189V132.894H203.808ZM205.071 117.865C205.21 117.865 205.323 117.971 205.323 118.1V119.979C205.323 120.109 205.21 120.214 205.071 120.214H190.926C190.787 120.214 190.674 120.109 190.674 119.979V118.1C190.674 117.971 190.787 117.865 190.926 117.865H194.358L195.294 116.995C195.342 116.951 195.406 116.926 195.473 116.926H200.524C200.591 116.926 200.656 116.951 200.703 116.995L201.639 117.865H205.071ZM204.818 118.335H201.535C201.468 118.335 201.403 118.31 201.356 118.266L200.42 117.396H195.577L194.641 118.266C194.594 118.31 194.529 118.335 194.463 118.335H191.179V119.744H204.818V118.335Z" fill="black"/>
<path d="M226.536 131.627L224.673 132.655L222.398 133.066L222.399 130.806L229.017 126.696L228.397 129.367L226.536 131.627Z" fill="#FF265A"/>
<path d="M226.535 128.134L223.639 129.984L222.398 130.6L222.086 129.025V126.765L228.19 123.203L228.81 124.847L229.017 126.491L226.535 128.134Z" fill="#00C1FF"/>
<path d="M226.535 128.134L223.639 129.984L222.398 130.6L222.086 129.025V126.765L228.19 123.203L228.81 124.847L229.017 126.491L226.535 128.134Z" fill="#00C1FF"/>
<path d="M226.39 124.153L223.639 126.08L222.17 126.618L222.086 125.122V122.862L225.892 120.454L227.133 121.687L227.982 122.998L226.39 124.153Z" fill="#FFCC91"/>
<path d="M224.88 121.148L223.432 122.176L222.343 122.792L222.191 120.327L222.343 117.505L223.255 118.042L224.508 119.263L225.914 120.532L224.88 121.148Z" fill="#799DC9"/>
<path d="M228.857 126.364C228.854 127.51 228.556 128.644 227.979 129.639C227.422 130.601 226.622 131.417 225.668 131.992C224.686 132.586 223.555 132.916 222.405 132.945C221.243 132.974 220.085 132.702 219.064 132.15C218.084 131.618 217.243 130.844 216.643 129.909C216.027 128.95 215.667 127.838 215.611 126.7C215.544 125.319 215.912 123.944 216.669 122.783C217.185 121.992 217.885 121.332 218.567 120.682C219.307 119.975 220.07 119.29 220.837 118.613C221.322 118.185 221.811 117.762 222.305 117.342C222.328 117.321 222.353 117.3 222.376 117.282C222.278 117.282 222.179 117.282 222.081 117.282C222.321 117.485 222.562 117.691 222.8 117.899C223.356 118.378 223.908 118.864 224.454 119.354C225.075 119.913 225.691 120.48 226.287 121.064C226.827 121.593 227.364 122.133 227.78 122.767C228.397 123.708 228.769 124.8 228.842 125.921C228.852 126.069 228.857 126.216 228.857 126.364C228.857 126.632 229.275 126.632 229.275 126.364C229.273 125.19 228.976 124.027 228.409 122.999C227.999 122.256 227.441 121.627 226.843 121.026C226.258 120.436 225.648 119.872 225.031 119.313C224.456 118.792 223.875 118.277 223.287 117.768C222.99 117.51 222.694 117.248 222.39 116.997C222.386 116.993 222.382 116.991 222.378 116.987C222.286 116.91 222.175 116.91 222.083 116.987C221.715 117.298 221.351 117.614 220.988 117.93C220.22 118.599 219.462 119.274 218.717 119.967C218.048 120.59 217.363 121.219 216.784 121.928C215.855 123.057 215.299 124.449 215.201 125.905C215.117 127.147 215.375 128.401 215.937 129.512C216.466 130.559 217.266 131.463 218.234 132.129C219.225 132.813 220.39 133.224 221.588 133.334C222.813 133.446 224.055 133.232 225.173 132.723C226.248 132.235 227.18 131.471 227.887 130.532C228.606 129.577 229.059 128.439 229.214 127.257C229.254 126.96 229.273 126.663 229.273 126.364C229.275 126.096 228.857 126.096 228.857 126.364Z" fill="black"/>
<path d="M222.438 133.163C222.438 133.019 222.438 132.878 222.438 132.735C222.438 132.346 222.438 131.958 222.438 131.57C222.438 130.994 222.438 130.421 222.438 129.846C222.438 129.144 222.438 128.444 222.438 127.742C222.438 126.974 222.438 126.205 222.438 125.437C222.438 124.662 222.438 123.885 222.438 123.111C222.438 122.388 222.438 121.663 222.438 120.94C222.438 120.326 222.438 119.713 222.438 119.098C222.438 118.658 222.438 118.22 222.438 117.779C222.438 117.572 222.442 117.364 222.438 117.154C222.438 117.146 222.438 117.135 222.438 117.127C222.438 116.859 222.019 116.859 222.019 117.127C222.019 117.27 222.019 117.412 222.019 117.555C222.019 117.943 222.019 118.332 222.019 118.72C222.019 119.295 222.019 119.869 222.019 120.444C222.019 121.146 222.019 121.846 222.019 122.548C222.019 123.316 222.019 124.085 222.019 124.853C222.019 125.628 222.019 126.405 222.019 127.179C222.019 127.902 222.019 128.627 222.019 129.349C222.019 129.964 222.019 130.577 222.019 131.192C222.019 131.632 222.019 132.07 222.019 132.51C222.019 132.718 222.015 132.926 222.019 133.136C222.019 133.144 222.019 133.154 222.019 133.163C222.019 133.431 222.438 133.431 222.438 133.163Z" fill="black"/>
<path d="M222.334 123.113C222.762 122.841 223.193 122.571 223.621 122.299C224.305 121.867 224.989 121.435 225.672 121.005C225.829 120.907 225.984 120.807 226.141 120.71C226.366 120.567 226.157 120.207 225.929 120.351C225.501 120.623 225.07 120.893 224.642 121.165C223.958 121.597 223.274 122.029 222.591 122.459C222.434 122.556 222.279 122.656 222.122 122.753C221.897 122.897 222.106 123.256 222.334 123.113Z" fill="black"/>
<path d="M228.078 122.847C227.407 123.271 226.734 123.694 226.063 124.12C224.993 124.795 223.924 125.47 222.854 126.145C222.61 126.299 222.367 126.452 222.122 126.606C221.897 126.749 222.106 127.109 222.334 126.965C223.005 126.542 223.678 126.118 224.349 125.692C225.419 125.017 226.488 124.342 227.558 123.667C227.802 123.514 228.045 123.36 228.29 123.206C228.515 123.061 228.306 122.702 228.078 122.847Z" fill="black"/>
<path d="M222.334 130.905C222.559 130.762 222.785 130.618 223.013 130.477C223.557 130.134 224.1 129.792 224.644 129.447C225.304 129.03 225.965 128.612 226.626 128.195C227.194 127.835 227.763 127.476 228.331 127.119C228.607 126.944 228.89 126.776 229.159 126.596C229.163 126.593 229.168 126.591 229.172 126.587C229.398 126.444 229.189 126.085 228.961 126.228C228.735 126.371 228.509 126.515 228.281 126.656C227.738 126.998 227.194 127.341 226.651 127.686C225.99 128.103 225.329 128.521 224.669 128.938C224.1 129.297 223.531 129.657 222.963 130.014C222.687 130.188 222.405 130.357 222.135 130.537C222.131 130.539 222.127 130.542 222.122 130.546C221.897 130.689 222.106 131.048 222.334 130.905Z" fill="black"/>
<path d="M265.438 122.739C265.438 125.871 270.862 132.983 271.09 133.283C271.126 133.331 271.187 133.364 271.251 133.364C271.315 133.364 271.371 133.335 271.411 133.283C271.644 132.983 277.064 125.871 277.064 122.739C277.064 119.532 274.458 116.926 271.251 116.926C268.043 116.926 265.438 119.532 265.438 122.739ZM276.663 122.739C276.663 125.446 272.161 131.612 271.251 132.83C270.341 131.612 265.838 125.446 265.838 122.739C265.838 119.757 268.268 117.327 271.251 117.327C274.233 117.327 276.663 119.757 276.663 122.739Z" fill="black"/>
<path d="M267.441 122.739C267.441 124.84 269.149 126.548 271.25 126.548C273.351 126.548 275.059 124.84 275.059 122.739C275.059 120.638 273.351 118.931 271.25 118.931C269.149 118.931 267.441 120.638 267.441 122.739ZM274.658 122.739C274.658 124.62 273.13 126.147 271.25 126.147C269.37 126.147 267.842 124.62 267.842 122.739C267.842 120.859 269.37 119.332 271.25 119.332C273.13 119.332 274.658 120.859 274.658 122.739Z" fill="black"/>
<path d="M28.416 93.1609C28.416 92.4129 28.5846 91.7419 28.922 91.1479C29.2593 90.5466 29.7176 90.0772 30.297 89.7399C30.8836 89.4026 31.5326 89.2339 32.244 89.2339C33.08 89.2339 33.8096 89.4356 34.433 89.8389C35.0563 90.2422 35.511 90.8142 35.797 91.5549H34.598C34.3853 91.0929 34.0773 90.7372 33.674 90.4879C33.278 90.2386 32.8013 90.1139 32.244 90.1139C31.7086 90.1139 31.2283 90.2386 30.803 90.4879C30.3776 90.7372 30.044 91.0929 29.802 91.5549C29.56 92.0096 29.439 92.5449 29.439 93.1609C29.439 93.7696 29.56 94.3049 29.802 94.7669C30.044 95.2216 30.3776 95.5736 30.803 95.8229C31.2283 96.0722 31.7086 96.1969 32.244 96.1969C32.8013 96.1969 33.278 96.0759 33.674 95.8339C34.0773 95.5846 34.3853 95.2289 34.598 94.7669H35.797C35.511 95.5002 35.0563 96.0686 34.433 96.4719C33.8096 96.8679 33.08 97.0659 32.244 97.0659C31.5326 97.0659 30.8836 96.9009 30.297 96.5709C29.7176 96.2336 29.2593 95.7679 28.922 95.1739C28.5846 94.5799 28.416 93.9089 28.416 93.1609ZM39.9161 97.0989C39.3514 97.0989 38.8381 96.9706 38.3761 96.7139C37.9214 96.4572 37.5621 96.0942 37.2981 95.6249C37.0414 95.1482 36.9131 94.5982 36.9131 93.9749C36.9131 93.3589 37.0451 92.8162 37.3091 92.3469C37.5804 91.8702 37.9471 91.5072 38.4091 91.2579C38.8711 91.0012 39.3881 90.8729 39.9601 90.8729C40.5321 90.8729 41.0491 91.0012 41.5111 91.2579C41.9731 91.5072 42.3361 91.8666 42.6001 92.3359C42.8714 92.8052 43.0071 93.3516 43.0071 93.9749C43.0071 94.5982 42.8677 95.1482 42.5891 95.6249C42.3177 96.0942 41.9474 96.4572 41.4781 96.7139C41.0087 96.9706 40.4881 97.0989 39.9161 97.0989ZM39.9161 96.2189C40.2754 96.2189 40.6127 96.1346 40.9281 95.9659C41.2434 95.7972 41.4964 95.5442 41.6871 95.2069C41.8851 94.8696 41.9841 94.4589 41.9841 93.9749C41.9841 93.4909 41.8887 93.0802 41.6981 92.7429C41.5074 92.4056 41.2581 92.1562 40.9501 91.9949C40.6421 91.8262 40.3084 91.7419 39.9491 91.7419C39.5824 91.7419 39.2451 91.8262 38.9371 91.9949C38.6364 92.1562 38.3944 92.4056 38.2111 92.7429C38.0277 93.0802 37.9361 93.4909 37.9361 93.9749C37.9361 94.4662 38.0241 94.8806 38.2001 95.2179C38.3834 95.5552 38.6254 95.8082 38.9261 95.9769C39.2267 96.1382 39.5567 96.2189 39.9161 96.2189ZM47.2602 90.8619C47.9935 90.8619 48.5875 91.0856 49.0422 91.5329C49.4969 91.9729 49.7242 92.6109 49.7242 93.4469V96.9999H48.7342V93.5899C48.7342 92.9886 48.5839 92.5302 48.2832 92.2149C47.9825 91.8922 47.5719 91.7309 47.0512 91.7309C46.5232 91.7309 46.1015 91.8959 45.7862 92.2259C45.4782 92.5559 45.3242 93.0362 45.3242 93.6669V96.9999H44.3232V90.9719H45.3242V91.8299C45.5222 91.5219 45.7899 91.2836 46.1272 91.1149C46.4719 90.9462 46.8495 90.8619 47.2602 90.8619ZM54.2963 90.8619C55.0297 90.8619 55.6237 91.0856 56.0783 91.5329C56.533 91.9729 56.7603 92.6109 56.7603 93.4469V96.9999H55.7703V93.5899C55.7703 92.9886 55.62 92.5302 55.3193 92.2149C55.0187 91.8922 54.608 91.7309 54.0873 91.7309C53.5593 91.7309 53.1377 91.8959 52.8223 92.2259C52.5143 92.5559 52.3603 93.0362 52.3603 93.6669V96.9999H51.3593V90.9719H52.3603V91.8299C52.5583 91.5219 52.826 91.2836 53.1633 91.1149C53.508 90.9462 53.8857 90.8619 54.2963 90.8619ZM63.8955 93.7549C63.8955 93.9456 63.8845 94.1472 63.8625 94.3599H59.0445C59.0811 94.9539 59.2828 95.4196 59.6495 95.7569C60.0235 96.0869 60.4745 96.2519 61.0025 96.2519C61.4351 96.2519 61.7945 96.1529 62.0805 95.9549C62.3738 95.7496 62.5791 95.4782 62.6965 95.1409H63.7745C63.6131 95.7202 63.2905 96.1932 62.8065 96.5599C62.3225 96.9192 61.7211 97.0989 61.0025 97.0989C60.4305 97.0989 59.9171 96.9706 59.4625 96.7139C59.0151 96.4572 58.6631 96.0942 58.4065 95.6249C58.1498 95.1482 58.0215 94.5982 58.0215 93.9749C58.0215 93.3516 58.1461 92.8052 58.3955 92.3359C58.6448 91.8666 58.9931 91.5072 59.4405 91.2579C59.8951 91.0012 60.4158 90.8729 61.0025 90.8729C61.5745 90.8729 62.0805 90.9976 62.5205 91.2469C62.9605 91.4962 63.2978 91.8409 63.5325 92.2809C63.7745 92.7136 63.8955 93.2049 63.8955 93.7549ZM62.8615 93.5459C62.8615 93.1646 62.7771 92.8382 62.6085 92.5669C62.4398 92.2882 62.2088 92.0792 61.9155 91.9399C61.6295 91.7932 61.3105 91.7199 60.9585 91.7199C60.4525 91.7199 60.0198 91.8812 59.6605 92.2039C59.3085 92.5266 59.1068 92.9739 59.0555 93.5459H62.8615ZM64.8427 93.9749C64.8427 93.3516 64.9674 92.8089 65.2167 92.3469C65.4661 91.8776 65.8107 91.5146 66.2507 91.2579C66.6981 91.0012 67.2077 90.8729 67.7797 90.8729C68.5204 90.8729 69.1291 91.0526 69.6057 91.4119C70.0897 91.7712 70.4087 92.2699 70.5627 92.9079H69.4847C69.3821 92.5412 69.1804 92.2516 68.8797 92.0389C68.5864 91.8262 68.2197 91.7199 67.7797 91.7199C67.2077 91.7199 66.7457 91.9179 66.3937 92.3139C66.0417 92.7026 65.8657 93.2562 65.8657 93.9749C65.8657 94.7009 66.0417 95.2619 66.3937 95.6579C66.7457 96.0539 67.2077 96.2519 67.7797 96.2519C68.2197 96.2519 68.5864 96.1492 68.8797 95.9439C69.1731 95.7386 69.3747 95.4452 69.4847 95.0639H70.5627C70.4014 95.6799 70.0787 96.1749 69.5947 96.5489C69.1107 96.9156 68.5057 97.0989 67.7797 97.0989C67.2077 97.0989 66.6981 96.9706 66.2507 96.7139C65.8107 96.4572 65.4661 96.0942 65.2167 95.6249C64.9674 95.1556 64.8427 94.6056 64.8427 93.9749ZM73.1194 91.7969V95.3499C73.1194 95.6432 73.1817 95.8522 73.3064 95.9769C73.431 96.0942 73.6474 96.1529 73.9554 96.1529H74.6924V96.9999H73.7904C73.233 96.9999 72.815 96.8716 72.5364 96.6149C72.2577 96.3582 72.1184 95.9366 72.1184 95.3499V91.7969H71.3374V90.9719H72.1184V89.4539H73.1194V90.9719H74.6924V91.7969H73.1194Z" fill="white"/>
<path d="M213.7 164.755C213.7 164.946 213.689 165.147 213.667 165.36H208.849C208.886 165.954 209.087 166.42 209.454 166.757C209.828 167.087 210.279 167.252 210.807 167.252C211.24 167.252 211.599 167.153 211.885 166.955C212.178 166.75 212.384 166.478 212.501 166.141H213.579C213.418 166.72 213.095 167.193 212.611 167.56C212.127 167.919 211.526 168.099 210.807 168.099C210.235 168.099 209.722 167.971 209.267 167.714C208.82 167.457 208.468 167.094 208.211 166.625C207.954 166.148 207.826 165.598 207.826 164.975C207.826 164.352 207.951 163.805 208.2 163.336C208.449 162.867 208.798 162.507 209.245 162.258C209.7 162.001 210.22 161.873 210.807 161.873C211.379 161.873 211.885 161.998 212.325 162.247C212.765 162.496 213.102 162.841 213.337 163.281C213.579 163.714 213.7 164.205 213.7 164.755ZM212.666 164.546C212.666 164.165 212.582 163.838 212.413 163.567C212.244 163.288 212.013 163.079 211.72 162.94C211.434 162.793 211.115 162.72 210.763 162.72C210.257 162.72 209.824 162.881 209.465 163.204C209.113 163.527 208.911 163.974 208.86 164.546H212.666ZM216.022 159.86V168H215.021V159.86H216.022ZM223.228 164.755C223.228 164.946 223.217 165.147 223.195 165.36H218.377C218.414 165.954 218.616 166.42 218.982 166.757C219.356 167.087 219.807 167.252 220.335 167.252C220.768 167.252 221.127 167.153 221.413 166.955C221.707 166.75 221.912 166.478 222.029 166.141H223.107C222.946 166.72 222.623 167.193 222.139 167.56C221.655 167.919 221.054 168.099 220.335 168.099C219.763 168.099 219.25 167.971 218.795 167.714C218.348 167.457 217.996 167.094 217.739 166.625C217.483 166.148 217.354 165.598 217.354 164.975C217.354 164.352 217.479 163.805 217.728 163.336C217.978 162.867 218.326 162.507 218.773 162.258C219.228 162.001 219.749 161.873 220.335 161.873C220.907 161.873 221.413 161.998 221.853 162.247C222.293 162.496 222.631 162.841 222.865 163.281C223.107 163.714 223.228 164.205 223.228 164.755ZM222.194 164.546C222.194 164.165 222.11 163.838 221.941 163.567C221.773 163.288 221.542 163.079 221.248 162.94C220.962 162.793 220.643 162.72 220.291 162.72C219.785 162.72 219.353 162.881 218.993 163.204C218.641 163.527 218.44 163.974 218.388 164.546H222.194ZM231.799 161.862C232.268 161.862 232.686 161.961 233.053 162.159C233.419 162.35 233.709 162.639 233.922 163.028C234.134 163.417 234.241 163.89 234.241 164.447V168H233.251V164.59C233.251 163.989 233.1 163.53 232.8 163.215C232.506 162.892 232.107 162.731 231.601 162.731C231.08 162.731 230.666 162.9 230.358 163.237C230.05 163.567 229.896 164.047 229.896 164.678V168H228.906V164.59C228.906 163.989 228.755 163.53 228.455 163.215C228.161 162.892 227.762 162.731 227.256 162.731C226.735 162.731 226.321 162.9 226.013 163.237C225.705 163.567 225.551 164.047 225.551 164.678V168H224.55V161.972H225.551V162.841C225.749 162.526 226.013 162.284 226.343 162.115C226.68 161.946 227.05 161.862 227.454 161.862C227.96 161.862 228.407 161.976 228.796 162.203C229.184 162.43 229.474 162.764 229.665 163.204C229.833 162.779 230.112 162.449 230.501 162.214C230.889 161.979 231.322 161.862 231.799 161.862ZM241.383 164.755C241.383 164.946 241.372 165.147 241.35 165.36H236.532C236.568 165.954 236.77 166.42 237.137 166.757C237.511 167.087 237.962 167.252 238.49 167.252C238.922 167.252 239.282 167.153 239.568 166.955C239.861 166.75 240.066 166.478 240.184 166.141H241.262C241.1 166.72 240.778 167.193 240.294 167.56C239.81 167.919 239.208 168.099 238.49 168.099C237.918 168.099 237.404 167.971 236.95 167.714C236.502 167.457 236.15 167.094 235.894 166.625C235.637 166.148 235.509 165.598 235.509 164.975C235.509 164.352 235.633 163.805 235.883 163.336C236.132 162.867 236.48 162.507 236.928 162.258C237.382 162.001 237.903 161.873 238.49 161.873C239.062 161.873 239.568 161.998 240.008 162.247C240.448 162.496 240.785 162.841 241.02 163.281C241.262 163.714 241.383 164.205 241.383 164.755ZM240.349 164.546C240.349 164.165 240.264 163.838 240.096 163.567C239.927 163.288 239.696 163.079 239.403 162.94C239.117 162.793 238.798 162.72 238.446 162.72C237.94 162.72 237.507 162.881 237.148 163.204C236.796 163.527 236.594 163.974 236.543 164.546H240.349ZM245.641 161.862C246.374 161.862 246.968 162.086 247.423 162.533C247.878 162.973 248.105 163.611 248.105 164.447V168H247.115V164.59C247.115 163.989 246.965 163.53 246.664 163.215C246.363 162.892 245.953 162.731 245.432 162.731C244.904 162.731 244.482 162.896 244.167 163.226C243.859 163.556 243.705 164.036 243.705 164.667V168H242.704V161.972H243.705V162.83C243.903 162.522 244.171 162.284 244.508 162.115C244.853 161.946 245.23 161.862 245.641 161.862ZM250.961 162.797V166.35C250.961 166.643 251.023 166.852 251.148 166.977C251.273 167.094 251.489 167.153 251.797 167.153H252.534V168H251.632C251.075 168 250.657 167.872 250.378 167.615C250.099 167.358 249.96 166.937 249.96 166.35V162.797H249.179V161.972H249.96V160.454H250.961V161.972H252.534V162.797H250.961ZM255.881 168.099C255.419 168.099 255.005 168.022 254.638 167.868C254.271 167.707 253.982 167.487 253.769 167.208C253.556 166.922 253.439 166.596 253.417 166.229H254.451C254.48 166.53 254.62 166.775 254.869 166.966C255.126 167.157 255.459 167.252 255.87 167.252C256.251 167.252 256.552 167.168 256.772 166.999C256.992 166.83 257.102 166.618 257.102 166.361C257.102 166.097 256.985 165.903 256.75 165.778C256.515 165.646 256.152 165.518 255.661 165.393C255.214 165.276 254.847 165.158 254.561 165.041C254.282 164.916 254.04 164.737 253.835 164.502C253.637 164.26 253.538 163.945 253.538 163.556C253.538 163.248 253.63 162.966 253.813 162.709C253.996 162.452 254.257 162.251 254.594 162.104C254.931 161.95 255.316 161.873 255.749 161.873C256.416 161.873 256.955 162.042 257.366 162.379C257.777 162.716 257.997 163.178 258.026 163.765H257.025C257.003 163.45 256.875 163.197 256.64 163.006C256.413 162.815 256.105 162.72 255.716 162.72C255.357 162.72 255.071 162.797 254.858 162.951C254.645 163.105 254.539 163.307 254.539 163.556C254.539 163.754 254.601 163.919 254.726 164.051C254.858 164.176 255.019 164.278 255.21 164.359C255.408 164.432 255.679 164.517 256.024 164.612C256.457 164.729 256.809 164.847 257.08 164.964C257.351 165.074 257.582 165.243 257.773 165.47C257.971 165.697 258.074 165.994 258.081 166.361C258.081 166.691 257.989 166.988 257.806 167.252C257.623 167.516 257.362 167.725 257.025 167.879C256.695 168.026 256.314 168.099 255.881 168.099Z" fill="black"/>
<path d="M44.7858 0.954898C72.4534 9.41373 67.443 34.4918 67.3881 34.7486L66.0525 34.4638C66.0652 34.4013 67.3516 28.1283 65.1403 21.0089C62.1867 11.5006 54.7165 5.05016 42.9264 1.83908L43.2857 0.521275C43.7945 0.66041 44.2972 0.805534 44.7858 0.954898Z" fill="white"/>
<path d="M70.5449 28.9253C70.5919 28.9396 70.6387 28.9596 70.6838 28.9849C71.0117 29.1715 71.1263 29.5887 70.9396 29.9165L67.9675 35.1435C67.851 35.3492 67.6361 35.4799 67.3991 35.4889C67.1649 35.498 66.9393 35.3833 66.8071 35.1872L64.002 31.0051C63.7915 30.6914 63.8755 30.2672 64.1882 30.0571C64.5003 29.8469 64.9265 29.9293 65.1353 30.2438L67.3259 33.5089L69.7519 29.2413C69.9129 28.9577 70.2458 28.8338 70.5449 28.9253Z" fill="white"/>
<path d="M267.89 74.0085C241.053 82.2134 245.913 106.539 245.966 106.788L247.262 106.511C247.25 106.451 246.002 100.366 248.147 93.4604C251.012 84.2376 258.258 77.9808 269.694 74.8661L269.345 73.5879C268.852 73.7228 268.364 73.8636 267.89 74.0085Z" fill="white"/>
<path d="M242.905 101.139C242.86 101.153 242.814 101.172 242.77 101.197C242.452 101.378 242.341 101.782 242.522 102.1L245.405 107.17C245.518 107.37 245.727 107.497 245.957 107.506C246.184 107.514 246.403 107.403 246.531 107.213L249.252 103.156C249.456 102.852 249.374 102.441 249.071 102.237C248.768 102.033 248.355 102.113 248.152 102.418L246.028 105.585L243.674 101.446C243.518 101.17 243.195 101.05 242.905 101.139Z" fill="white"/>
</svg>
