<svg width="108" height="115" viewBox="0 0 101 108" fill="none" xmlns="http://www.w3.org/2000/svg">
<rect y="81" width="100.033" height="27" fill="white"/>
<path d="M41.2989 93.156V97.224C41.2989 97.624 41.3749 97.9 41.5269 98.052C41.6789 98.204 41.9469 98.28 42.3309 98.28H43.0989V99H42.1989C41.6069 99 41.1669 98.864 40.8789 98.592C40.5909 98.312 40.4469 97.856 40.4469 97.224V93.156H39.5349V92.448H40.4469V90.804H41.2989V92.448H43.0989V93.156H41.2989ZM50.4122 95.388C50.4122 95.676 50.4042 95.896 50.3882 96.048H44.9522C44.9762 96.544 45.0962 96.968 45.3122 97.32C45.5282 97.672 45.8122 97.94 46.1642 98.124C46.5162 98.3 46.9002 98.388 47.3162 98.388C47.8602 98.388 48.3162 98.256 48.6842 97.992C49.0602 97.728 49.3082 97.372 49.4282 96.924H50.3162C50.1562 97.564 49.8122 98.088 49.2842 98.496C48.7642 98.896 48.1082 99.096 47.3162 99.096C46.7002 99.096 46.1482 98.96 45.6602 98.688C45.1722 98.408 44.7882 98.016 44.5082 97.512C44.2362 97 44.1002 96.404 44.1002 95.724C44.1002 95.044 44.2362 94.448 44.5082 93.936C44.7802 93.424 45.1602 93.032 45.6482 92.76C46.1362 92.488 46.6922 92.352 47.3162 92.352C47.9402 92.352 48.4842 92.488 48.9482 92.76C49.4202 93.032 49.7802 93.4 50.0282 93.864C50.2842 94.32 50.4122 94.828 50.4122 95.388ZM49.5602 95.364C49.5682 94.876 49.4682 94.46 49.2602 94.116C49.0602 93.772 48.7842 93.512 48.4322 93.336C48.0802 93.16 47.6962 93.072 47.2802 93.072C46.6562 93.072 46.1242 93.272 45.6842 93.672C45.2442 94.072 45.0002 94.636 44.9522 95.364H49.5602ZM55.381 99L53.689 96.36L52.057 99H51.169L53.281 95.724L51.193 92.448H52.141L53.809 95.052L55.429 92.448H56.305L54.217 95.688L56.329 99H55.381ZM58.5606 93.156V97.224C58.5606 97.624 58.6366 97.9 58.7886 98.052C58.9406 98.204 59.2086 98.28 59.5926 98.28H60.3606V99H59.4606C58.8686 99 58.4286 98.864 58.1406 98.592C57.8526 98.312 57.7086 97.856 57.7086 97.224V93.156H56.7966V92.448H57.7086V90.804H58.5606V92.448H60.3606V93.156H58.5606Z" fill="black"/>
<rect y="54" width="100.033" height="27" fill="#C4C4C4"/>
<path d="M40.5308 65.328C41.3148 65.328 41.9548 65.572 42.4508 66.06C42.9468 66.54 43.1948 67.24 43.1948 68.16V72H42.3668V68.256C42.3668 67.544 42.1868 67 41.8268 66.624C41.4748 66.248 40.9908 66.06 40.3748 66.06C39.7428 66.06 39.2388 66.26 38.8628 66.66C38.4868 67.06 38.2988 67.648 38.2988 68.424V72H37.4588V65.448H38.2988V66.564C38.5068 66.164 38.8068 65.86 39.1988 65.652C39.5908 65.436 40.0348 65.328 40.5308 65.328ZM47.9206 72.096C47.3046 72.096 46.7486 71.96 46.2526 71.688C45.7646 71.408 45.3766 71.016 45.0886 70.512C44.8086 70 44.6686 69.404 44.6686 68.724C44.6686 68.044 44.8126 67.452 45.1006 66.948C45.3886 66.436 45.7806 66.044 46.2766 65.772C46.7726 65.492 47.3286 65.352 47.9446 65.352C48.5606 65.352 49.1166 65.492 49.6126 65.772C50.1166 66.044 50.5086 66.436 50.7886 66.948C51.0766 67.452 51.2206 68.044 51.2206 68.724C51.2206 69.396 51.0766 69.988 50.7886 70.5C50.5006 71.012 50.1046 71.408 49.6006 71.688C49.0966 71.96 48.5366 72.096 47.9206 72.096ZM47.9206 71.364C48.3526 71.364 48.7526 71.268 49.1206 71.076C49.4886 70.876 49.7846 70.58 50.0086 70.188C50.2406 69.788 50.3566 69.3 50.3566 68.724C50.3566 68.148 50.2446 67.664 50.0206 67.272C49.7966 66.872 49.5006 66.576 49.1326 66.384C48.7646 66.184 48.3646 66.084 47.9326 66.084C47.5006 66.084 47.1006 66.184 46.7326 66.384C46.3646 66.576 46.0686 66.872 45.8446 67.272C45.6286 67.664 45.5206 68.148 45.5206 68.724C45.5206 69.3 45.6286 69.788 45.8446 70.188C46.0686 70.58 46.3606 70.876 46.7206 71.076C47.0886 71.268 47.4886 71.364 47.9206 71.364ZM53.8438 66.156V70.224C53.8438 70.624 53.9198 70.9 54.0718 71.052C54.2238 71.204 54.4918 71.28 54.8758 71.28H55.6438V72H54.7438C54.1518 72 53.7118 71.864 53.4238 71.592C53.1358 71.312 52.9918 70.856 52.9918 70.224V66.156H52.0798V65.448H52.9918V63.804H53.8438V65.448H55.6438V66.156H53.8438ZM62.9571 68.388C62.9571 68.676 62.9491 68.896 62.9331 69.048H57.4971C57.5211 69.544 57.6411 69.968 57.8571 70.32C58.0731 70.672 58.3571 70.94 58.7091 71.124C59.0611 71.3 59.4451 71.388 59.8611 71.388C60.4051 71.388 60.8611 71.256 61.2291 70.992C61.6051 70.728 61.8531 70.372 61.9731 69.924H62.8611C62.7011 70.564 62.3571 71.088 61.8291 71.496C61.3091 71.896 60.6531 72.096 59.8611 72.096C59.2451 72.096 58.6931 71.96 58.2051 71.688C57.7171 71.408 57.3331 71.016 57.0531 70.512C56.7811 70 56.6451 69.404 56.6451 68.724C56.6451 68.044 56.7811 67.448 57.0531 66.936C57.3251 66.424 57.7051 66.032 58.1931 65.76C58.6811 65.488 59.2371 65.352 59.8611 65.352C60.4851 65.352 61.0291 65.488 61.4931 65.76C61.9651 66.032 62.3251 66.4 62.5731 66.864C62.8291 67.32 62.9571 67.828 62.9571 68.388ZM62.1051 68.364C62.1131 67.876 62.0131 67.46 61.8051 67.116C61.6051 66.772 61.3291 66.512 60.9771 66.336C60.6251 66.16 60.2411 66.072 59.8251 66.072C59.2011 66.072 58.6691 66.272 58.2291 66.672C57.7891 67.072 57.5451 67.636 57.4971 68.364H62.1051Z" fill="black"/>
<rect y="27" width="100.033" height="27" fill="#00AF91"/>
<path d="M36.24 38.352C36.856 38.352 37.392 38.496 37.848 38.784C38.304 39.072 38.632 39.436 38.832 39.876V38.448H39.672V45.168C39.672 45.768 39.54 46.3 39.276 46.764C39.02 47.228 38.66 47.584 38.196 47.832C37.732 48.088 37.204 48.216 36.612 48.216C35.772 48.216 35.072 48.016 34.512 47.616C33.96 47.216 33.616 46.672 33.48 45.984H34.308C34.452 46.44 34.724 46.804 35.124 47.076C35.532 47.348 36.028 47.484 36.612 47.484C37.036 47.484 37.416 47.392 37.752 47.208C38.088 47.032 38.352 46.768 38.544 46.416C38.736 46.064 38.832 45.648 38.832 45.168V43.548C38.624 43.996 38.292 44.368 37.836 44.664C37.388 44.952 36.856 45.096 36.24 45.096C35.64 45.096 35.1 44.956 34.62 44.676C34.148 44.396 33.776 44 33.504 43.488C33.24 42.976 33.108 42.384 33.108 41.712C33.108 41.04 33.24 40.452 33.504 39.948C33.776 39.436 34.148 39.044 34.62 38.772C35.1 38.492 35.64 38.352 36.24 38.352ZM38.832 41.724C38.832 41.196 38.724 40.732 38.508 40.332C38.292 39.932 37.996 39.624 37.62 39.408C37.252 39.192 36.844 39.084 36.396 39.084C35.932 39.084 35.516 39.188 35.148 39.396C34.78 39.604 34.488 39.908 34.272 40.308C34.064 40.7 33.96 41.168 33.96 41.712C33.96 42.248 34.064 42.72 34.272 43.128C34.488 43.528 34.78 43.836 35.148 44.052C35.516 44.26 35.932 44.364 36.396 44.364C36.844 44.364 37.252 44.256 37.62 44.04C37.996 43.824 38.292 43.516 38.508 43.116C38.724 42.716 38.832 42.252 38.832 41.724ZM42.4297 39.612C42.6137 39.204 42.8937 38.888 43.2697 38.664C43.6537 38.44 44.1217 38.328 44.6737 38.328V39.204H44.4457C43.8377 39.204 43.3497 39.368 42.9817 39.696C42.6137 40.024 42.4297 40.572 42.4297 41.34V45H41.5897V38.448H42.4297V39.612ZM51.8653 41.388C51.8653 41.676 51.8573 41.896 51.8413 42.048H46.4053C46.4293 42.544 46.5493 42.968 46.7653 43.32C46.9813 43.672 47.2653 43.94 47.6173 44.124C47.9693 44.3 48.3533 44.388 48.7693 44.388C49.3133 44.388 49.7693 44.256 50.1373 43.992C50.5133 43.728 50.7613 43.372 50.8813 42.924H51.7693C51.6093 43.564 51.2653 44.088 50.7373 44.496C50.2173 44.896 49.5613 45.096 48.7693 45.096C48.1533 45.096 47.6013 44.96 47.1133 44.688C46.6253 44.408 46.2413 44.016 45.9613 43.512C45.6893 43 45.5533 42.404 45.5533 41.724C45.5533 41.044 45.6893 40.448 45.9613 39.936C46.2333 39.424 46.6133 39.032 47.1013 38.76C47.5893 38.488 48.1453 38.352 48.7693 38.352C49.3933 38.352 49.9373 38.488 50.4013 38.76C50.8733 39.032 51.2333 39.4 51.4813 39.864C51.7373 40.32 51.8653 40.828 51.8653 41.388ZM51.0133 41.364C51.0213 40.876 50.9213 40.46 50.7133 40.116C50.5133 39.772 50.2373 39.512 49.8853 39.336C49.5333 39.16 49.1493 39.072 48.7333 39.072C48.1093 39.072 47.5773 39.272 47.1373 39.672C46.6973 40.072 46.4533 40.636 46.4053 41.364H51.0133ZM59.3302 41.388C59.3302 41.676 59.3222 41.896 59.3062 42.048H53.8702C53.8942 42.544 54.0142 42.968 54.2302 43.32C54.4462 43.672 54.7302 43.94 55.0822 44.124C55.4342 44.3 55.8182 44.388 56.2342 44.388C56.7782 44.388 57.2342 44.256 57.6022 43.992C57.9782 43.728 58.2262 43.372 58.3462 42.924H59.2342C59.0742 43.564 58.7302 44.088 58.2022 44.496C57.6822 44.896 57.0262 45.096 56.2342 45.096C55.6182 45.096 55.0662 44.96 54.5782 44.688C54.0902 44.408 53.7062 44.016 53.4262 43.512C53.1542 43 53.0182 42.404 53.0182 41.724C53.0182 41.044 53.1542 40.448 53.4262 39.936C53.6982 39.424 54.0782 39.032 54.5662 38.76C55.0542 38.488 55.6102 38.352 56.2342 38.352C56.8582 38.352 57.4022 38.488 57.8662 38.76C58.3382 39.032 58.6982 39.4 58.9462 39.864C59.2022 40.32 59.3302 40.828 59.3302 41.388ZM58.4782 41.364C58.4862 40.876 58.3862 40.46 58.1782 40.116C57.9782 39.772 57.7022 39.512 57.3502 39.336C56.9982 39.16 56.6142 39.072 56.1982 39.072C55.5742 39.072 55.0422 39.272 54.6022 39.672C54.1622 40.072 53.9182 40.636 53.8702 41.364H58.4782ZM63.939 38.328C64.723 38.328 65.363 38.572 65.859 39.06C66.355 39.54 66.603 40.24 66.603 41.16V45H65.775V41.256C65.775 40.544 65.595 40 65.235 39.624C64.883 39.248 64.399 39.06 63.783 39.06C63.151 39.06 62.647 39.26 62.271 39.66C61.895 40.06 61.707 40.648 61.707 41.424V45H60.867V38.448H61.707V39.564C61.915 39.164 62.215 38.86 62.607 38.652C62.999 38.436 63.443 38.328 63.939 38.328Z" fill="black"/>
<rect width="100.033" height="27" fill="#E29E00"/>
<path d="M37.8901 11.448L34.0021 21.084H33.1261L34.3981 17.964L31.7101 11.448H32.6341L34.8661 17.04L37.0261 11.448H37.8901ZM44.9571 14.388C44.9571 14.676 44.9491 14.896 44.9331 15.048H39.4971C39.5211 15.544 39.6411 15.968 39.8571 16.32C40.0731 16.672 40.3571 16.94 40.7091 17.124C41.0611 17.3 41.4451 17.388 41.8611 17.388C42.4051 17.388 42.8611 17.256 43.2291 16.992C43.6051 16.728 43.8531 16.372 43.9731 15.924H44.8611C44.7011 16.564 44.3571 17.088 43.8291 17.496C43.3091 17.896 42.6531 18.096 41.8611 18.096C41.2451 18.096 40.6931 17.96 40.2051 17.688C39.7171 17.408 39.3331 17.016 39.0531 16.512C38.7811 16 38.6451 15.404 38.6451 14.724C38.6451 14.044 38.7811 13.448 39.0531 12.936C39.3251 12.424 39.7051 12.032 40.1931 11.76C40.6811 11.488 41.2371 11.352 41.8611 11.352C42.4851 11.352 43.0291 11.488 43.4931 11.76C43.9651 12.032 44.3251 12.4 44.5731 12.864C44.8291 13.32 44.9571 13.828 44.9571 14.388ZM44.1051 14.364C44.1131 13.876 44.0131 13.46 43.8051 13.116C43.6051 12.772 43.3291 12.512 42.9771 12.336C42.6251 12.16 42.2411 12.072 41.8251 12.072C41.2011 12.072 40.6691 12.272 40.2291 12.672C39.7891 13.072 39.5451 13.636 39.4971 14.364H44.1051ZM47.334 9.12V18H46.494V9.12H47.334ZM50.0762 9.12V18H49.2362V9.12H50.0762ZM54.8463 18.096C54.2303 18.096 53.6743 17.96 53.1783 17.688C52.6903 17.408 52.3023 17.016 52.0143 16.512C51.7343 16 51.5943 15.404 51.5943 14.724C51.5943 14.044 51.7383 13.452 52.0263 12.948C52.3143 12.436 52.7063 12.044 53.2023 11.772C53.6983 11.492 54.2543 11.352 54.8703 11.352C55.4863 11.352 56.0423 11.492 56.5383 11.772C57.0423 12.044 57.4343 12.436 57.7143 12.948C58.0023 13.452 58.1463 14.044 58.1463 14.724C58.1463 15.396 58.0023 15.988 57.7143 16.5C57.4263 17.012 57.0303 17.408 56.5263 17.688C56.0223 17.96 55.4623 18.096 54.8463 18.096ZM54.8463 17.364C55.2783 17.364 55.6783 17.268 56.0463 17.076C56.4143 16.876 56.7103 16.58 56.9343 16.188C57.1663 15.788 57.2823 15.3 57.2823 14.724C57.2823 14.148 57.1703 13.664 56.9463 13.272C56.7223 12.872 56.4263 12.576 56.0583 12.384C55.6903 12.184 55.2903 12.084 54.8583 12.084C54.4263 12.084 54.0263 12.184 53.6583 12.384C53.2903 12.576 52.9943 12.872 52.7703 13.272C52.5543 13.664 52.4463 14.148 52.4463 14.724C52.4463 15.3 52.5543 15.788 52.7703 16.188C52.9943 16.58 53.2863 16.876 53.6463 17.076C54.0143 17.268 54.4143 17.364 54.8463 17.364ZM68.3176 11.448L66.2656 18H65.4256L63.6136 12.504L61.8016 18H60.9496L58.8976 11.448H59.7496L61.3816 17.148L63.2176 11.448H64.0576L65.8696 17.16L67.4896 11.448H68.3176Z" fill="black"/>
</svg>
