<svg width="254" height="64" viewBox="0 0 254 64" fill="none" xmlns="http://www.w3.org/2000/svg">
<rect x="0.5" y="0.5" width="252.936" height="62.2067" stroke="white"/>
<path d="M31.8514 28.333V36H30.8504V28.333H31.8514ZM37.4911 27.86V36H36.4901V27.86H37.4911ZM41.8261 36.099C41.2614 36.099 40.7481 35.9707 40.2861 35.714C39.8314 35.4573 39.4721 35.0943 39.2081 34.625C38.9514 34.1483 38.8231 33.5983 38.8231 32.975C38.8231 32.359 38.9551 31.8163 39.2191 31.347C39.4904 30.8703 39.8571 30.5073 40.3191 30.258C40.7811 30.0013 41.2981 29.873 41.8701 29.873C42.4421 29.873 42.9591 30.0013 43.4211 30.258C43.8831 30.5073 44.2461 30.8667 44.5101 31.336C44.7814 31.8053 44.9171 32.3517 44.9171 32.975C44.9171 33.5983 44.7778 34.1483 44.4991 34.625C44.2278 35.0943 43.8574 35.4573 43.3881 35.714C42.9188 35.9707 42.3981 36.099 41.8261 36.099ZM41.8261 35.219C42.1854 35.219 42.5228 35.1347 42.8381 34.966C43.1534 34.7973 43.4064 34.5443 43.5971 34.207C43.7951 33.8697 43.8941 33.459 43.8941 32.975C43.8941 32.491 43.7988 32.0803 43.6081 31.743C43.4174 31.4057 43.1681 31.1563 42.8601 30.995C42.5521 30.8263 42.2184 30.742 41.8591 30.742C41.4924 30.742 41.1551 30.8263 40.8471 30.995C40.5464 31.1563 40.3044 31.4057 40.1211 31.743C39.9378 32.0803 39.8461 32.491 39.8461 32.975C39.8461 33.4663 39.9341 33.8807 40.1101 34.218C40.2934 34.5553 40.5354 34.8083 40.8361 34.977C41.1368 35.1383 41.4668 35.219 41.8261 35.219ZM48.4772 35.076L50.3472 29.972H51.4142L49.0492 36H47.8832L45.5182 29.972H46.5962L48.4772 35.076ZM57.8992 32.755C57.8992 32.9457 57.8882 33.1473 57.8662 33.36H53.0482C53.0849 33.954 53.2866 34.4197 53.6532 34.757C54.0272 35.087 54.4782 35.252 55.0062 35.252C55.4389 35.252 55.7982 35.153 56.0842 34.955C56.3776 34.7497 56.5829 34.4783 56.7002 34.141H57.7782C57.6169 34.7203 57.2942 35.1933 56.8102 35.56C56.3262 35.9193 55.7249 36.099 55.0062 36.099C54.4342 36.099 53.9209 35.9707 53.4662 35.714C53.0189 35.4573 52.6669 35.0943 52.4102 34.625C52.1536 34.1483 52.0252 33.5983 52.0252 32.975C52.0252 32.3517 52.1499 31.8053 52.3992 31.336C52.6486 30.8667 52.9969 30.5073 53.4442 30.258C53.8989 30.0013 54.4196 29.873 55.0062 29.873C55.5782 29.873 56.0842 29.9977 56.5242 30.247C56.9642 30.4963 57.3016 30.841 57.5362 31.281C57.7782 31.7137 57.8992 32.205 57.8992 32.755ZM56.8652 32.546C56.8652 32.1647 56.7809 31.8383 56.6122 31.567C56.4436 31.2883 56.2126 31.0793 55.9192 30.94C55.6332 30.7933 55.3142 30.72 54.9622 30.72C54.4562 30.72 54.0236 30.8813 53.6642 31.204C53.3122 31.5267 53.1106 31.974 53.0592 32.546H56.8652ZM63.1542 31.083C63.3522 30.7383 63.6455 30.4523 64.0342 30.225C64.4302 29.9903 64.8885 29.873 65.4092 29.873C65.9445 29.873 66.4285 30.0013 66.8612 30.258C67.3012 30.5147 67.6458 30.8777 67.8952 31.347C68.1445 31.809 68.2692 32.348 68.2692 32.964C68.2692 33.5727 68.1445 34.1153 67.8952 34.592C67.6458 35.0687 67.3012 35.439 66.8612 35.703C66.4285 35.967 65.9445 36.099 65.4092 36.099C64.8958 36.099 64.4412 35.9853 64.0452 35.758C63.6565 35.5233 63.3595 35.2337 63.1542 34.889V38.86H62.1532V29.972H63.1542V31.083ZM67.2462 32.964C67.2462 32.5093 67.1545 32.1133 66.9712 31.776C66.7878 31.4387 66.5385 31.182 66.2232 31.006C65.9152 30.83 65.5742 30.742 65.2002 30.742C64.8335 30.742 64.4925 30.8337 64.1772 31.017C63.8692 31.193 63.6198 31.4533 63.4292 31.798C63.2458 32.1353 63.1542 32.5277 63.1542 32.975C63.1542 33.4297 63.2458 33.8293 63.4292 34.174C63.6198 34.5113 63.8692 34.7717 64.1772 34.955C64.4925 35.131 64.8335 35.219 65.2002 35.219C65.5742 35.219 65.9152 35.131 66.2232 34.955C66.5385 34.7717 66.7878 34.5113 66.9712 34.174C67.1545 33.8293 67.2462 33.426 67.2462 32.964ZM74.7787 29.972L71.1487 38.838H70.1147L71.3027 35.934L68.8717 29.972H69.9827L71.8747 34.856L73.7447 29.972H74.7787ZM77.006 30.797V34.35C77.006 34.6433 77.0683 34.8523 77.193 34.977C77.3177 35.0943 77.534 35.153 77.842 35.153H78.579V36H77.677C77.1197 36 76.7017 35.8717 76.423 35.615C76.1443 35.3583 76.005 34.9367 76.005 34.35V30.797H75.224V29.972H76.005V28.454H77.006V29.972H78.579V30.797H77.006ZM82.7838 29.862C83.2385 29.862 83.6492 29.961 84.0158 30.159C84.3825 30.3497 84.6685 30.6393 84.8738 31.028C85.0865 31.4167 85.1928 31.8897 85.1928 32.447V36H84.2028V32.59C84.2028 31.9887 84.0525 31.5303 83.7518 31.215C83.4512 30.8923 83.0405 30.731 82.5198 30.731C81.9918 30.731 81.5702 30.896 81.2548 31.226C80.9468 31.556 80.7928 32.0363 80.7928 32.667V36H79.7918V27.86H80.7928V30.83C80.9908 30.522 81.2622 30.2837 81.6068 30.115C81.9588 29.9463 82.3512 29.862 82.7838 29.862ZM89.457 36.099C88.8923 36.099 88.379 35.9707 87.917 35.714C87.4623 35.4573 87.103 35.0943 86.839 34.625C86.5823 34.1483 86.454 33.5983 86.454 32.975C86.454 32.359 86.586 31.8163 86.85 31.347C87.1213 30.8703 87.488 30.5073 87.95 30.258C88.412 30.0013 88.929 29.873 89.501 29.873C90.073 29.873 90.59 30.0013 91.052 30.258C91.514 30.5073 91.877 30.8667 92.141 31.336C92.4123 31.8053 92.548 32.3517 92.548 32.975C92.548 33.5983 92.4086 34.1483 92.13 34.625C91.8586 35.0943 91.4883 35.4573 91.019 35.714C90.5496 35.9707 90.029 36.099 89.457 36.099ZM89.457 35.219C89.8163 35.219 90.1536 35.1347 90.469 34.966C90.7843 34.7973 91.0373 34.5443 91.228 34.207C91.426 33.8697 91.525 33.459 91.525 32.975C91.525 32.491 91.4296 32.0803 91.239 31.743C91.0483 31.4057 90.799 31.1563 90.491 30.995C90.183 30.8263 89.8493 30.742 89.49 30.742C89.1233 30.742 88.786 30.8263 88.478 30.995C88.1773 31.1563 87.9353 31.4057 87.752 31.743C87.5686 32.0803 87.477 32.491 87.477 32.975C87.477 33.4663 87.565 33.8807 87.741 34.218C87.9243 34.5553 88.1663 34.8083 88.467 34.977C88.7676 35.1383 89.0976 35.219 89.457 35.219ZM96.8011 29.862C97.5344 29.862 98.1284 30.0857 98.5831 30.533C99.0378 30.973 99.2651 31.611 99.2651 32.447V36H98.2751V32.59C98.2751 31.9887 98.1248 31.5303 97.8241 31.215C97.5234 30.8923 97.1128 30.731 96.5921 30.731C96.0641 30.731 95.6424 30.896 95.3271 31.226C95.0191 31.556 94.8651 32.0363 94.8651 32.667V36H93.8641V29.972H94.8651V30.83C95.0631 30.522 95.3308 30.2837 95.6681 30.115C96.0128 29.9463 96.3904 29.862 96.8011 29.862ZM102.198 28.333L102.077 33.833H101.241L101.12 28.333H102.198ZM101.703 36.066C101.513 36.066 101.351 36 101.219 35.868C101.087 35.736 101.021 35.5747 101.021 35.384C101.021 35.1933 101.087 35.032 101.219 34.9C101.351 34.768 101.513 34.702 101.703 34.702C101.887 34.702 102.041 34.768 102.165 34.9C102.297 35.032 102.363 35.1933 102.363 35.384C102.363 35.5747 102.297 35.736 102.165 35.868C102.041 36 101.887 36.066 101.703 36.066ZM108.11 31.094C108.316 30.7347 108.616 30.4413 109.012 30.214C109.408 29.9867 109.859 29.873 110.365 29.873C110.908 29.873 111.396 30.0013 111.828 30.258C112.261 30.5147 112.602 30.8777 112.851 31.347C113.101 31.809 113.225 32.348 113.225 32.964C113.225 33.5727 113.101 34.1153 112.851 34.592C112.602 35.0687 112.257 35.439 111.817 35.703C111.385 35.967 110.901 36.099 110.365 36.099C109.845 36.099 109.386 35.9853 108.99 35.758C108.602 35.5307 108.308 35.241 108.11 34.889V36H107.109V27.86H108.11V31.094ZM112.202 32.964C112.202 32.5093 112.111 32.1133 111.927 31.776C111.744 31.4387 111.495 31.182 111.179 31.006C110.871 30.83 110.53 30.742 110.156 30.742C109.79 30.742 109.449 30.8337 109.133 31.017C108.825 31.193 108.576 31.4533 108.385 31.798C108.202 32.1353 108.11 32.5277 108.11 32.975C108.11 33.4297 108.202 33.8293 108.385 34.174C108.576 34.5113 108.825 34.7717 109.133 34.955C109.449 35.131 109.79 35.219 110.156 35.219C110.53 35.219 110.871 35.131 111.179 34.955C111.495 34.7717 111.744 34.5113 111.927 34.174C112.111 33.8293 112.202 33.426 112.202 32.964ZM120.043 32.755C120.043 32.9457 120.032 33.1473 120.01 33.36H115.192C115.228 33.954 115.43 34.4197 115.797 34.757C116.171 35.087 116.622 35.252 117.15 35.252C117.582 35.252 117.942 35.153 118.228 34.955C118.521 34.7497 118.726 34.4783 118.844 34.141H119.922C119.76 34.7203 119.438 35.1933 118.954 35.56C118.47 35.9193 117.868 36.099 117.15 36.099C116.578 36.099 116.064 35.9707 115.61 35.714C115.162 35.4573 114.81 35.0943 114.554 34.625C114.297 34.1483 114.169 33.5983 114.169 32.975C114.169 32.3517 114.293 31.8053 114.543 31.336C114.792 30.8667 115.14 30.5073 115.588 30.258C116.042 30.0013 116.563 29.873 117.15 29.873C117.722 29.873 118.228 29.9977 118.668 30.247C119.108 30.4963 119.445 30.841 119.68 31.281C119.922 31.7137 120.043 32.205 120.043 32.755ZM119.009 32.546C119.009 32.1647 118.924 31.8383 118.756 31.567C118.587 31.2883 118.356 31.0793 118.063 30.94C117.777 30.7933 117.458 30.72 117.106 30.72C116.6 30.72 116.167 30.8813 115.808 31.204C115.456 31.5267 115.254 31.974 115.203 32.546H119.009ZM120.99 32.975C120.99 32.3517 121.115 31.809 121.364 31.347C121.613 30.8777 121.958 30.5147 122.398 30.258C122.845 30.0013 123.355 29.873 123.927 29.873C124.668 29.873 125.276 30.0527 125.753 30.412C126.237 30.7713 126.556 31.27 126.71 31.908H125.632C125.529 31.5413 125.328 31.2517 125.027 31.039C124.734 30.8263 124.367 30.72 123.927 30.72C123.355 30.72 122.893 30.918 122.541 31.314C122.189 31.7027 122.013 32.2563 122.013 32.975C122.013 33.701 122.189 34.262 122.541 34.658C122.893 35.054 123.355 35.252 123.927 35.252C124.367 35.252 124.734 35.1493 125.027 34.944C125.32 34.7387 125.522 34.4453 125.632 34.064H126.71C126.549 34.68 126.226 35.175 125.742 35.549C125.258 35.9157 124.653 36.099 123.927 36.099C123.355 36.099 122.845 35.9707 122.398 35.714C121.958 35.4573 121.613 35.0943 121.364 34.625C121.115 34.1557 120.99 33.6057 120.99 32.975ZM130.675 36.099C130.11 36.099 129.597 35.9707 129.135 35.714C128.68 35.4573 128.321 35.0943 128.057 34.625C127.8 34.1483 127.672 33.5983 127.672 32.975C127.672 32.359 127.804 31.8163 128.068 31.347C128.339 30.8703 128.706 30.5073 129.168 30.258C129.63 30.0013 130.147 29.873 130.719 29.873C131.291 29.873 131.808 30.0013 132.27 30.258C132.732 30.5073 133.095 30.8667 133.359 31.336C133.63 31.8053 133.766 32.3517 133.766 32.975C133.766 33.5983 133.626 34.1483 133.348 34.625C133.076 35.0943 132.706 35.4573 132.237 35.714C131.767 35.9707 131.247 36.099 130.675 36.099ZM130.675 35.219C131.034 35.219 131.371 35.1347 131.687 34.966C132.002 34.7973 132.255 34.5443 132.446 34.207C132.644 33.8697 132.743 33.459 132.743 32.975C132.743 32.491 132.647 32.0803 132.457 31.743C132.266 31.4057 132.017 31.1563 131.709 30.995C131.401 30.8263 131.067 30.742 130.708 30.742C130.341 30.742 130.004 30.8263 129.696 30.995C129.395 31.1563 129.153 31.4057 128.97 31.743C128.786 32.0803 128.695 32.491 128.695 32.975C128.695 33.4663 128.783 33.8807 128.959 34.218C129.142 34.5553 129.384 34.8083 129.685 34.977C129.985 35.1383 130.315 35.219 130.675 35.219ZM140.428 29.972V36H139.427V35.109C139.236 35.417 138.969 35.659 138.624 35.835C138.287 36.0037 137.913 36.088 137.502 36.088C137.033 36.088 136.611 35.9927 136.237 35.802C135.863 35.604 135.566 35.3107 135.346 34.922C135.133 34.5333 135.027 34.0603 135.027 33.503V29.972H136.017V33.371C136.017 33.965 136.167 34.4233 136.468 34.746C136.769 35.0613 137.179 35.219 137.7 35.219C138.235 35.219 138.657 35.054 138.965 34.724C139.273 34.394 139.427 33.9137 139.427 33.283V29.972H140.428ZM144.252 36.099C143.79 36.099 143.376 36.022 143.009 35.868C142.642 35.7067 142.353 35.4867 142.14 35.208C141.927 34.922 141.81 34.5957 141.788 34.229H142.822C142.851 34.5297 142.991 34.7753 143.24 34.966C143.497 35.1567 143.83 35.252 144.241 35.252C144.622 35.252 144.923 35.1677 145.143 34.999C145.363 34.8303 145.473 34.6177 145.473 34.361C145.473 34.097 145.356 33.9027 145.121 33.778C144.886 33.646 144.523 33.5177 144.032 33.393C143.585 33.2757 143.218 33.1583 142.932 33.041C142.653 32.9163 142.411 32.7367 142.206 32.502C142.008 32.26 141.909 31.9447 141.909 31.556C141.909 31.248 142.001 30.9657 142.184 30.709C142.367 30.4523 142.628 30.2507 142.965 30.104C143.302 29.95 143.687 29.873 144.12 29.873C144.787 29.873 145.326 30.0417 145.737 30.379C146.148 30.7163 146.368 31.1783 146.397 31.765H145.396C145.374 31.4497 145.246 31.1967 145.011 31.006C144.784 30.8153 144.476 30.72 144.087 30.72C143.728 30.72 143.442 30.797 143.229 30.951C143.016 31.105 142.91 31.3067 142.91 31.556C142.91 31.754 142.972 31.919 143.097 32.051C143.229 32.1757 143.39 32.2783 143.581 32.359C143.779 32.4323 144.05 32.5167 144.395 32.612C144.828 32.7293 145.18 32.8467 145.451 32.964C145.722 33.074 145.953 33.2427 146.144 33.47C146.342 33.6973 146.445 33.9943 146.452 34.361C146.452 34.691 146.36 34.988 146.177 35.252C145.994 35.516 145.733 35.725 145.396 35.879C145.066 36.0257 144.685 36.099 144.252 36.099ZM153.365 32.755C153.365 32.9457 153.354 33.1473 153.332 33.36H148.514C148.551 33.954 148.752 34.4197 149.119 34.757C149.493 35.087 149.944 35.252 150.472 35.252C150.905 35.252 151.264 35.153 151.55 34.955C151.843 34.7497 152.049 34.4783 152.166 34.141H153.244C153.083 34.7203 152.76 35.1933 152.276 35.56C151.792 35.9193 151.191 36.099 150.472 36.099C149.9 36.099 149.387 35.9707 148.932 35.714C148.485 35.4573 148.133 35.0943 147.876 34.625C147.619 34.1483 147.491 33.5983 147.491 32.975C147.491 32.3517 147.616 31.8053 147.865 31.336C148.114 30.8667 148.463 30.5073 148.91 30.258C149.365 30.0013 149.885 29.873 150.472 29.873C151.044 29.873 151.55 29.9977 151.99 30.247C152.43 30.4963 152.767 30.841 153.002 31.281C153.244 31.7137 153.365 32.205 153.365 32.755ZM152.331 32.546C152.331 32.1647 152.247 31.8383 152.078 31.567C151.909 31.2883 151.678 31.0793 151.385 30.94C151.099 30.7933 150.78 30.72 150.428 30.72C149.922 30.72 149.489 30.8813 149.13 31.204C148.778 31.5267 148.576 31.974 148.525 32.546H152.331ZM158.136 28.993C157.945 28.993 157.784 28.927 157.652 28.795C157.52 28.663 157.454 28.5017 157.454 28.311C157.454 28.1203 157.52 27.959 157.652 27.827C157.784 27.695 157.945 27.629 158.136 27.629C158.319 27.629 158.473 27.695 158.598 27.827C158.73 27.959 158.796 28.1203 158.796 28.311C158.796 28.5017 158.73 28.663 158.598 28.795C158.473 28.927 158.319 28.993 158.136 28.993ZM158.62 29.972V36H157.619V29.972H158.62ZM164.26 27.86V36H163.259V27.86H164.26ZM166.483 28.993C166.292 28.993 166.131 28.927 165.999 28.795C165.867 28.663 165.801 28.5017 165.801 28.311C165.801 28.1203 165.867 27.959 165.999 27.827C166.131 27.695 166.292 27.629 166.483 27.629C166.666 27.629 166.82 27.695 166.945 27.827C167.077 27.959 167.143 28.1203 167.143 28.311C167.143 28.5017 167.077 28.663 166.945 28.795C166.82 28.927 166.666 28.993 166.483 28.993ZM166.967 29.972V36H165.966V29.972H166.967ZM172.039 36L169.674 33.338V36H168.673V27.86H169.674V32.645L171.995 29.972H173.392L170.554 32.975L173.403 36H172.039ZM179.834 32.755C179.834 32.9457 179.823 33.1473 179.801 33.36H174.983C175.019 33.954 175.221 34.4197 175.588 34.757C175.962 35.087 176.413 35.252 176.941 35.252C177.373 35.252 177.733 35.153 178.019 34.955C178.312 34.7497 178.517 34.4783 178.635 34.141H179.713C179.551 34.7203 179.229 35.1933 178.745 35.56C178.261 35.9193 177.659 36.099 176.941 36.099C176.369 36.099 175.855 35.9707 175.401 35.714C174.953 35.4573 174.601 35.0943 174.345 34.625C174.088 34.1483 173.96 33.5983 173.96 32.975C173.96 32.3517 174.084 31.8053 174.334 31.336C174.583 30.8667 174.931 30.5073 175.379 30.258C175.833 30.0013 176.354 29.873 176.941 29.873C177.513 29.873 178.019 29.9977 178.459 30.247C178.899 30.4963 179.236 30.841 179.471 31.281C179.713 31.7137 179.834 32.205 179.834 32.755ZM178.8 32.546C178.8 32.1647 178.715 31.8383 178.547 31.567C178.378 31.2883 178.147 31.0793 177.854 30.94C177.568 30.7933 177.249 30.72 176.897 30.72C176.391 30.72 175.958 30.8813 175.599 31.204C175.247 31.5267 175.045 31.974 174.994 32.546H178.8ZM186.222 36.099C185.76 36.099 185.345 36.022 184.979 35.868C184.612 35.7067 184.322 35.4867 184.11 35.208C183.897 34.922 183.78 34.5957 183.758 34.229H184.792C184.821 34.5297 184.96 34.7753 185.21 34.966C185.466 35.1567 185.8 35.252 186.211 35.252C186.592 35.252 186.893 35.1677 187.113 34.999C187.333 34.8303 187.443 34.6177 187.443 34.361C187.443 34.097 187.325 33.9027 187.091 33.778C186.856 33.646 186.493 33.5177 186.002 33.393C185.554 33.2757 185.188 33.1583 184.902 33.041C184.623 32.9163 184.381 32.7367 184.176 32.502C183.978 32.26 183.879 31.9447 183.879 31.556C183.879 31.248 183.97 30.9657 184.154 30.709C184.337 30.4523 184.597 30.2507 184.935 30.104C185.272 29.95 185.657 29.873 186.09 29.873C186.757 29.873 187.296 30.0417 187.707 30.379C188.117 30.7163 188.337 31.1783 188.367 31.765H187.366C187.344 31.4497 187.215 31.1967 186.981 31.006C186.753 30.8153 186.445 30.72 186.057 30.72C185.697 30.72 185.411 30.797 185.199 30.951C184.986 31.105 184.88 31.3067 184.88 31.556C184.88 31.754 184.942 31.919 185.067 32.051C185.199 32.1757 185.36 32.2783 185.551 32.359C185.749 32.4323 186.02 32.5167 186.365 32.612C186.797 32.7293 187.149 32.8467 187.421 32.964C187.692 33.074 187.923 33.2427 188.114 33.47C188.312 33.6973 188.414 33.9943 188.422 34.361C188.422 34.691 188.33 34.988 188.147 35.252C187.963 35.516 187.703 35.725 187.366 35.879C187.036 36.0257 186.654 36.099 186.222 36.099ZM192.772 29.862C193.505 29.862 194.099 30.0857 194.554 30.533C195.008 30.973 195.236 31.611 195.236 32.447V36H194.246V32.59C194.246 31.9887 194.095 31.5303 193.795 31.215C193.494 30.8923 193.083 30.731 192.563 30.731C192.035 30.731 191.613 30.896 191.298 31.226C190.99 31.556 190.836 32.0363 190.836 32.667V36H189.835V29.972H190.836V30.83C191.034 30.522 191.301 30.2837 191.639 30.115C191.983 29.9463 192.361 29.862 192.772 29.862ZM196.497 32.964C196.497 32.348 196.622 31.809 196.871 31.347C197.12 30.8777 197.461 30.5147 197.894 30.258C198.334 30.0013 198.822 29.873 199.357 29.873C199.885 29.873 200.343 29.9867 200.732 30.214C201.121 30.4413 201.41 30.7273 201.601 31.072V29.972H202.613V36H201.601V34.878C201.403 35.23 201.106 35.5233 200.71 35.758C200.321 35.9853 199.867 36.099 199.346 36.099C198.811 36.099 198.327 35.967 197.894 35.703C197.461 35.439 197.12 35.0687 196.871 34.592C196.622 34.1153 196.497 33.5727 196.497 32.964ZM201.601 32.975C201.601 32.5203 201.509 32.1243 201.326 31.787C201.143 31.4497 200.893 31.193 200.578 31.017C200.27 30.8337 199.929 30.742 199.555 30.742C199.181 30.742 198.84 30.83 198.532 31.006C198.224 31.182 197.978 31.4387 197.795 31.776C197.612 32.1133 197.52 32.5093 197.52 32.964C197.52 33.426 197.612 33.8293 197.795 34.174C197.978 34.5113 198.224 34.7717 198.532 34.955C198.84 35.131 199.181 35.219 199.555 35.219C199.929 35.219 200.27 35.131 200.578 34.955C200.893 34.7717 201.143 34.5113 201.326 34.174C201.509 33.8293 201.601 33.4297 201.601 32.975ZM207.671 36L205.306 33.338V36H204.305V27.86H205.306V32.645L207.627 29.972H209.024L206.186 32.975L209.035 36H207.671ZM215.466 32.755C215.466 32.9457 215.455 33.1473 215.433 33.36H210.615C210.651 33.954 210.853 34.4197 211.22 34.757C211.594 35.087 212.045 35.252 212.573 35.252C213.005 35.252 213.365 35.153 213.651 34.955C213.944 34.7497 214.149 34.4783 214.267 34.141H215.345C215.183 34.7203 214.861 35.1933 214.377 35.56C213.893 35.9193 213.291 36.099 212.573 36.099C212.001 36.099 211.487 35.9707 211.033 35.714C210.585 35.4573 210.233 35.0943 209.977 34.625C209.72 34.1483 209.592 33.5983 209.592 32.975C209.592 32.3517 209.716 31.8053 209.966 31.336C210.215 30.8667 210.563 30.5073 211.011 30.258C211.465 30.0013 211.986 29.873 212.573 29.873C213.145 29.873 213.651 29.9977 214.091 30.247C214.531 30.4963 214.868 30.841 215.103 31.281C215.345 31.7137 215.466 32.205 215.466 32.755ZM214.432 32.546C214.432 32.1647 214.347 31.8383 214.179 31.567C214.01 31.2883 213.779 31.0793 213.486 30.94C213.2 30.7933 212.881 30.72 212.529 30.72C212.023 30.72 211.59 30.8813 211.231 31.204C210.879 31.5267 210.677 31.974 210.626 32.546H214.432ZM218.921 36.099C218.459 36.099 218.045 36.022 217.678 35.868C217.311 35.7067 217.022 35.4867 216.809 35.208C216.596 34.922 216.479 34.5957 216.457 34.229H217.491C217.52 34.5297 217.66 34.7753 217.909 34.966C218.166 35.1567 218.499 35.252 218.91 35.252C219.291 35.252 219.592 35.1677 219.812 34.999C220.032 34.8303 220.142 34.6177 220.142 34.361C220.142 34.097 220.025 33.9027 219.79 33.778C219.555 33.646 219.192 33.5177 218.701 33.393C218.254 33.2757 217.887 33.1583 217.601 33.041C217.322 32.9163 217.08 32.7367 216.875 32.502C216.677 32.26 216.578 31.9447 216.578 31.556C216.578 31.248 216.67 30.9657 216.853 30.709C217.036 30.4523 217.297 30.2507 217.634 30.104C217.971 29.95 218.356 29.873 218.789 29.873C219.456 29.873 219.995 30.0417 220.406 30.379C220.817 30.7163 221.037 31.1783 221.066 31.765H220.065C220.043 31.4497 219.915 31.1967 219.68 31.006C219.453 30.8153 219.145 30.72 218.756 30.72C218.397 30.72 218.111 30.797 217.898 30.951C217.685 31.105 217.579 31.3067 217.579 31.556C217.579 31.754 217.641 31.919 217.766 32.051C217.898 32.1757 218.059 32.2783 218.25 32.359C218.448 32.4323 218.719 32.5167 219.064 32.612C219.497 32.7293 219.849 32.8467 220.12 32.964C220.391 33.074 220.622 33.2427 220.813 33.47C221.011 33.6973 221.114 33.9943 221.121 34.361C221.121 34.691 221.029 34.988 220.846 35.252C220.663 35.516 220.402 35.725 220.065 35.879C219.735 36.0257 219.354 36.099 218.921 36.099ZM222.853 36.066C222.662 36.066 222.501 36 222.369 35.868C222.237 35.736 222.171 35.5747 222.171 35.384C222.171 35.1933 222.237 35.032 222.369 34.9C222.501 34.768 222.662 34.702 222.853 34.702C223.036 34.702 223.19 34.768 223.315 34.9C223.447 35.032 223.513 35.1933 223.513 35.384C223.513 35.5747 223.447 35.736 223.315 35.868C223.19 36 223.036 36.066 222.853 36.066Z" fill="#C4C4C4"/>
</svg>
