<svg width="157" height="118" viewBox="0 0 157 118" fill="none" xmlns="http://www.w3.org/2000/svg">
<rect x="0.0195312" y="43.5039" width="156.96" height="73.5938" fill="#6ADBFF"/>
<path d="M43.56 78.1089C43.56 78.9789 43.26 79.7039 42.66 80.2839C42.07 80.8539 41.165 81.1389 39.945 81.1389H37.935V85.5039H36.57V75.0489H39.945C41.125 75.0489 42.02 75.3339 42.63 75.9039C43.25 76.4739 43.56 77.2089 43.56 78.1089ZM39.945 80.0139C40.705 80.0139 41.265 79.8489 41.625 79.5189C41.985 79.1889 42.165 78.7189 42.165 78.1089C42.165 76.8189 41.425 76.1739 39.945 76.1739H37.935V80.0139H39.945ZM46.6216 78.6189C46.8616 78.1489 47.2016 77.7839 47.6416 77.5239C48.0916 77.2639 48.6366 77.1339 49.2766 77.1339V78.5439H48.9166C47.3866 78.5439 46.6216 79.3739 46.6216 81.0339V85.5039H45.2566V77.2839H46.6216V78.6189ZM54.4373 85.6389C53.6673 85.6389 52.9673 85.4639 52.3373 85.1139C51.7173 84.7639 51.2273 84.2689 50.8673 83.6289C50.5173 82.9789 50.3423 82.2289 50.3423 81.3789C50.3423 80.5389 50.5223 79.7989 50.8823 79.1589C51.2523 78.5089 51.7523 78.0139 52.3823 77.6739C53.0123 77.3239 53.7173 77.1489 54.4973 77.1489C55.2773 77.1489 55.9823 77.3239 56.6123 77.6739C57.2423 78.0139 57.7373 78.5039 58.0973 79.1439C58.4673 79.7839 58.6523 80.5289 58.6523 81.3789C58.6523 82.2289 58.4623 82.9789 58.0823 83.6289C57.7123 84.2689 57.2073 84.7639 56.5673 85.1139C55.9273 85.4639 55.2173 85.6389 54.4373 85.6389ZM54.4373 84.4389C54.9273 84.4389 55.3873 84.3239 55.8173 84.0939C56.2473 83.8639 56.5923 83.5189 56.8523 83.0589C57.1223 82.5989 57.2573 82.0389 57.2573 81.3789C57.2573 80.7189 57.1273 80.1589 56.8673 79.6989C56.6073 79.2389 56.2673 78.8989 55.8473 78.6789C55.4273 78.4489 54.9723 78.3339 54.4823 78.3339C53.9823 78.3339 53.5223 78.4489 53.1023 78.6789C52.6923 78.8989 52.3623 79.2389 52.1123 79.6989C51.8623 80.1589 51.7373 80.7189 51.7373 81.3789C51.7373 82.0489 51.8573 82.6139 52.0973 83.0739C52.3473 83.5339 52.6773 83.8789 53.0873 84.1089C53.4973 84.3289 53.9473 84.4389 54.4373 84.4389ZM63.837 77.1489C64.547 77.1489 65.167 77.3039 65.697 77.6139C66.237 77.9239 66.637 78.3139 66.897 78.7839V77.2839H68.277V85.6839C68.277 86.4339 68.117 87.0989 67.797 87.6789C67.477 88.2689 67.017 88.7289 66.417 89.0589C65.827 89.3889 65.137 89.5539 64.347 89.5539C63.267 89.5539 62.367 89.2989 61.647 88.7889C60.927 88.2789 60.502 87.5839 60.372 86.7039H61.722C61.872 87.2039 62.182 87.6039 62.652 87.9039C63.122 88.2139 63.687 88.3689 64.347 88.3689C65.097 88.3689 65.707 88.1339 66.177 87.6639C66.657 87.1939 66.897 86.5339 66.897 85.6839V83.9589C66.627 84.4389 66.227 84.8389 65.697 85.1589C65.167 85.4789 64.547 85.6389 63.837 85.6389C63.107 85.6389 62.442 85.4589 61.842 85.0989C61.252 84.7389 60.787 84.2339 60.447 83.5839C60.107 82.9339 59.937 82.1939 59.937 81.3639C59.937 80.5239 60.107 79.7889 60.447 79.1589C60.787 78.5189 61.252 78.0239 61.842 77.6739C62.442 77.3239 63.107 77.1489 63.837 77.1489ZM66.897 81.3789C66.897 80.7589 66.772 80.2189 66.522 79.7589C66.272 79.2989 65.932 78.9489 65.502 78.7089C65.082 78.4589 64.617 78.3339 64.107 78.3339C63.597 78.3339 63.132 78.4539 62.712 78.6939C62.292 78.9339 61.957 79.2839 61.707 79.7439C61.457 80.2039 61.332 80.7439 61.332 81.3639C61.332 81.9939 61.457 82.5439 61.707 83.0139C61.957 83.4739 62.292 83.8289 62.712 84.0789C63.132 84.3189 63.597 84.4389 64.107 84.4389C64.617 84.4389 65.082 84.3189 65.502 84.0789C65.932 83.8289 66.272 83.4739 66.522 83.0139C66.772 82.5439 66.897 81.9989 66.897 81.3789ZM71.9487 78.6189C72.1887 78.1489 72.5287 77.7839 72.9687 77.5239C73.4187 77.2639 73.9637 77.1339 74.6037 77.1339V78.5439H74.2437C72.7137 78.5439 71.9487 79.3739 71.9487 81.0339V85.5039H70.5837V77.2839H71.9487V78.6189ZM75.6694 81.3639C75.6694 80.5239 75.8394 79.7889 76.1794 79.1589C76.5194 78.5189 76.9844 78.0239 77.5744 77.6739C78.1744 77.3239 78.8394 77.1489 79.5694 77.1489C80.2894 77.1489 80.9144 77.3039 81.4444 77.6139C81.9744 77.9239 82.3694 78.3139 82.6294 78.7839V77.2839H84.0094V85.5039H82.6294V83.9739C82.3594 84.4539 81.9544 84.8539 81.4144 85.1739C80.8844 85.4839 80.2644 85.6389 79.5544 85.6389C78.8244 85.6389 78.1644 85.4589 77.5744 85.0989C76.9844 84.7389 76.5194 84.2339 76.1794 83.5839C75.8394 82.9339 75.6694 82.1939 75.6694 81.3639ZM82.6294 81.3789C82.6294 80.7589 82.5044 80.2189 82.2544 79.7589C82.0044 79.2989 81.6644 78.9489 81.2344 78.7089C80.8144 78.4589 80.3494 78.3339 79.8394 78.3339C79.3294 78.3339 78.8644 78.4539 78.4444 78.6939C78.0244 78.9339 77.6894 79.2839 77.4394 79.7439C77.1894 80.2039 77.0644 80.7439 77.0644 81.3639C77.0644 81.9939 77.1894 82.5439 77.4394 83.0139C77.6894 83.4739 78.0244 83.8289 78.4444 84.0789C78.8644 84.3189 79.3294 84.4389 79.8394 84.4389C80.3494 84.4389 80.8144 84.3189 81.2344 84.0789C81.6644 83.8289 82.0044 83.4739 82.2544 83.0139C82.5044 82.5439 82.6294 81.9989 82.6294 81.3789ZM96.2011 77.1339C96.8411 77.1339 97.4111 77.2689 97.9111 77.5389C98.4111 77.7989 98.8061 78.1939 99.0961 78.7239C99.3861 79.2539 99.5311 79.8989 99.5311 80.6589V85.5039H98.1811V80.8539C98.1811 80.0339 97.9761 79.4089 97.5661 78.9789C97.1661 78.5389 96.6211 78.3189 95.9311 78.3189C95.2211 78.3189 94.6561 78.5489 94.2361 79.0089C93.8161 79.4589 93.6061 80.1139 93.6061 80.9739V85.5039H92.2561V80.8539C92.2561 80.0339 92.0511 79.4089 91.6411 78.9789C91.2411 78.5389 90.6961 78.3189 90.0061 78.3189C89.2961 78.3189 88.7311 78.5489 88.3111 79.0089C87.8911 79.4589 87.6811 80.1139 87.6811 80.9739V85.5039H86.3161V77.2839H87.6811V78.4689C87.9511 78.0389 88.3111 77.7089 88.7611 77.4789C89.2211 77.2489 89.7261 77.1339 90.2761 77.1339C90.9661 77.1339 91.5761 77.2889 92.1061 77.5989C92.6361 77.9089 93.0311 78.3639 93.2911 78.9639C93.5211 78.3839 93.9011 77.9339 94.4311 77.6139C94.9611 77.2939 95.5511 77.1339 96.2011 77.1339ZM102.475 75.9489C102.215 75.9489 101.995 75.8589 101.815 75.6789C101.635 75.4989 101.545 75.2789 101.545 75.0189C101.545 74.7589 101.635 74.5389 101.815 74.3589C101.995 74.1789 102.215 74.0889 102.475 74.0889C102.725 74.0889 102.935 74.1789 103.105 74.3589C103.285 74.5389 103.375 74.7589 103.375 75.0189C103.375 75.2789 103.285 75.4989 103.105 75.6789C102.935 75.8589 102.725 75.9489 102.475 75.9489ZM103.135 77.2839V85.5039H101.77V77.2839H103.135ZM109.467 77.1339C110.467 77.1339 111.277 77.4389 111.897 78.0489C112.517 78.6489 112.827 79.5189 112.827 80.6589V85.5039H111.477V80.8539C111.477 80.0339 111.272 79.4089 110.862 78.9789C110.452 78.5389 109.892 78.3189 109.182 78.3189C108.462 78.3189 107.887 78.5439 107.457 78.9939C107.037 79.4439 106.827 80.0989 106.827 80.9589V85.5039H105.462V77.2839H106.827V78.4539C107.097 78.0339 107.462 77.7089 107.922 77.4789C108.392 77.2489 108.907 77.1339 109.467 77.1339ZM118.446 77.1489C119.156 77.1489 119.776 77.3039 120.306 77.6139C120.846 77.9239 121.246 78.3139 121.506 78.7839V77.2839H122.886V85.6839C122.886 86.4339 122.726 87.0989 122.406 87.6789C122.086 88.2689 121.626 88.7289 121.026 89.0589C120.436 89.3889 119.746 89.5539 118.956 89.5539C117.876 89.5539 116.976 89.2989 116.256 88.7889C115.536 88.2789 115.111 87.5839 114.981 86.7039H116.331C116.481 87.2039 116.791 87.6039 117.261 87.9039C117.731 88.2139 118.296 88.3689 118.956 88.3689C119.706 88.3689 120.316 88.1339 120.786 87.6639C121.266 87.1939 121.506 86.5339 121.506 85.6839V83.9589C121.236 84.4389 120.836 84.8389 120.306 85.1589C119.776 85.4789 119.156 85.6389 118.446 85.6389C117.716 85.6389 117.051 85.4589 116.451 85.0989C115.861 84.7389 115.396 84.2339 115.056 83.5839C114.716 82.9339 114.546 82.1939 114.546 81.3639C114.546 80.5239 114.716 79.7889 115.056 79.1589C115.396 78.5189 115.861 78.0239 116.451 77.6739C117.051 77.3239 117.716 77.1489 118.446 77.1489ZM121.506 81.3789C121.506 80.7589 121.381 80.2189 121.131 79.7589C120.881 79.2989 120.541 78.9489 120.111 78.7089C119.691 78.4589 119.226 78.3339 118.716 78.3339C118.206 78.3339 117.741 78.4539 117.321 78.6939C116.901 78.9339 116.566 79.2839 116.316 79.7439C116.066 80.2039 115.941 80.7439 115.941 81.3639C115.941 81.9939 116.066 82.5439 116.316 83.0139C116.566 83.4739 116.901 83.8289 117.321 84.0789C117.741 84.3189 118.206 84.4389 118.716 84.4389C119.226 84.4389 119.691 84.3189 120.111 84.0789C120.541 83.8289 120.881 83.4739 121.131 83.0139C121.381 82.5439 121.506 81.9989 121.506 81.3789Z" fill="black"/>
<rect width="157" height="44" fill="white"/>
<path d="M92.7321 33.9071C93.9983 33.9051 95.217 33.4282 96.1447 32.5715C97.0724 31.7149 97.6407 30.5418 97.7362 29.2867L102.678 29.313C102.737 30.2768 103.076 31.2028 103.654 31.9788C104.232 32.7549 105.024 33.3476 105.934 33.6851C106.844 34.0226 107.833 34.0905 108.781 33.8805C109.729 33.6705 110.595 33.1916 111.275 32.5019C111.954 31.8122 112.418 30.9413 112.61 29.9947C112.802 29.0482 112.713 28.0667 112.355 27.1691C111.997 26.2716 111.385 25.4966 110.593 24.9381C109.8 24.3796 108.862 24.0616 107.892 24.0225L103.621 17.7007C104.375 17.0245 104.904 16.1371 105.141 15.1556C105.377 14.1741 105.308 13.1445 104.944 12.2025C104.58 11.2605 103.937 10.4502 103.101 9.87853C102.264 9.30685 101.273 9.00055 100.258 9C99.2429 8.99945 98.2515 9.30467 97.4143 9.87545C96.5772 10.4462 95.9336 11.2558 95.5685 12.1974C95.2032 13.139 95.1337 14.1686 95.3687 15.1503C95.6038 16.1321 96.1326 17.02 96.8853 17.697L92.5295 23.9295C91.2161 23.9814 89.9757 24.5434 89.0745 25.4947C88.1734 26.4459 87.6835 27.7106 87.71 29.0171C87.7365 30.3235 88.2774 31.5675 89.2164 32.4818C90.1555 33.3961 91.4178 33.9079 92.7321 33.9071ZM111.961 29.0061C111.961 29.8468 111.711 30.6686 111.241 31.3676C110.771 32.0667 110.103 32.6115 109.322 32.9332C108.541 33.2549 107.681 33.3391 106.852 33.1751C106.022 33.0111 105.26 32.6063 104.662 32.0118C104.064 31.4174 103.657 30.66 103.492 29.8355C103.327 29.0109 103.412 28.1562 103.735 27.3795C104.059 26.6028 104.607 25.9389 105.31 25.4718C106.013 25.0047 106.84 24.7553 107.686 24.7553C108.819 24.7565 109.906 25.2048 110.708 26.0017C111.509 26.7986 111.96 27.879 111.961 29.0061ZM95.9797 14.0045C95.9797 13.1638 96.2305 12.342 96.7003 11.6429C97.1701 10.9439 97.8379 10.3991 98.6192 10.0773C99.4005 9.75562 100.26 9.67145 101.09 9.83548C101.919 9.99951 102.681 10.4044 103.279 10.9989C103.877 11.5934 104.284 12.3508 104.449 13.1754C104.614 13.9999 104.529 14.8546 104.206 15.6313C103.882 16.408 103.334 17.072 102.631 17.539C101.928 18.006 101.101 18.2553 100.255 18.2553C99.1216 18.254 98.0349 17.8057 97.2333 17.0088C96.4318 16.212 95.981 15.1315 95.9797 14.0045ZM100.255 18.9984C101.244 18.9992 102.21 18.7081 103.033 18.1622L107.018 24.0616C105.888 24.2135 104.845 24.7424 104.057 25.5615C103.27 26.3806 102.786 27.4413 102.685 28.5698L97.7364 28.5434C97.6499 27.4045 97.1735 26.3294 96.3865 25.4973C95.5995 24.6651 94.5495 24.1263 93.4113 23.9704L97.4728 18.159C98.296 18.7071 99.2645 18.9993 100.255 18.9984ZM92.7321 24.6625C93.5778 24.6625 94.4044 24.9118 95.1075 25.3789C95.8106 25.846 96.3587 26.5099 96.6822 27.2866C97.0058 28.0634 97.0905 28.918 96.9255 29.7426C96.7605 30.5672 96.3532 31.3245 95.7553 31.919C95.1573 32.5134 94.3954 32.9182 93.566 33.0823C92.7366 33.2463 91.8769 33.1621 91.0957 32.8403C90.3144 32.5186 89.6466 31.9738 89.1768 31.2748C88.707 30.5757 88.4563 29.7539 88.4563 28.9132C88.4575 27.7861 88.9084 26.7057 89.71 25.9087C90.5116 25.1118 91.5985 24.6637 92.7321 24.6625Z" fill="black"/>
<path d="M15.9208 34C15.7086 34 15.5366 33.8401 15.5366 33.6429V13.6429C15.5366 13.4456 15.7086 13.2857 15.9208 13.2857H34.3601C34.5723 13.2857 34.7443 13.4456 34.7443 13.6429V33.6429C34.7443 33.8401 34.5723 34 34.3601 34H15.9208ZM33.976 33.2857V14H16.3049V33.2857H33.976ZM35.8967 10.4286C36.1089 10.4286 36.2809 10.5885 36.2809 10.7857V13.6429C36.2809 13.8401 36.1089 14 35.8967 14H14.3842C14.172 14 14 13.8401 14 13.6429V10.7857C14 10.5885 14.172 10.4286 14.3842 10.4286H19.6032L21.0273 9.1046C21.0993 9.03763 21.197 9 21.2989 9H28.982C29.0839 9 29.1816 9.03763 29.2536 9.1046L30.6777 10.4286H35.8967ZM35.5126 11.1429H30.5186C30.4167 11.1429 30.319 11.1052 30.247 11.0383L28.8229 9.71429H21.458L20.0339 11.0383C19.9619 11.1052 19.8642 11.1429 19.7623 11.1429H14.7683V13.2857H35.5126V11.1429Z" fill="black"/>
<path d="M68.5443 31.3594L65.7121 32.9218L62.252 33.5468L62.2525 30.1094L72.3179 23.8594L71.3753 27.9219L68.5443 31.3594Z" fill="#FF265A"/>
<path d="M68.5435 26.0464L64.1396 28.8589L62.2522 29.7964L61.7773 27.4017L61.778 23.9643L71.0605 18.5464L72.0036 21.0464L72.3185 23.5464L68.5435 26.0464Z" fill="#00C1FF"/>
<path d="M68.5435 26.0464L64.1396 28.8589L62.2522 29.7964L61.7773 27.4017L61.778 23.9643L71.0605 18.5464L72.0036 21.0464L72.3185 23.5464L68.5435 26.0464Z" fill="#00C1FF"/>
<path d="M68.3229 19.9909L64.1396 22.9221L61.9045 23.7408L61.7773 21.4649L61.778 18.0275L67.5657 14.3657L69.454 16.2408L70.7453 18.2345L68.3229 19.9909Z" fill="#FFCC91"/>
<path d="M66.0264 15.4218L63.8244 16.9843L62.1686 17.9221L61.9375 14.1721L62.1686 9.88086L63.5545 10.6978L65.4611 12.554L67.5996 14.4846L66.0264 15.4218Z" fill="#799DC9"/>
<path d="M72.0739 23.3529C72.0708 25.0965 71.6161 26.8212 70.7385 28.3342C69.8927 29.7967 68.6749 31.0381 67.2251 31.9131C65.7306 32.8165 64.0105 33.3188 62.2617 33.363C60.4938 33.4072 58.7323 32.9934 57.1807 32.1531C55.6894 31.3445 54.4112 30.1663 53.4987 28.7449C52.5607 27.2855 52.0138 25.5956 51.928 23.8646C51.8262 21.764 52.3858 19.6729 53.5368 17.9071C54.3222 16.7037 55.3874 15.6992 56.4239 14.7105C57.5495 13.6365 58.71 12.5941 59.8769 11.5644C60.6147 10.9137 61.3587 10.2693 62.1091 9.63122C62.144 9.59963 62.1822 9.56805 62.2172 9.53962C62.0677 9.53962 61.9183 9.53962 61.7688 9.53962C62.1345 9.84918 62.5001 10.1619 62.8626 10.4778C63.7084 11.2074 64.5478 11.9466 65.3777 12.6921C66.322 13.5418 67.26 14.4041 68.1662 15.2917C68.9865 16.0972 69.8037 16.9185 70.4364 17.8819C71.3744 19.3128 71.9404 20.9743 72.0517 22.6801C72.0676 22.9043 72.0739 23.1286 72.0739 23.3529C72.0739 23.7603 72.7098 23.7603 72.7098 23.3529C72.7067 21.5681 72.2552 19.7993 71.3935 18.2357C70.7703 17.1048 69.9214 16.1478 69.012 15.2348C68.1217 14.3378 67.1932 13.4786 66.2553 12.6289C65.3808 11.836 64.4969 11.0527 63.6034 10.2788C63.152 9.88708 62.7005 9.48908 62.2394 9.10687C62.2331 9.10055 62.2267 9.09739 62.2203 9.09107C62.0805 8.9742 61.9119 8.9742 61.772 9.09107C61.2124 9.56489 60.6591 10.045 60.1059 10.5252C58.939 11.5423 57.7848 12.5689 56.6529 13.6239C55.6354 14.5715 54.5925 15.5286 53.7117 16.6058C52.3 18.3241 51.4542 20.4405 51.3048 22.6548C51.1776 24.5437 51.5687 26.4516 52.424 28.1415C53.2284 29.7336 54.4462 31.1076 55.9184 32.1216C57.4255 33.1608 59.1965 33.7863 61.0184 33.9536C62.8817 34.1243 64.7704 33.7989 66.4715 33.025C68.1058 32.2827 69.5239 31.1203 70.5986 29.6925C71.6924 28.2395 72.3824 26.5085 72.6177 24.7111C72.6781 24.2595 72.7067 23.8077 72.7067 23.3529C72.7098 22.9454 72.0739 22.9454 72.0739 23.3529Z" fill="black"/>
<path d="M62.3126 33.6944C62.3126 33.4764 62.3126 33.2616 62.3126 33.0437C62.3126 32.453 62.3126 31.8623 62.3126 31.2716C62.3126 30.3966 62.3126 29.5248 62.3126 28.6499C62.3126 27.5822 62.3126 26.5177 62.3126 25.45C62.3126 24.2813 62.3126 23.1126 62.3126 21.9438C62.3126 20.7656 62.3126 19.5842 62.3126 18.406C62.3126 17.3068 62.3126 16.2043 62.3126 15.1051C62.3126 14.1701 62.3126 13.2383 62.3126 12.3033C62.3126 11.6336 62.3126 10.9671 62.3126 10.2975C62.3126 9.98158 62.3189 9.66571 62.3126 9.34667C62.3126 9.33404 62.3126 9.31825 62.3126 9.30561C62.3126 8.89813 61.6767 8.89813 61.6767 9.30561C61.6767 9.52356 61.6767 9.73836 61.6767 9.95631C61.6767 10.547 61.6767 11.1377 61.6767 11.7284C61.6767 12.6034 61.6767 13.4752 61.6767 14.3501C61.6767 15.4178 61.6767 16.4823 61.6767 17.55C61.6767 18.7187 61.6767 19.8874 61.6767 21.0562C61.6767 22.2344 61.6767 23.4158 61.6767 24.594C61.6767 25.6933 61.6767 26.7957 61.6767 27.8949C61.6767 28.8299 61.6767 29.7618 61.6767 30.6968C61.6767 31.3664 61.6767 32.0329 61.6767 32.7026C61.6767 33.0184 61.6703 33.3343 61.6767 33.6533C61.6767 33.6659 61.6767 33.6818 61.6767 33.6944C61.6767 34.1019 62.3126 34.1019 62.3126 33.6944Z" fill="black"/>
<path d="M62.1543 18.4093C62.8061 17.9955 63.4611 17.5848 64.1129 17.171C65.1527 16.514 66.1924 15.857 67.2321 15.2031C67.4706 15.0546 67.7059 14.903 67.9444 14.7546C68.2877 14.5366 67.9698 13.9901 67.6232 14.2081C66.9714 14.6219 66.3164 15.0325 65.6645 15.4463C64.6248 16.1033 63.5851 16.7604 62.5454 17.4142C62.3069 17.5627 62.0716 17.7143 61.8332 17.8628C61.4897 18.0807 61.8077 18.6272 62.1543 18.4093Z" fill="black"/>
<path d="M70.8918 18.0048C69.8712 18.6492 68.8473 19.2936 67.8267 19.9411C66.1987 20.9677 64.5739 21.9943 62.946 23.0209C62.574 23.2546 62.2052 23.4884 61.8332 23.7221C61.4897 23.9401 61.8077 24.4866 62.1543 24.2686C63.175 23.6242 64.1987 22.9798 65.2194 22.3323C66.8474 21.3057 68.4721 20.2791 70.1001 19.2525C70.4721 19.0187 70.841 18.785 71.213 18.5512C71.5563 18.3301 71.2384 17.7837 70.8918 18.0048Z" fill="black"/>
<path d="M62.1543 30.2611C62.4976 30.0431 62.8411 29.8252 63.1877 29.6104C64.0143 29.0892 64.8411 28.568 65.6677 28.0436C66.6725 27.4087 67.6772 26.7738 68.682 26.1389C69.5469 25.5924 70.4117 25.046 71.2766 24.5027C71.6963 24.2373 72.1255 23.9815 72.5357 23.7067C72.5421 23.7035 72.5484 23.7004 72.5548 23.694C72.8981 23.4761 72.5802 22.9296 72.2336 23.1476C71.8902 23.3655 71.5468 23.5835 71.2003 23.7982C70.3735 24.3194 69.5469 24.8406 68.7202 25.365C67.7154 25.9999 66.7106 26.6348 65.7059 27.2697C64.8411 27.8162 63.9762 28.3627 63.1114 28.906C62.6916 29.1713 62.2624 29.4272 61.8522 29.702C61.8459 29.7051 61.8395 29.7083 61.8332 29.7146C61.4897 29.9326 61.8077 30.4791 62.1543 30.2611Z" fill="black"/>
<path d="M127.709 17.8414C127.709 22.6037 135.959 33.4208 136.307 33.8781C136.361 33.9513 136.453 34 136.55 34C136.648 34 136.733 33.9573 136.794 33.8781C137.148 33.4208 145.392 22.6037 145.392 17.8414C145.392 12.9634 141.428 9 136.55 9C131.672 9 127.709 12.9634 127.709 17.8414ZM144.782 17.8414C144.782 21.9573 137.935 31.3354 136.55 33.189C135.166 31.3354 128.319 21.9573 128.319 17.8414C128.319 13.3049 132.014 9.60976 136.55 9.60976C141.087 9.60976 144.782 13.3049 144.782 17.8414Z" fill="black"/>
<path d="M130.758 17.8415C130.758 21.0366 133.355 23.6342 136.55 23.6342C139.746 23.6342 142.343 21.0366 142.343 17.8415C142.343 14.6464 139.746 12.0488 136.55 12.0488C133.355 12.0488 130.758 14.6464 130.758 17.8415ZM141.733 17.8415C141.733 20.7013 139.41 23.0244 136.55 23.0244C133.691 23.0244 131.368 20.7013 131.368 17.8415C131.368 14.9817 133.691 12.6586 136.55 12.6586C139.41 12.6586 141.733 14.9817 141.733 17.8415Z" fill="black"/>
</svg>
