<svg width="157" height="74" viewBox="0 0 157 74" fill="none" xmlns="http://www.w3.org/2000/svg">
<rect width="156.96" height="73.5938" fill="#E29E00"/>
<path d="M54.6015 35.295C54.8715 34.825 55.2715 34.435 55.8015 34.125C56.3415 33.805 56.9665 33.645 57.6765 33.645C58.4065 33.645 59.0665 33.82 59.6565 34.17C60.2565 34.52 60.7265 35.015 61.0665 35.655C61.4065 36.285 61.5765 37.02 61.5765 37.86C61.5765 38.69 61.4065 39.43 61.0665 40.08C60.7265 40.73 60.2565 41.235 59.6565 41.595C59.0665 41.955 58.4065 42.135 57.6765 42.135C56.9765 42.135 56.3565 41.98 55.8165 41.67C55.2865 41.35 54.8815 40.955 54.6015 40.485V45.9H53.2365V33.78H54.6015V35.295ZM60.1815 37.86C60.1815 37.24 60.0565 36.7 59.8065 36.24C59.5565 35.78 59.2165 35.43 58.7865 35.19C58.3665 34.95 57.9015 34.83 57.3915 34.83C56.8915 34.83 56.4265 34.955 55.9965 35.205C55.5765 35.445 55.2365 35.8 54.9765 36.27C54.7265 36.73 54.6015 37.265 54.6015 37.875C54.6015 38.495 54.7265 39.04 54.9765 39.51C55.2365 39.97 55.5765 40.325 55.9965 40.575C56.4265 40.815 56.8915 40.935 57.3915 40.935C57.9015 40.935 58.3665 40.815 58.7865 40.575C59.2165 40.325 59.5565 39.97 59.8065 39.51C60.0565 39.04 60.1815 38.49 60.1815 37.86ZM70.4533 33.78L65.5033 45.87H64.0933L65.7133 41.91L62.3983 33.78H63.9133L66.4933 40.44L69.0433 33.78H70.4533ZM73.4904 34.905V39.75C73.4904 40.15 73.5754 40.435 73.7454 40.605C73.9154 40.765 74.2104 40.845 74.6304 40.845H75.6354V42H74.4054C73.6454 42 73.0754 41.825 72.6954 41.475C72.3154 41.125 72.1254 40.55 72.1254 39.75V34.905H71.0604V33.78H72.1254V31.71H73.4904V33.78H75.6354V34.905H73.4904ZM81.3693 33.63C81.9893 33.63 82.5493 33.765 83.0493 34.035C83.5493 34.295 83.9393 34.69 84.2193 35.22C84.5093 35.75 84.6543 36.395 84.6543 37.155V42H83.3043V37.35C83.3043 36.53 83.0993 35.905 82.6893 35.475C82.2793 35.035 81.7193 34.815 81.0093 34.815C80.2893 34.815 79.7143 35.04 79.2843 35.49C78.8643 35.94 78.6543 36.595 78.6543 37.455V42H77.2893V30.9H78.6543V34.95C78.9243 34.53 79.2943 34.205 79.7643 33.975C80.2443 33.745 80.7793 33.63 81.3693 33.63ZM90.469 42.135C89.699 42.135 88.999 41.96 88.369 41.61C87.749 41.26 87.259 40.765 86.899 40.125C86.549 39.475 86.374 38.725 86.374 37.875C86.374 37.035 86.554 36.295 86.914 35.655C87.284 35.005 87.784 34.51 88.414 34.17C89.044 33.82 89.749 33.645 90.529 33.645C91.309 33.645 92.014 33.82 92.644 34.17C93.274 34.51 93.769 35 94.129 35.64C94.499 36.28 94.684 37.025 94.684 37.875C94.684 38.725 94.494 39.475 94.114 40.125C93.744 40.765 93.239 41.26 92.599 41.61C91.959 41.96 91.249 42.135 90.469 42.135ZM90.469 40.935C90.959 40.935 91.419 40.82 91.849 40.59C92.279 40.36 92.624 40.015 92.884 39.555C93.154 39.095 93.289 38.535 93.289 37.875C93.289 37.215 93.159 36.655 92.899 36.195C92.639 35.735 92.299 35.395 91.879 35.175C91.459 34.945 91.004 34.83 90.514 34.83C90.014 34.83 89.554 34.945 89.134 35.175C88.724 35.395 88.394 35.735 88.144 36.195C87.894 36.655 87.769 37.215 87.769 37.875C87.769 38.545 87.889 39.11 88.129 39.57C88.379 40.03 88.709 40.375 89.119 40.605C89.529 40.825 89.979 40.935 90.469 40.935ZM100.484 33.63C101.484 33.63 102.294 33.935 102.914 34.545C103.534 35.145 103.844 36.015 103.844 37.155V42H102.494V37.35C102.494 36.53 102.289 35.905 101.879 35.475C101.469 35.035 100.909 34.815 100.199 34.815C99.4787 34.815 98.9037 35.04 98.4737 35.49C98.0537 35.94 97.8437 36.595 97.8437 37.455V42H96.4787V33.78H97.8437V34.95C98.1137 34.53 98.4787 34.205 98.9387 33.975C99.4087 33.745 99.9237 33.63 100.484 33.63Z" fill="black"/>
</svg>
