<svg width="305" height="76" viewBox="0 0 305 76" fill="none" xmlns="http://www.w3.org/2000/svg">
<rect x="0.5" y="0.5" width="303.923" height="74.5938" stroke="white"/>
<path d="M22.7519 32.545V43H21.3869V32.545H22.7519ZM30.4424 31.9V43H29.0774V31.9H30.4424ZM36.3538 43.135C35.5838 43.135 34.8838 42.96 34.2538 42.61C33.6338 42.26 33.1438 41.765 32.7838 41.125C32.4338 40.475 32.2588 39.725 32.2588 38.875C32.2588 38.035 32.4388 37.295 32.7988 36.655C33.1688 36.005 33.6688 35.51 34.2988 35.17C34.9288 34.82 35.6338 34.645 36.4138 34.645C37.1938 34.645 37.8988 34.82 38.5288 35.17C39.1588 35.51 39.6538 36 40.0138 36.64C40.3838 37.28 40.5688 38.025 40.5688 38.875C40.5688 39.725 40.3788 40.475 39.9988 41.125C39.6288 41.765 39.1238 42.26 38.4838 42.61C37.8438 42.96 37.1338 43.135 36.3538 43.135ZM36.3538 41.935C36.8438 41.935 37.3038 41.82 37.7338 41.59C38.1638 41.36 38.5088 41.015 38.7688 40.555C39.0388 40.095 39.1738 39.535 39.1738 38.875C39.1738 38.215 39.0438 37.655 38.7838 37.195C38.5238 36.735 38.1838 36.395 37.7638 36.175C37.3438 35.945 36.8888 35.83 36.3988 35.83C35.8988 35.83 35.4388 35.945 35.0188 36.175C34.6088 36.395 34.2788 36.735 34.0288 37.195C33.7788 37.655 33.6538 38.215 33.6538 38.875C33.6538 39.545 33.7738 40.11 34.0138 40.57C34.2638 41.03 34.5938 41.375 35.0038 41.605C35.4138 41.825 35.8638 41.935 36.3538 41.935ZM45.4235 41.74L47.9735 34.78H49.4285L46.2035 43H44.6135L41.3885 34.78H42.8585L45.4235 41.74ZM58.2717 38.575C58.2717 38.835 58.2567 39.11 58.2267 39.4H51.6567C51.7067 40.21 51.9817 40.845 52.4817 41.305C52.9917 41.755 53.6067 41.98 54.3267 41.98C54.9167 41.98 55.4067 41.845 55.7967 41.575C56.1967 41.295 56.4767 40.925 56.6367 40.465H58.1067C57.8867 41.255 57.4467 41.9 56.7867 42.4C56.1267 42.89 55.3067 43.135 54.3267 43.135C53.5467 43.135 52.8467 42.96 52.2267 42.61C51.6167 42.26 51.1367 41.765 50.7867 41.125C50.4367 40.475 50.2617 39.725 50.2617 38.875C50.2617 38.025 50.4317 37.28 50.7717 36.64C51.1117 36 51.5867 35.51 52.1967 35.17C52.8167 34.82 53.5267 34.645 54.3267 34.645C55.1067 34.645 55.7967 34.815 56.3967 35.155C56.9967 35.495 57.4567 35.965 57.7767 36.565C58.1067 37.155 58.2717 37.825 58.2717 38.575ZM56.8617 38.29C56.8617 37.77 56.7467 37.325 56.5167 36.955C56.2867 36.575 55.9717 36.29 55.5717 36.1C55.1817 35.9 54.7467 35.8 54.2667 35.8C53.5767 35.8 52.9867 36.02 52.4967 36.46C52.0167 36.9 51.7417 37.51 51.6717 38.29H56.8617ZM65.4375 36.295C65.7075 35.825 66.1075 35.435 66.6375 35.125C67.1775 34.805 67.8025 34.645 68.5125 34.645C69.2425 34.645 69.9025 34.82 70.4925 35.17C71.0925 35.52 71.5625 36.015 71.9025 36.655C72.2425 37.285 72.4125 38.02 72.4125 38.86C72.4125 39.69 72.2425 40.43 71.9025 41.08C71.5625 41.73 71.0925 42.235 70.4925 42.595C69.9025 42.955 69.2425 43.135 68.5125 43.135C67.8125 43.135 67.1925 42.98 66.6525 42.67C66.1225 42.35 65.7175 41.955 65.4375 41.485V46.9H64.0725V34.78H65.4375V36.295ZM71.0175 38.86C71.0175 38.24 70.8925 37.7 70.6425 37.24C70.3925 36.78 70.0525 36.43 69.6225 36.19C69.2025 35.95 68.7375 35.83 68.2275 35.83C67.7275 35.83 67.2625 35.955 66.8325 36.205C66.4125 36.445 66.0725 36.8 65.8125 37.27C65.5625 37.73 65.4375 38.265 65.4375 38.875C65.4375 39.495 65.5625 40.04 65.8125 40.51C66.0725 40.97 66.4125 41.325 66.8325 41.575C67.2625 41.815 67.7275 41.935 68.2275 41.935C68.7375 41.935 69.2025 41.815 69.6225 41.575C70.0525 41.325 70.3925 40.97 70.6425 40.51C70.8925 40.04 71.0175 39.49 71.0175 38.86ZM81.2892 34.78L76.3392 46.87H74.9292L76.5492 42.91L73.2342 34.78H74.7492L77.3292 41.44L79.8792 34.78H81.2892ZM84.3263 35.905V40.75C84.3263 41.15 84.4113 41.435 84.5813 41.605C84.7513 41.765 85.0463 41.845 85.4663 41.845H86.4713V43H85.2413C84.4813 43 83.9113 42.825 83.5313 42.475C83.1513 42.125 82.9613 41.55 82.9613 40.75V35.905H81.8963V34.78H82.9613V32.71H84.3263V34.78H86.4713V35.905H84.3263ZM92.2052 34.63C92.8252 34.63 93.3852 34.765 93.8852 35.035C94.3852 35.295 94.7752 35.69 95.0552 36.22C95.3452 36.75 95.4902 37.395 95.4902 38.155V43H94.1402V38.35C94.1402 37.53 93.9352 36.905 93.5252 36.475C93.1152 36.035 92.5552 35.815 91.8452 35.815C91.1252 35.815 90.5502 36.04 90.1202 36.49C89.7002 36.94 89.4902 37.595 89.4902 38.455V43H88.1252V31.9H89.4902V35.95C89.7602 35.53 90.1302 35.205 90.6002 34.975C91.0802 34.745 91.6152 34.63 92.2052 34.63ZM101.305 43.135C100.535 43.135 99.8349 42.96 99.2049 42.61C98.5849 42.26 98.0949 41.765 97.7349 41.125C97.3849 40.475 97.2099 39.725 97.2099 38.875C97.2099 38.035 97.3899 37.295 97.7499 36.655C98.1199 36.005 98.6199 35.51 99.2499 35.17C99.8799 34.82 100.585 34.645 101.365 34.645C102.145 34.645 102.85 34.82 103.48 35.17C104.11 35.51 104.605 36 104.965 36.64C105.335 37.28 105.52 38.025 105.52 38.875C105.52 39.725 105.33 40.475 104.95 41.125C104.58 41.765 104.075 42.26 103.435 42.61C102.795 42.96 102.085 43.135 101.305 43.135ZM101.305 41.935C101.795 41.935 102.255 41.82 102.685 41.59C103.115 41.36 103.46 41.015 103.72 40.555C103.99 40.095 104.125 39.535 104.125 38.875C104.125 38.215 103.995 37.655 103.735 37.195C103.475 36.735 103.135 36.395 102.715 36.175C102.295 35.945 101.84 35.83 101.35 35.83C100.85 35.83 100.39 35.945 99.9699 36.175C99.5599 36.395 99.2299 36.735 98.9799 37.195C98.7299 37.655 98.6049 38.215 98.6049 38.875C98.6049 39.545 98.7249 40.11 98.9649 40.57C99.2149 41.03 99.5449 41.375 99.9549 41.605C100.365 41.825 100.815 41.935 101.305 41.935ZM111.32 34.63C112.32 34.63 113.13 34.935 113.75 35.545C114.37 36.145 114.68 37.015 114.68 38.155V43H113.33V38.35C113.33 37.53 113.125 36.905 112.715 36.475C112.305 36.035 111.745 35.815 111.035 35.815C110.315 35.815 109.74 36.04 109.31 36.49C108.89 36.94 108.68 37.595 108.68 38.455V43H107.315V34.78H108.68V35.95C108.95 35.53 109.315 35.205 109.775 34.975C110.245 34.745 110.76 34.63 111.32 34.63ZM118.679 32.545L118.514 40.045H117.374L117.209 32.545H118.679ZM118.004 43.09C117.744 43.09 117.524 43 117.344 42.82C117.164 42.64 117.074 42.42 117.074 42.16C117.074 41.9 117.164 41.68 117.344 41.5C117.524 41.32 117.744 41.23 118.004 41.23C118.254 41.23 118.464 41.32 118.634 41.5C118.814 41.68 118.904 41.9 118.904 42.16C118.904 42.42 118.814 42.64 118.634 42.82C118.464 43 118.254 43.09 118.004 43.09ZM126.741 36.31C127.021 35.82 127.431 35.42 127.971 35.11C128.511 34.8 129.126 34.645 129.816 34.645C130.556 34.645 131.221 34.82 131.811 35.17C132.401 35.52 132.866 36.015 133.206 36.655C133.546 37.285 133.716 38.02 133.716 38.86C133.716 39.69 133.546 40.43 133.206 41.08C132.866 41.73 132.396 42.235 131.796 42.595C131.206 42.955 130.546 43.135 129.816 43.135C129.106 43.135 128.481 42.98 127.941 42.67C127.411 42.36 127.011 41.965 126.741 41.485V43H125.376V31.9H126.741V36.31ZM132.321 38.86C132.321 38.24 132.196 37.7 131.946 37.24C131.696 36.78 131.356 36.43 130.926 36.19C130.506 35.95 130.041 35.83 129.531 35.83C129.031 35.83 128.566 35.955 128.136 36.205C127.716 36.445 127.376 36.8 127.116 37.27C126.866 37.73 126.741 38.265 126.741 38.875C126.741 39.495 126.866 40.04 127.116 40.51C127.376 40.97 127.716 41.325 128.136 41.575C128.566 41.815 129.031 41.935 129.531 41.935C130.041 41.935 130.506 41.815 130.926 41.575C131.356 41.325 131.696 40.97 131.946 40.51C132.196 40.04 132.321 39.49 132.321 38.86ZM143.013 38.575C143.013 38.835 142.998 39.11 142.968 39.4H136.398C136.448 40.21 136.723 40.845 137.223 41.305C137.733 41.755 138.348 41.98 139.068 41.98C139.658 41.98 140.148 41.845 140.538 41.575C140.938 41.295 141.218 40.925 141.378 40.465H142.848C142.628 41.255 142.188 41.9 141.528 42.4C140.868 42.89 140.048 43.135 139.068 43.135C138.288 43.135 137.588 42.96 136.968 42.61C136.358 42.26 135.878 41.765 135.528 41.125C135.178 40.475 135.003 39.725 135.003 38.875C135.003 38.025 135.173 37.28 135.513 36.64C135.853 36 136.328 35.51 136.938 35.17C137.558 34.82 138.268 34.645 139.068 34.645C139.848 34.645 140.538 34.815 141.138 35.155C141.738 35.495 142.198 35.965 142.518 36.565C142.848 37.155 143.013 37.825 143.013 38.575ZM141.603 38.29C141.603 37.77 141.488 37.325 141.258 36.955C141.028 36.575 140.713 36.29 140.313 36.1C139.923 35.9 139.488 35.8 139.008 35.8C138.318 35.8 137.728 36.02 137.238 36.46C136.758 36.9 136.483 37.51 136.413 38.29H141.603ZM144.305 38.875C144.305 38.025 144.475 37.285 144.815 36.655C145.155 36.015 145.625 35.52 146.225 35.17C146.835 34.82 147.53 34.645 148.31 34.645C149.32 34.645 150.15 34.89 150.8 35.38C151.46 35.87 151.895 36.55 152.105 37.42H150.635C150.495 36.92 150.22 36.525 149.81 36.235C149.41 35.945 148.91 35.8 148.31 35.8C147.53 35.8 146.9 36.07 146.42 36.61C145.94 37.14 145.7 37.895 145.7 38.875C145.7 39.865 145.94 40.63 146.42 41.17C146.9 41.71 147.53 41.98 148.31 41.98C148.91 41.98 149.41 41.84 149.81 41.56C150.21 41.28 150.485 40.88 150.635 40.36H152.105C151.885 41.2 151.445 41.875 150.785 42.385C150.125 42.885 149.3 43.135 148.31 43.135C147.53 43.135 146.835 42.96 146.225 42.61C145.625 42.26 145.155 41.765 144.815 41.125C144.475 40.485 144.305 39.735 144.305 38.875ZM157.511 43.135C156.741 43.135 156.041 42.96 155.411 42.61C154.791 42.26 154.301 41.765 153.941 41.125C153.591 40.475 153.416 39.725 153.416 38.875C153.416 38.035 153.596 37.295 153.956 36.655C154.326 36.005 154.826 35.51 155.456 35.17C156.086 34.82 156.791 34.645 157.571 34.645C158.351 34.645 159.056 34.82 159.686 35.17C160.316 35.51 160.811 36 161.171 36.64C161.541 37.28 161.726 38.025 161.726 38.875C161.726 39.725 161.536 40.475 161.156 41.125C160.786 41.765 160.281 42.26 159.641 42.61C159.001 42.96 158.291 43.135 157.511 43.135ZM157.511 41.935C158.001 41.935 158.461 41.82 158.891 41.59C159.321 41.36 159.666 41.015 159.926 40.555C160.196 40.095 160.331 39.535 160.331 38.875C160.331 38.215 160.201 37.655 159.941 37.195C159.681 36.735 159.341 36.395 158.921 36.175C158.501 35.945 158.046 35.83 157.556 35.83C157.056 35.83 156.596 35.945 156.176 36.175C155.766 36.395 155.436 36.735 155.186 37.195C154.936 37.655 154.811 38.215 154.811 38.875C154.811 39.545 154.931 40.11 155.171 40.57C155.421 41.03 155.751 41.375 156.161 41.605C156.571 41.825 157.021 41.935 157.511 41.935ZM170.811 34.78V43H169.446V41.785C169.186 42.205 168.821 42.535 168.351 42.775C167.891 43.005 167.381 43.12 166.821 43.12C166.181 43.12 165.606 42.99 165.096 42.73C164.586 42.46 164.181 42.06 163.881 41.53C163.591 41 163.446 40.355 163.446 39.595V34.78H164.796V39.415C164.796 40.225 165.001 40.85 165.411 41.29C165.821 41.72 166.381 41.935 167.091 41.935C167.821 41.935 168.396 41.71 168.816 41.26C169.236 40.81 169.446 40.155 169.446 39.295V34.78H170.811ZM176.025 43.135C175.395 43.135 174.83 43.03 174.33 42.82C173.83 42.6 173.435 42.3 173.145 41.92C172.855 41.53 172.695 41.085 172.665 40.585H174.075C174.115 40.995 174.305 41.33 174.645 41.59C174.995 41.85 175.45 41.98 176.01 41.98C176.53 41.98 176.94 41.865 177.24 41.635C177.54 41.405 177.69 41.115 177.69 40.765C177.69 40.405 177.53 40.14 177.21 39.97C176.89 39.79 176.395 39.615 175.725 39.445C175.115 39.285 174.615 39.125 174.225 38.965C173.845 38.795 173.515 38.55 173.235 38.23C172.965 37.9 172.83 37.47 172.83 36.94C172.83 36.52 172.955 36.135 173.205 35.785C173.455 35.435 173.81 35.16 174.27 34.96C174.73 34.75 175.255 34.645 175.845 34.645C176.755 34.645 177.49 34.875 178.05 35.335C178.61 35.795 178.91 36.425 178.95 37.225H177.585C177.555 36.795 177.38 36.45 177.06 36.19C176.75 35.93 176.33 35.8 175.8 35.8C175.31 35.8 174.92 35.905 174.63 36.115C174.34 36.325 174.195 36.6 174.195 36.94C174.195 37.21 174.28 37.435 174.45 37.615C174.63 37.785 174.85 37.925 175.11 38.035C175.38 38.135 175.75 38.25 176.22 38.38C176.81 38.54 177.29 38.7 177.66 38.86C178.03 39.01 178.345 39.24 178.605 39.55C178.875 39.86 179.015 40.265 179.025 40.765C179.025 41.215 178.9 41.62 178.65 41.98C178.4 42.34 178.045 42.625 177.585 42.835C177.135 43.035 176.615 43.135 176.025 43.135ZM188.452 38.575C188.452 38.835 188.437 39.11 188.407 39.4H181.837C181.887 40.21 182.162 40.845 182.662 41.305C183.172 41.755 183.787 41.98 184.507 41.98C185.097 41.98 185.587 41.845 185.977 41.575C186.377 41.295 186.657 40.925 186.817 40.465H188.287C188.067 41.255 187.627 41.9 186.967 42.4C186.307 42.89 185.487 43.135 184.507 43.135C183.727 43.135 183.027 42.96 182.407 42.61C181.797 42.26 181.317 41.765 180.967 41.125C180.617 40.475 180.442 39.725 180.442 38.875C180.442 38.025 180.612 37.28 180.952 36.64C181.292 36 181.767 35.51 182.377 35.17C182.997 34.82 183.707 34.645 184.507 34.645C185.287 34.645 185.977 34.815 186.577 35.155C187.177 35.495 187.637 35.965 187.957 36.565C188.287 37.155 188.452 37.825 188.452 38.575ZM187.042 38.29C187.042 37.77 186.927 37.325 186.697 36.955C186.467 36.575 186.152 36.29 185.752 36.1C185.362 35.9 184.927 35.8 184.447 35.8C183.757 35.8 183.167 36.02 182.677 36.46C182.197 36.9 181.922 37.51 181.852 38.29H187.042ZM194.958 33.445C194.698 33.445 194.478 33.355 194.298 33.175C194.118 32.995 194.028 32.775 194.028 32.515C194.028 32.255 194.118 32.035 194.298 31.855C194.478 31.675 194.698 31.585 194.958 31.585C195.208 31.585 195.418 31.675 195.588 31.855C195.768 32.035 195.858 32.255 195.858 32.515C195.858 32.775 195.768 32.995 195.588 33.175C195.418 33.355 195.208 33.445 194.958 33.445ZM195.618 34.78V43H194.253V34.78H195.618ZM203.309 31.9V43H201.944V31.9H203.309ZM206.34 33.445C206.08 33.445 205.86 33.355 205.68 33.175C205.5 32.995 205.41 32.775 205.41 32.515C205.41 32.255 205.5 32.035 205.68 31.855C205.86 31.675 206.08 31.585 206.34 31.585C206.59 31.585 206.8 31.675 206.97 31.855C207.15 32.035 207.24 32.255 207.24 32.515C207.24 32.775 207.15 32.995 206.97 33.175C206.8 33.355 206.59 33.445 206.34 33.445ZM207 34.78V43H205.635V34.78H207ZM213.916 43L210.691 39.37V43H209.326V31.9H210.691V38.425L213.856 34.78H215.761L211.891 38.875L215.776 43H213.916ZM224.546 38.575C224.546 38.835 224.531 39.11 224.501 39.4H217.931C217.981 40.21 218.256 40.845 218.756 41.305C219.266 41.755 219.881 41.98 220.601 41.98C221.191 41.98 221.681 41.845 222.071 41.575C222.471 41.295 222.751 40.925 222.911 40.465H224.381C224.161 41.255 223.721 41.9 223.061 42.4C222.401 42.89 221.581 43.135 220.601 43.135C219.821 43.135 219.121 42.96 218.501 42.61C217.891 42.26 217.411 41.765 217.061 41.125C216.711 40.475 216.536 39.725 216.536 38.875C216.536 38.025 216.706 37.28 217.046 36.64C217.386 36 217.861 35.51 218.471 35.17C219.091 34.82 219.801 34.645 220.601 34.645C221.381 34.645 222.071 34.815 222.671 35.155C223.271 35.495 223.731 35.965 224.051 36.565C224.381 37.155 224.546 37.825 224.546 38.575ZM223.136 38.29C223.136 37.77 223.021 37.325 222.791 36.955C222.561 36.575 222.246 36.29 221.846 36.1C221.456 35.9 221.021 35.8 220.541 35.8C219.851 35.8 219.261 36.02 218.771 36.46C218.291 36.9 218.016 37.51 217.946 38.29H223.136ZM233.257 43.135C232.627 43.135 232.062 43.03 231.562 42.82C231.062 42.6 230.667 42.3 230.377 41.92C230.087 41.53 229.927 41.085 229.897 40.585H231.307C231.347 40.995 231.537 41.33 231.877 41.59C232.227 41.85 232.682 41.98 233.242 41.98C233.762 41.98 234.172 41.865 234.472 41.635C234.772 41.405 234.922 41.115 234.922 40.765C234.922 40.405 234.762 40.14 234.442 39.97C234.122 39.79 233.627 39.615 232.957 39.445C232.347 39.285 231.847 39.125 231.457 38.965C231.077 38.795 230.747 38.55 230.467 38.23C230.197 37.9 230.062 37.47 230.062 36.94C230.062 36.52 230.187 36.135 230.437 35.785C230.687 35.435 231.042 35.16 231.502 34.96C231.962 34.75 232.487 34.645 233.077 34.645C233.987 34.645 234.722 34.875 235.282 35.335C235.842 35.795 236.142 36.425 236.182 37.225H234.817C234.787 36.795 234.612 36.45 234.292 36.19C233.982 35.93 233.562 35.8 233.032 35.8C232.542 35.8 232.152 35.905 231.862 36.115C231.572 36.325 231.427 36.6 231.427 36.94C231.427 37.21 231.512 37.435 231.682 37.615C231.862 37.785 232.082 37.925 232.342 38.035C232.612 38.135 232.982 38.25 233.452 38.38C234.042 38.54 234.522 38.7 234.892 38.86C235.262 39.01 235.577 39.24 235.837 39.55C236.107 39.86 236.247 40.265 236.257 40.765C236.257 41.215 236.132 41.62 235.882 41.98C235.632 42.34 235.277 42.625 234.817 42.835C234.367 43.035 233.847 43.135 233.257 43.135ZM242.189 34.63C243.189 34.63 243.999 34.935 244.619 35.545C245.239 36.145 245.549 37.015 245.549 38.155V43H244.199V38.35C244.199 37.53 243.994 36.905 243.584 36.475C243.174 36.035 242.614 35.815 241.904 35.815C241.184 35.815 240.609 36.04 240.179 36.49C239.759 36.94 239.549 37.595 239.549 38.455V43H238.184V34.78H239.549V35.95C239.819 35.53 240.184 35.205 240.644 34.975C241.114 34.745 241.629 34.63 242.189 34.63ZM247.269 38.86C247.269 38.02 247.439 37.285 247.779 36.655C248.119 36.015 248.584 35.52 249.174 35.17C249.774 34.82 250.439 34.645 251.169 34.645C251.889 34.645 252.514 34.8 253.044 35.11C253.574 35.42 253.969 35.81 254.229 36.28V34.78H255.609V43H254.229V41.47C253.959 41.95 253.554 42.35 253.014 42.67C252.484 42.98 251.864 43.135 251.154 43.135C250.424 43.135 249.764 42.955 249.174 42.595C248.584 42.235 248.119 41.73 247.779 41.08C247.439 40.43 247.269 39.69 247.269 38.86ZM254.229 38.875C254.229 38.255 254.104 37.715 253.854 37.255C253.604 36.795 253.264 36.445 252.834 36.205C252.414 35.955 251.949 35.83 251.439 35.83C250.929 35.83 250.464 35.95 250.044 36.19C249.624 36.43 249.289 36.78 249.039 37.24C248.789 37.7 248.664 38.24 248.664 38.86C248.664 39.49 248.789 40.04 249.039 40.51C249.289 40.97 249.624 41.325 250.044 41.575C250.464 41.815 250.929 41.935 251.439 41.935C251.949 41.935 252.414 41.815 252.834 41.575C253.264 41.325 253.604 40.97 253.854 40.51C254.104 40.04 254.229 39.495 254.229 38.875ZM262.505 43L259.28 39.37V43H257.915V31.9H259.28V38.425L262.445 34.78H264.35L260.48 38.875L264.365 43H262.505ZM273.135 38.575C273.135 38.835 273.12 39.11 273.09 39.4H266.52C266.57 40.21 266.845 40.845 267.345 41.305C267.855 41.755 268.47 41.98 269.19 41.98C269.78 41.98 270.27 41.845 270.66 41.575C271.06 41.295 271.34 40.925 271.5 40.465H272.97C272.75 41.255 272.31 41.9 271.65 42.4C270.99 42.89 270.17 43.135 269.19 43.135C268.41 43.135 267.71 42.96 267.09 42.61C266.48 42.26 266 41.765 265.65 41.125C265.3 40.475 265.125 39.725 265.125 38.875C265.125 38.025 265.295 37.28 265.635 36.64C265.975 36 266.45 35.51 267.06 35.17C267.68 34.82 268.39 34.645 269.19 34.645C269.97 34.645 270.66 34.815 271.26 35.155C271.86 35.495 272.32 35.965 272.64 36.565C272.97 37.155 273.135 37.825 273.135 38.575ZM271.725 38.29C271.725 37.77 271.61 37.325 271.38 36.955C271.15 36.575 270.835 36.29 270.435 36.1C270.045 35.9 269.61 35.8 269.13 35.8C268.44 35.8 267.85 36.02 267.36 36.46C266.88 36.9 266.605 37.51 266.535 38.29H271.725ZM277.847 43.135C277.217 43.135 276.652 43.03 276.152 42.82C275.652 42.6 275.257 42.3 274.967 41.92C274.677 41.53 274.517 41.085 274.487 40.585H275.897C275.937 40.995 276.127 41.33 276.467 41.59C276.817 41.85 277.272 41.98 277.832 41.98C278.352 41.98 278.762 41.865 279.062 41.635C279.362 41.405 279.512 41.115 279.512 40.765C279.512 40.405 279.352 40.14 279.032 39.97C278.712 39.79 278.217 39.615 277.547 39.445C276.937 39.285 276.437 39.125 276.047 38.965C275.667 38.795 275.337 38.55 275.057 38.23C274.787 37.9 274.652 37.47 274.652 36.94C274.652 36.52 274.777 36.135 275.027 35.785C275.277 35.435 275.632 35.16 276.092 34.96C276.552 34.75 277.077 34.645 277.667 34.645C278.577 34.645 279.312 34.875 279.872 35.335C280.432 35.795 280.732 36.425 280.772 37.225H279.407C279.377 36.795 279.202 36.45 278.882 36.19C278.572 35.93 278.152 35.8 277.622 35.8C277.132 35.8 276.742 35.905 276.452 36.115C276.162 36.325 276.017 36.6 276.017 36.94C276.017 37.21 276.102 37.435 276.272 37.615C276.452 37.785 276.672 37.925 276.932 38.035C277.202 38.135 277.572 38.25 278.042 38.38C278.632 38.54 279.112 38.7 279.482 38.86C279.852 39.01 280.167 39.24 280.427 39.55C280.697 39.86 280.837 40.265 280.847 40.765C280.847 41.215 280.722 41.62 280.472 41.98C280.222 42.34 279.867 42.625 279.407 42.835C278.957 43.035 278.437 43.135 277.847 43.135ZM283.209 43.09C282.949 43.09 282.729 43 282.549 42.82C282.369 42.64 282.279 42.42 282.279 42.16C282.279 41.9 282.369 41.68 282.549 41.5C282.729 41.32 282.949 41.23 283.209 41.23C283.459 41.23 283.669 41.32 283.839 41.5C284.019 41.68 284.109 41.9 284.109 42.16C284.109 42.42 284.019 42.64 283.839 42.82C283.669 43 283.459 43.09 283.209 43.09Z" fill="#C4C4C4"/>
</svg>
