<svg width="200" height="200" viewBox="0 0 306 306" fill="none" xmlns="http://www.w3.org/2000/svg">
<path d="M155.247 153.106C155.247 140.41 154.093 127.839 151.851 116.11C149.61 104.38 146.324 93.7229 142.181 84.7457C138.038 75.7685 133.121 68.6474 127.708 63.789C122.296 58.9306 116.495 56.43 110.636 56.43C104.778 56.43 98.9769 58.9306 93.5645 63.789C88.152 68.6474 83.2341 75.7685 79.0916 84.7457C74.9491 93.7229 71.6631 104.38 69.4212 116.11C67.1793 127.839 66.0254 140.41 66.0254 153.106L74.9476 153.106C74.9476 142.949 75.8707 132.892 77.6642 123.509C79.4577 114.125 82.0866 105.599 85.4006 98.4177C88.7146 91.236 92.6489 85.5391 96.9788 81.6524C101.309 77.7656 105.95 75.7652 110.636 75.7652C115.323 75.7652 119.964 77.7656 124.294 81.6524C128.624 85.5391 132.558 91.236 135.872 98.4177C139.186 105.599 141.815 114.125 143.608 123.509C145.402 132.892 146.325 142.949 146.325 153.106L155.247 153.106Z" fill="white"/>
<path d="M151.378 153.028C151.378 165.733 152.529 178.315 154.766 190.054C157.002 201.792 160.281 212.458 164.414 221.443C168.547 230.427 173.453 237.554 178.853 242.416C184.253 247.278 190.04 249.781 195.885 249.781C201.73 249.781 207.518 247.278 212.917 242.416C218.317 237.554 223.224 230.427 227.357 221.443C231.49 212.458 234.768 201.792 237.005 190.053C239.241 178.315 240.393 165.733 240.393 153.027L231.491 153.027C231.491 163.192 230.57 173.257 228.781 182.648C226.991 192.039 224.369 200.572 221.062 207.76C217.756 214.947 213.831 220.649 209.511 224.538C205.191 228.428 200.561 230.43 195.885 230.43C191.209 230.43 186.579 228.428 182.259 224.538C177.939 220.649 174.014 214.947 170.708 207.76C167.402 200.572 164.779 192.039 162.99 182.648C161.2 173.257 160.279 163.192 160.279 153.028L151.378 153.028Z" fill="white"/>
<ellipse rx="15.5678" ry="20.7011" transform="matrix(-2.52825e-08 1 1 2.52825e-08 152.971 152.951)" fill="white"/>
<ellipse rx="15.5678" ry="20.7011" transform="matrix(-2.52825e-08 1 1 2.52825e-08 66.0253 153.262)" fill="#E29E00"/>
<ellipse rx="15.5678" ry="20.7011" transform="matrix(-2.52825e-08 1 1 2.52825e-08 239.916 152.952)" fill="#00AF91"/>
<path d="M152.895 155.328C165.465 155.328 177.911 154.162 189.523 151.898C201.136 149.633 211.687 146.314 220.575 142.13C229.463 137.946 236.513 132.979 241.323 127.512C246.133 122.045 248.609 116.186 248.609 110.269C248.609 104.351 246.133 98.4919 241.323 93.0251C236.513 87.5582 229.463 82.5909 220.575 78.4068C211.687 74.2227 201.136 70.9036 189.523 68.6392C177.911 66.3747 165.465 65.2092 152.895 65.2092L152.895 74.2211C162.951 74.2211 172.908 75.1535 182.198 76.965C191.488 78.7766 199.929 81.4318 207.039 84.7791C214.149 88.1265 219.79 92.1003 223.638 96.4738C227.486 100.847 229.466 105.535 229.466 110.269C229.466 115.002 227.486 119.69 223.638 124.063C219.79 128.437 214.149 132.411 207.039 135.758C199.929 139.105 191.488 141.76 182.198 143.572C172.908 145.384 162.951 146.316 152.895 146.316L152.895 155.328Z" fill="white"/>
<path d="M152.973 151.419C140.393 151.419 127.937 152.582 116.315 154.841C104.693 157.1 94.1336 160.412 85.2386 164.586C76.3436 168.76 69.2877 173.716 64.4738 179.17C59.6598 184.625 57.1821 190.47 57.1821 196.374C57.1821 202.277 59.6598 208.123 64.4737 213.577C69.2877 219.031 76.3436 223.987 85.2386 228.162C94.1336 232.336 104.693 235.647 116.315 237.907C127.937 240.166 140.393 241.329 152.973 241.329L152.973 232.338C142.909 232.338 132.944 231.407 123.647 229.6C114.349 227.793 105.901 225.144 98.7854 221.804C91.6695 218.465 86.0247 214.5 82.1736 210.137C78.3224 205.773 76.3403 201.097 76.3403 196.374C76.3403 191.651 78.3224 186.974 82.1736 182.611C86.0247 178.248 91.6694 174.283 98.7854 170.944C105.901 167.604 114.349 164.955 123.647 163.148C132.944 161.34 142.909 160.41 152.973 160.41L152.973 151.419Z" fill="white"/>
<ellipse rx="22.4947" ry="26.1699" transform="matrix(-1 -2.52825e-08 -2.52825e-08 1 155.24 153.023)" fill="white"/>
<ellipse rx="15.4128" ry="20.9092" transform="matrix(-1 -2.52825e-08 -2.52825e-08 1 152.74 65.2078)" fill="#E29E00"/>
<ellipse rx="15.4128" ry="20.9092" transform="matrix(-1 -2.52825e-08 -2.52825e-08 1 153.046 240.845)" fill="#00AF91"/>
<path d="M151.443 151.333C142.466 160.311 134.393 170.016 127.684 179.895C120.976 189.774 115.763 199.634 112.345 208.911C108.926 218.188 107.368 226.7 107.76 233.963C108.152 241.226 110.485 247.096 114.628 251.238C118.77 255.381 124.64 257.714 131.903 258.106C139.166 258.498 147.678 256.94 156.955 253.521C166.232 250.103 176.092 244.89 185.971 238.182C195.85 231.473 205.555 223.4 214.533 214.423L208.224 208.114C201.042 215.296 193.278 221.754 185.374 227.121C177.471 232.488 169.584 236.658 162.162 239.393C154.74 242.128 147.93 243.374 142.12 243.061C136.31 242.747 131.614 240.88 128.3 237.566C124.986 234.252 123.119 229.556 122.805 223.746C122.492 217.936 123.738 211.126 126.473 203.704C129.208 196.282 133.378 188.395 138.745 180.492C144.112 172.588 150.57 164.824 157.752 157.642L151.443 151.333Z" fill="white"/>
<path d="M154.126 154.125C163.11 145.141 171.192 135.43 177.911 125.548C184.63 115.666 189.854 105.806 193.285 96.5307C196.715 87.2554 198.285 78.7466 197.905 71.4901C197.525 64.2336 195.202 58.3716 191.069 54.2387C186.936 50.1058 181.074 47.783 173.818 47.4029C166.561 47.0227 158.053 48.5928 148.777 52.0233C139.502 55.4539 129.642 60.6777 119.76 67.3966C109.878 74.1155 100.167 82.1979 91.1827 91.1823L97.477 97.4766C104.664 90.2891 112.433 83.8232 120.339 78.448C128.244 73.0729 136.132 68.8938 143.553 66.1494C150.973 63.405 157.78 62.149 163.585 62.4531C169.39 62.7571 174.08 64.6154 177.386 67.9217C180.693 71.228 182.551 75.9177 182.855 81.7228C183.159 87.528 181.903 94.3351 179.159 101.755C176.414 109.176 172.235 117.064 166.86 124.969C161.485 132.875 155.019 140.643 147.831 147.831L154.126 154.125Z" fill="white"/>
<ellipse rx="15.5678" ry="20.7011" transform="matrix(0.707106 -0.707106 -0.707106 -0.707106 152.946 153.055)" fill="white"/>
<ellipse rx="15.5678" ry="20.7011" transform="matrix(0.707106 -0.707106 -0.707106 -0.707106 214.648 214.314)" fill="#E29E00"/>
<ellipse rx="15.5678" ry="20.7011" transform="matrix(0.707106 -0.707106 -0.707106 -0.707106 91.4639 91.5755)" fill="#00AF91"/>
<path d="M154.68 151.431C145.793 142.543 136.168 134.566 126.355 127.956C116.543 121.346 106.735 116.232 97.4914 112.906C88.2482 109.58 79.7505 108.107 72.4836 108.572C65.2167 109.036 59.323 111.429 55.1388 115.613C50.9547 119.797 48.5621 125.691 48.0977 132.957C47.6333 140.224 49.1061 148.722 52.4322 157.965C55.7582 167.209 60.8722 177.016 67.4823 186.829C74.0924 196.641 82.0691 206.266 90.9569 215.154L97.3293 208.782C90.219 201.672 83.8377 193.972 78.5496 186.122C73.2615 178.272 69.1703 170.425 66.5095 163.031C63.8486 155.636 62.6704 148.838 63.0419 143.024C63.4134 137.211 65.3275 132.496 68.6748 129.149C72.0221 125.801 76.7371 123.887 82.5506 123.516C88.3641 123.144 95.1623 124.322 102.557 126.983C109.952 129.644 117.798 133.735 125.648 139.023C133.498 144.311 141.198 150.693 148.308 157.803L154.68 151.431Z" fill="white"/>
<path d="M151.866 154.139C160.761 163.034 170.391 171.02 180.206 177.641C190.022 184.261 199.83 189.387 209.072 192.724C218.313 196.062 226.807 197.547 234.067 197.095C241.328 196.642 247.213 194.26 251.388 190.086C255.562 185.912 257.944 180.026 258.397 172.765C258.849 165.505 257.364 157.011 254.026 147.77C250.688 138.528 245.563 128.72 238.942 118.904C232.322 109.089 224.336 99.4589 215.441 90.5639L209.084 96.9214C216.2 104.037 222.588 111.742 227.885 119.594C233.181 127.446 237.281 135.293 239.952 142.686C242.622 150.079 243.81 156.874 243.448 162.683C243.086 168.491 241.181 173.2 237.841 176.539C234.501 179.879 229.793 181.784 223.984 182.146C218.176 182.508 211.381 181.32 203.988 178.65C196.595 175.98 188.748 171.879 180.896 166.583C173.043 161.286 165.339 154.898 158.223 147.782L151.866 154.139Z" fill="white"/>
<ellipse rx="22.4947" ry="26.1699" transform="matrix(0.707106 0.707106 0.707106 -0.707106 151.395 151.399)" fill="white"/>
<ellipse rx="15.4128" ry="20.9092" transform="matrix(0.707106 0.707106 0.707106 -0.707106 91.0683 215.262)" fill="#E29E00"/>
<ellipse rx="15.4128" ry="20.9092" transform="matrix(0.707106 0.707106 0.707106 -0.707106 215.043 90.8498)" fill="#00AF91"/>
</svg>
