<svg width="153" height="152" viewBox="0 0 153 152" fill="none" xmlns="http://www.w3.org/2000/svg">
<path d="M78.1165 76.0522C78.1165 69.7458 77.5434 63.5012 76.4297 57.6748C75.3161 51.8485 73.6838 46.5546 71.6261 42.0953C69.5683 37.636 67.1255 34.0987 64.4369 31.6854C61.7484 29.272 58.8668 28.0299 55.9567 28.0299C53.0466 28.0299 50.1651 29.272 47.4765 31.6854C44.788 34.0987 42.3451 37.636 40.2873 42.0953C38.2296 46.5546 36.5973 51.8485 35.4837 57.6749C34.3701 63.5012 33.7969 69.7458 33.7969 76.0522L38.2288 76.0522C38.2288 71.0071 38.6874 66.0114 39.5783 61.3503C40.4692 56.6893 41.775 52.4541 43.4212 48.8867C45.0674 45.3193 47.0217 42.4894 49.1725 40.5587C51.3234 38.6281 53.6286 37.6344 55.9567 37.6344C58.2848 37.6344 60.59 38.6281 62.7409 40.5587C64.8917 42.4894 66.846 45.3192 68.4922 48.8867C70.1384 52.4541 71.4442 56.6892 72.3351 61.3503C73.226 66.0114 73.6846 71.0071 73.6846 76.0522L78.1165 76.0522Z" fill="white"/>
<path d="M76.1953 76.0133C76.1953 82.3248 76.7671 88.5744 77.8782 94.4055C78.9892 100.236 80.6177 105.535 82.6707 109.998C84.7236 114.46 87.1609 118.001 89.8432 120.416C92.5255 122.831 95.4004 124.074 98.3037 124.074C101.207 124.074 104.082 122.831 106.764 120.416C109.447 118.001 111.884 114.46 113.937 109.998C115.99 105.535 117.618 100.236 118.729 94.4055C119.84 88.5744 120.412 82.3248 120.412 76.0133L115.99 76.0133C115.99 81.0625 115.533 86.0622 114.644 90.727C113.755 95.3919 112.452 99.6304 110.81 103.201C109.168 106.771 107.218 109.603 105.072 111.535C102.926 113.468 100.626 114.462 98.3037 114.462C95.981 114.462 93.6811 113.468 91.5353 111.535C89.3894 109.603 87.4397 106.771 85.7973 103.201C84.1549 99.6304 82.8521 95.3919 81.9633 90.727C81.0744 86.0622 80.617 81.0625 80.617 76.0133L76.1953 76.0133Z" fill="white"/>
<ellipse rx="7.73306" ry="10.283" transform="matrix(-2.52825e-08 1 1 2.52825e-08 76.9861 75.9752)" fill="white"/>
<ellipse rx="7.73306" ry="10.283" transform="matrix(-2.52825e-08 1 1 2.52825e-08 33.7967 76.1298)" fill="#2603FF"/>
<ellipse rx="7.73306" ry="10.283" transform="matrix(-2.52825e-08 1 1 2.52825e-08 120.174 75.9755)" fill="#FF265A"/>
<path d="M76.9468 77.156C83.1904 77.156 89.3729 76.577 95.1412 75.4522C100.91 74.3274 106.151 72.6787 110.566 70.6003C114.981 68.5219 118.483 66.0544 120.872 63.3389C123.261 60.6233 124.491 57.7128 124.491 54.7734C124.491 51.8341 123.261 48.9236 120.872 46.208C118.483 43.4924 114.981 41.025 110.566 38.9466C106.151 36.8682 100.91 35.2195 95.1412 34.0946C89.3729 32.9698 83.1904 32.3909 76.9467 32.3909L76.9467 36.8674C81.9416 36.8674 86.8876 37.3305 91.5023 38.2304C96.117 39.1303 100.31 40.4492 103.842 42.1119C107.374 43.7747 110.176 45.7486 112.087 47.9211C113.998 50.0935 114.982 52.422 114.982 54.7734C114.982 57.1249 113.998 59.4533 112.087 61.6258C110.176 63.7982 107.374 65.7722 103.842 67.4349C100.31 69.0976 96.117 70.4166 91.5023 71.3165C86.8876 72.2163 81.9416 72.6795 76.9468 72.6795L76.9468 77.156Z" fill="white"/>
<path d="M76.9837 75.2145C70.7351 75.2145 64.5476 75.7921 58.7746 76.9143C53.0016 78.0365 47.7561 79.6814 43.3377 81.755C38.9192 83.8286 35.4143 86.2903 33.023 88.9995C30.6318 91.7088 29.401 94.6126 29.401 97.5451C29.401 100.478 30.6318 103.381 33.023 106.091C35.4143 108.8 38.9192 111.262 43.3377 113.335C47.7561 115.409 53.0016 117.054 58.7746 118.176C64.5476 119.298 70.7351 119.876 76.9837 119.876L76.9837 115.41C71.9848 115.41 67.0348 114.948 62.4164 114.05C57.798 113.152 53.6016 111.836 50.0669 110.177C46.5321 108.518 43.7282 106.549 41.8152 104.382C39.9022 102.214 38.9176 99.8911 38.9176 97.5451C38.9176 95.1991 39.9022 92.8761 41.8152 90.7087C43.7282 88.5412 46.5321 86.5719 50.0669 84.913C53.6016 83.2541 57.798 81.9382 62.4164 81.0405C67.0348 80.1427 71.9848 79.6806 76.9837 79.6806L76.9837 75.2145Z" fill="white"/>
<ellipse rx="11.1739" ry="12.9995" transform="matrix(-1 -2.52825e-08 -2.52825e-08 1 78.1112 76.011)" fill="white"/>
<ellipse rx="7.65611" ry="10.3863" transform="matrix(-1 -2.52825e-08 -2.52825e-08 1 76.8693 32.3902)" fill="#2603FF"/>
<ellipse rx="7.65611" ry="10.3863" transform="matrix(-1 -2.52825e-08 -2.52825e-08 1 77.0236 119.636)" fill="#FF265A"/>
<path d="M76.2259 75.1719C71.7666 79.6311 67.7563 84.4521 64.4239 89.3594C61.0915 94.2667 58.5023 99.1642 56.8042 103.772C55.106 108.381 54.3322 112.609 54.5268 116.217C54.7214 119.824 55.8806 122.74 57.9384 124.798C59.9961 126.856 62.912 128.015 66.5196 128.21C70.1272 128.404 74.3558 127.63 78.964 125.932C83.5722 124.234 88.4698 121.645 93.3771 118.313C98.2844 114.98 103.105 110.97 107.565 106.511L104.431 103.377C100.863 106.944 97.0066 110.152 93.0807 112.818C89.1549 115.484 85.2368 117.556 81.5503 118.914C77.8637 120.273 74.4808 120.892 71.5947 120.736C68.7086 120.58 66.3759 119.653 64.7297 118.007C63.0836 116.361 62.1561 114.028 62.0005 111.142C61.8448 108.256 62.4639 104.873 63.8224 101.186C65.1809 97.4996 67.2523 93.5816 69.9182 89.6557C72.5841 85.7299 75.7923 81.8732 79.3598 78.3057L76.2259 75.1719Z" fill="white"/>
<path d="M77.5588 76.5587C82.0217 72.0958 86.0365 67.2722 89.374 62.3635C92.7116 57.4547 95.3064 52.5568 97.0105 47.9494C98.7146 43.342 99.4945 39.1154 99.3056 35.5108C99.1168 31.9063 97.963 28.9944 95.91 26.9414C93.8571 24.8885 90.9452 23.7346 87.3406 23.5458C83.7361 23.357 79.5095 24.1369 74.9021 25.841C70.2947 27.545 65.3968 30.1399 60.488 33.4774C55.5792 36.815 50.7557 40.8298 46.2928 45.2926L49.4194 48.4192C52.9897 44.8489 56.8485 41.6371 60.7756 38.9671C64.7026 36.2971 68.6209 34.2212 72.3068 32.8579C75.9927 31.4946 79.374 30.8707 82.2577 31.0218C85.1413 31.1728 87.4708 32.0959 89.1132 33.7383C90.7556 35.3806 91.6786 37.7101 91.8297 40.5938C91.9807 43.4774 91.3568 46.8587 89.9936 50.5446C88.6303 54.2305 86.5544 58.1489 83.8844 62.0759C81.2144 66.0029 78.0025 69.8618 74.4322 73.432L77.5588 76.5587Z" fill="white"/>
<ellipse rx="7.73306" ry="10.283" transform="matrix(0.707106 -0.707106 -0.707106 -0.707106 76.9704 76.0269)" fill="white"/>
<ellipse rx="7.73306" ry="10.283" transform="matrix(0.707106 -0.707106 -0.707106 -0.707106 107.619 106.456)" fill="#2603FF"/>
<ellipse rx="7.73306" ry="10.283" transform="matrix(0.707106 -0.707106 -0.707106 -0.707106 46.4313 45.4878)" fill="#FF265A"/>
<path d="M77.8297 75.2197C73.4148 70.8048 68.6337 66.8425 63.7595 63.5591C58.8853 60.2756 54.0134 57.7353 49.4219 56.0831C44.8304 54.431 40.6093 53.6994 36.9996 53.9301C33.3899 54.1607 30.4623 55.3492 28.3838 57.4276C26.3054 59.5061 25.1169 62.4337 24.8863 66.0434C24.6556 69.6531 25.3872 73.8742 27.0393 78.4657C28.6915 83.0572 31.2318 87.9291 34.5153 92.8033C37.7987 97.6775 41.7611 102.459 46.176 106.873L49.3413 103.708C45.8094 100.176 42.6396 96.3513 40.0128 92.452C37.386 88.5526 35.3537 84.655 34.032 80.9819C32.7103 77.3087 32.125 73.9318 32.3096 71.044C32.4941 68.1563 33.4449 65.8142 35.1076 64.1514C36.7704 62.4887 39.1125 61.5379 42.0002 61.3534C44.888 61.1688 48.2649 61.7541 51.9381 63.0758C55.6112 64.3975 59.5088 66.4298 63.4082 69.0566C67.3075 71.6834 71.1324 74.8532 74.6643 78.3851L77.8297 75.2197Z" fill="white"/>
<path d="M76.431 76.5654C80.8495 80.9839 85.6331 84.9507 90.5087 88.2393C95.3844 91.5278 100.257 94.0739 104.847 95.7319C109.438 97.39 113.657 98.1277 117.263 97.9028C120.87 97.6779 123.794 96.4949 125.867 94.4213C127.941 92.3477 129.124 89.4242 129.349 85.8175C129.574 82.2109 128.836 77.9919 127.178 73.4013C125.52 68.8107 122.974 63.9385 119.685 59.0629C116.397 54.1872 112.43 49.4036 108.011 44.9851L104.853 48.1432C108.388 51.6779 111.561 55.5048 114.192 59.4054C116.823 63.3059 118.86 67.2037 120.186 70.8761C121.513 74.5486 122.103 77.9238 121.923 80.8091C121.743 83.6944 120.797 86.0332 119.138 87.6921C117.479 89.351 115.14 90.2974 112.255 90.4773C109.37 90.6572 105.994 90.0671 102.322 88.7406C98.6495 87.4142 94.7517 85.3773 90.8512 82.7465C86.9507 80.1156 83.1238 76.9422 79.589 73.4074L76.431 76.5654Z" fill="white"/>
<ellipse rx="11.1739" ry="12.9995" transform="matrix(0.707106 0.707106 0.707106 -0.707106 76.1987 75.204)" fill="white"/>
<ellipse rx="7.65611" ry="10.3863" transform="matrix(0.707106 0.707106 0.707106 -0.707106 46.2325 106.927)" fill="#2603FF"/>
<ellipse rx="7.65611" ry="10.3863" transform="matrix(0.707106 0.707106 0.707106 -0.707106 107.817 45.1271)" fill="#FF265A"/>
</svg>
