<svg width="150" height="150" viewBox="0 0 213 213" fill="none" xmlns="http://www.w3.org/2000/svg">
<path d="M108.067 106.573C108.067 97.7359 107.264 88.9852 105.703 80.8206C104.143 72.6561 101.855 65.2376 98.9717 58.9887C96.0882 52.7399 92.6649 47.783 88.8974 44.4011C85.1299 41.0193 81.0919 39.2786 77.0139 39.2786C72.936 39.2786 68.898 41.0193 65.1305 44.4011C61.3629 47.783 57.9397 52.7399 55.0561 58.9887C52.1726 65.2376 49.8853 72.6561 48.3247 80.8207C46.7641 88.9852 45.9609 97.7359 45.9609 106.573L52.1715 106.573C52.1715 99.5034 52.8141 92.5028 54.0625 85.9711C55.311 79.4395 57.1409 73.5047 59.4477 68.5056C61.7545 63.5065 64.4931 59.541 67.5072 56.8355C70.5212 54.13 73.7516 52.7375 77.0139 52.7375C80.2763 52.7375 83.5067 54.13 86.5207 56.8355C89.5347 59.541 92.2733 63.5065 94.5802 68.5056C96.887 73.5047 98.7169 79.4395 99.9653 85.9712C101.214 92.5028 101.856 99.5034 101.856 106.573L108.067 106.573Z" fill="white"/>
<path d="M105.374 106.519C105.374 115.363 106.175 124.121 107.732 132.292C109.289 140.463 111.571 147.887 114.448 154.141C117.325 160.395 120.74 165.356 124.499 168.741C128.258 172.125 132.287 173.867 136.355 173.867C140.423 173.867 144.452 172.125 148.211 168.741C151.97 165.356 155.385 160.395 158.262 154.141C161.139 147.887 163.421 140.463 164.978 132.292C166.535 124.121 167.336 115.363 167.336 106.519L161.14 106.519C161.14 113.594 160.499 120.6 159.253 127.137C158.008 133.674 156.182 139.614 153.88 144.617C151.579 149.62 148.847 153.589 145.84 156.296C142.833 159.004 139.61 160.398 136.355 160.398C133.1 160.398 129.877 159.004 126.87 156.296C123.863 153.589 121.131 149.62 118.83 144.617C116.528 139.614 114.702 133.674 113.457 127.137C112.211 120.6 111.57 113.594 111.57 106.519L105.374 106.519Z" fill="white"/>
<ellipse rx="10.8365" ry="14.4097" transform="matrix(-2.52825e-08 1 1 2.52825e-08 106.482 106.465)" fill="white"/>
<ellipse rx="10.8365" ry="14.4097" transform="matrix(-2.52825e-08 1 1 2.52825e-08 45.9605 106.682)" fill="#FF8A00"/>
<ellipse rx="10.8365" ry="14.4097" transform="matrix(-2.52825e-08 1 1 2.52825e-08 167.003 106.466)" fill="#91C4FF"/>
<path d="M106.43 108.12C115.179 108.12 123.842 107.308 131.926 105.732C140.009 104.156 147.354 101.846 153.54 98.933C159.727 96.0205 164.635 92.5628 167.983 88.7574C171.331 84.952 173.054 80.8734 173.054 76.7545C173.054 72.6356 171.331 68.557 167.983 64.7516C164.635 60.9462 159.727 57.4886 153.54 54.576C147.354 51.6635 140.009 49.3532 131.926 47.7769C123.842 46.2007 115.179 45.3894 106.43 45.3894L106.43 51.6624C113.429 51.6624 120.36 52.3115 126.827 53.5724C133.293 54.8334 139.169 56.6817 144.118 59.0117C149.068 61.3417 152.994 64.1079 155.672 67.1522C158.351 70.1965 159.729 73.4594 159.729 76.7545C159.729 80.0496 158.351 83.3125 155.672 86.3568C152.994 89.4011 149.068 92.1673 144.118 94.4973C139.169 96.8273 133.293 98.6756 126.827 99.9366C120.36 101.198 113.429 101.847 106.43 101.847L106.43 108.12Z" fill="white"/>
<path d="M106.482 105.399C97.7253 105.399 89.0547 106.208 80.9649 107.781C72.8751 109.354 65.5245 111.659 59.3328 114.564C53.1411 117.47 48.2296 120.92 44.8787 124.716C41.5278 128.513 39.8031 132.582 39.8031 136.691C39.8031 140.801 41.5278 144.87 44.8787 148.666C48.2296 152.463 53.1411 155.913 59.3328 158.818C65.5245 161.724 72.8751 164.029 80.9649 165.602C89.0547 167.174 97.7253 167.984 106.482 167.984L106.482 161.725C99.4766 161.725 92.5401 161.078 86.0682 159.82C79.5964 158.562 73.7159 156.718 68.7626 154.393C63.8092 152.068 59.88 149.309 57.1993 146.271C54.5186 143.234 53.1388 139.979 53.1388 136.691C53.1388 133.404 54.5186 130.149 57.1993 127.111C59.88 124.074 63.8092 121.314 68.7626 118.99C73.7159 116.665 79.5964 114.821 86.0682 113.563C92.5401 112.305 99.4766 111.657 106.482 111.657L106.482 105.399Z" fill="white"/>
<ellipse rx="15.6582" ry="18.2165" transform="matrix(-1 -2.52825e-08 -2.52825e-08 1 108.061 106.515)" fill="white"/>
<ellipse rx="10.7286" ry="14.5546" transform="matrix(-1 -2.52825e-08 -2.52825e-08 1 106.32 45.3888)" fill="#FF8A00"/>
<ellipse rx="10.7286" ry="14.5546" transform="matrix(-1 -2.52825e-08 -2.52825e-08 1 106.535 167.647)" fill="#91C4FF"/>
<path d="M105.416 105.34C99.1672 111.589 93.5475 118.345 88.8777 125.221C84.208 132.098 80.5797 138.961 78.2001 145.419C75.8204 151.876 74.736 157.802 75.0087 162.857C75.2814 167.913 76.9059 171.999 79.7894 174.882C82.673 177.766 86.7591 179.39 91.8144 179.663C96.8698 179.936 102.795 178.851 109.253 176.472C115.711 174.092 122.574 170.464 129.45 165.794C136.327 161.124 143.083 155.504 149.332 149.256L144.94 144.864C139.941 149.863 134.536 154.359 129.035 158.095C123.534 161.83 118.043 164.733 112.877 166.637C107.711 168.541 102.971 169.408 98.9263 169.19C94.882 168.972 91.6131 167.672 89.3063 165.365C86.9995 163.058 85.6999 159.79 85.4817 155.745C85.2636 151.701 86.1311 146.96 88.0348 141.794C89.9386 136.628 92.8412 131.138 96.5769 125.637C100.313 120.135 104.809 114.731 109.808 109.732L105.416 105.34Z" fill="white"/>
<path d="M107.284 107.283C113.538 101.029 119.164 94.27 123.841 87.3912C128.518 80.5125 132.154 73.6489 134.542 67.1925C136.93 60.7361 138.023 54.8132 137.758 49.7621C137.494 44.711 135.877 40.6305 133 37.7537C130.123 34.8768 126.043 33.2599 120.991 32.9953C115.94 32.7308 110.018 33.8236 103.561 36.2116C97.1047 38.5995 90.2411 42.2358 83.3624 46.9127C76.4836 51.5896 69.7243 57.2157 63.4704 63.4696L67.8517 67.8509C72.8549 62.8478 78.2623 58.347 83.7653 54.6054C89.2684 50.8639 94.7592 47.9549 99.9243 46.0445C105.089 44.1342 109.828 43.2599 113.869 43.4716C117.91 43.6832 121.174 44.9767 123.475 47.2782C125.777 49.5797 127.07 52.8441 127.282 56.885C127.494 60.9259 126.619 65.6641 124.709 70.8293C122.799 75.9944 119.89 81.4852 116.148 86.9883C112.407 92.4913 107.906 97.8987 102.903 102.902L107.284 107.283Z" fill="white"/>
<ellipse rx="10.8365" ry="14.4097" transform="matrix(0.707106 -0.707106 -0.707106 -0.707106 106.462 106.538)" fill="white"/>
<ellipse rx="10.8365" ry="14.4097" transform="matrix(0.707106 -0.707106 -0.707106 -0.707106 149.409 149.179)" fill="#FF8A00"/>
<ellipse rx="10.8365" ry="14.4097" transform="matrix(0.707106 -0.707106 -0.707106 -0.707106 63.6667 63.743)" fill="#91C4FF"/>
<path d="M107.668 105.406C101.481 99.2197 94.7815 93.6673 87.9511 89.0661C81.1208 84.4649 74.2937 80.9051 67.8596 78.5899C61.4255 76.2747 55.5104 75.2495 50.452 75.5728C45.3936 75.896 41.2911 77.5615 38.3786 80.474C35.466 83.3865 33.8006 87.4891 33.4773 92.5474C33.1541 97.6058 34.1793 103.521 36.4945 109.955C38.8097 116.389 42.3695 123.216 46.9707 130.047C51.5718 136.877 57.1243 143.577 63.311 149.763L67.7467 145.328C62.7973 140.378 58.3554 135.019 54.6744 129.554C50.9935 124.09 48.1456 118.628 46.2935 113.481C44.4413 108.334 43.6211 103.602 43.8798 99.5549C44.1384 95.5082 45.4707 92.2262 47.8007 89.8962C50.1308 87.5662 53.4128 86.2338 57.4595 85.9752C61.5062 85.7166 66.2383 86.5368 71.3855 88.3889C76.5328 90.2411 81.9945 93.0889 87.4588 96.7699C92.9231 100.451 98.2829 104.893 103.232 109.842L107.668 105.406Z" fill="white"/>
<path d="M105.707 107.292C111.899 113.484 118.602 119.043 125.435 123.651C132.267 128.259 139.095 131.827 145.527 134.151C151.96 136.474 157.872 137.508 162.927 137.193C167.981 136.878 172.077 135.22 174.983 132.314C177.889 129.408 179.547 125.311 179.862 120.257C180.177 115.203 179.143 109.291 176.82 102.858C174.496 96.4255 170.928 89.598 166.32 82.7656C161.712 75.9333 156.153 69.2299 149.961 63.0382L145.536 67.4636C150.489 72.417 154.936 77.7797 158.623 83.2455C162.31 88.7114 165.164 94.1734 167.023 99.3197C168.881 104.466 169.708 109.196 169.456 113.239C169.204 117.282 167.878 120.56 165.553 122.884C163.229 125.209 159.951 126.535 155.908 126.787C151.865 127.039 147.135 126.212 141.989 124.354C136.843 122.495 131.38 119.641 125.915 115.954C120.449 112.267 115.086 107.82 110.133 102.867L105.707 107.292Z" fill="white"/>
<ellipse rx="15.6582" ry="18.2165" transform="matrix(0.707106 0.707106 0.707106 -0.707106 105.381 105.385)" fill="white"/>
<ellipse rx="10.7286" ry="14.5546" transform="matrix(0.707106 0.707106 0.707106 -0.707106 63.3877 149.839)" fill="#FF8A00"/>
<ellipse rx="10.7286" ry="14.5546" transform="matrix(0.707106 0.707106 0.707106 -0.707106 149.687 63.2373)" fill="#91C4FF"/>
</svg>
