<svg width="150" height="150" viewBox="0 0 150 151" fill="none" xmlns="http://www.w3.org/2000/svg">
<path d="M76.17 75.7272C76.17 82.3112 75.5716 88.8309 74.4089 94.9138C73.2462 100.997 71.542 106.524 69.3937 111.179C67.2453 115.835 64.6949 119.528 61.8879 122.048C59.0809 124.567 56.0725 125.864 53.0342 125.864C49.996 125.864 46.9875 124.567 44.1805 122.048C41.3736 119.528 38.8231 115.835 36.6748 111.179C34.5264 106.524 32.8222 100.997 31.6595 94.9138C30.4969 88.8309 29.8984 82.3112 29.8984 75.7271L34.5256 75.7272C34.5256 80.9944 35.0043 86.2101 35.9345 91.0765C36.8646 95.9428 38.228 100.364 39.9466 104.089C41.6653 107.813 43.7057 110.768 45.9513 112.784C48.1968 114.799 50.6036 115.837 53.0342 115.837C55.4648 115.837 57.8716 114.799 60.1172 112.784C62.3627 110.768 64.4031 107.813 66.1218 104.089C67.8405 100.364 69.2038 95.9428 70.134 91.0765C71.0641 86.2101 71.5428 80.9944 71.5428 75.7272L76.17 75.7272Z" fill="white"/>
<path d="M74.1639 75.7679C74.1639 69.1785 74.761 62.6536 75.9209 56.5658C77.0809 50.478 78.7811 44.9465 80.9245 40.2871C83.0679 35.6277 85.6124 31.9316 88.4129 29.41C91.2133 26.8883 94.2148 25.5904 97.246 25.5904C100.277 25.5904 103.279 26.8883 106.079 29.41C108.88 31.9316 111.424 35.6277 113.568 40.2871C115.711 44.9465 117.411 50.478 118.571 56.5658C119.731 62.6536 120.328 69.1785 120.328 75.7679L115.712 75.7679C115.712 70.4964 115.234 65.2765 114.306 60.4062C113.378 55.536 112.018 51.1108 110.303 47.3832C108.589 43.6557 106.553 40.6989 104.313 38.6816C102.072 36.6642 99.671 35.6259 97.246 35.6259C94.8211 35.6259 92.4199 36.6642 90.1795 38.6816C87.9392 40.6989 85.9035 43.6557 84.1888 47.3832C82.4741 51.1108 81.1139 55.536 80.186 60.4062C79.258 65.2765 78.7803 70.4964 78.7803 75.7679L74.1639 75.7679Z" fill="white"/>
<ellipse cx="74.9898" cy="75.8077" rx="8.0736" ry="10.7359" transform="rotate(-90 74.9898 75.8077)" fill="white"/>
<ellipse cx="29.898" cy="75.6464" rx="8.0736" ry="10.7359" transform="rotate(-90 29.898 75.6464)" fill="#00AF91"/>
<ellipse cx="120.082" cy="75.8075" rx="8.0736" ry="10.7359" transform="rotate(-90 120.082 75.8075)" fill="#00AF91"/>
<path d="M74.9489 74.5753C81.4675 74.5753 87.9222 75.1797 93.9446 76.3541C99.967 77.5285 105.439 79.2498 110.048 81.4197C114.658 83.5896 118.314 86.1657 120.809 89.0009C123.303 91.8361 124.587 94.8748 124.587 97.9435C124.587 101.012 123.303 104.051 120.809 106.886C118.314 109.721 114.658 112.297 110.048 114.467C105.439 116.637 99.967 118.359 93.9446 119.533C87.9222 120.707 81.4675 121.312 74.9489 121.312L74.9489 116.638C80.1638 116.638 85.3276 116.155 90.1455 115.215C94.9634 114.276 99.3411 112.899 103.029 111.163C106.716 109.427 109.641 107.366 111.637 105.098C113.632 102.83 114.66 100.399 114.66 97.9435C114.66 95.4885 113.632 93.0576 111.637 90.7894C109.641 88.5213 106.716 86.4604 103.029 84.7245C99.3411 82.9885 94.9634 81.6115 90.1455 80.672C85.3276 79.7325 80.1638 79.2489 74.9489 79.2489L74.9489 74.5753Z" fill="white"/>
<path d="M74.9877 76.6021C68.4639 76.6021 62.0039 75.9991 55.9766 74.8275C49.9494 73.6558 44.4729 71.9385 39.8598 69.7736C35.2468 67.6087 31.5875 65.0386 29.0909 62.21C26.5944 59.3814 25.3094 56.3498 25.3094 53.2881C25.3094 50.2265 26.5944 47.1948 29.0909 44.3662C31.5875 41.5377 35.2468 38.9675 39.8598 36.8026C44.4729 34.6377 49.9494 32.9204 55.9767 31.7488C62.0039 30.5772 68.4639 29.9741 74.9877 29.9741L74.9877 34.6369C69.7686 34.6369 64.6007 35.1194 59.7789 36.0567C54.9571 36.994 50.5759 38.3678 46.8854 40.0997C43.195 41.8317 40.2676 43.8878 38.2703 46.1506C36.273 48.4135 35.2451 50.8388 35.2451 53.2881C35.2451 55.7374 36.273 58.1628 38.2703 60.4256C40.2676 62.6885 43.195 64.7446 46.8854 66.4765C50.5759 68.2085 54.9571 69.5823 59.7789 70.5196C64.6007 71.4569 69.7686 71.9393 74.9877 71.9393L74.9877 76.6021Z" fill="white"/>
<ellipse cx="76.164" cy="75.7705" rx="11.666" ry="13.572" transform="rotate(180 76.164 75.7705)" fill="white"/>
<ellipse cx="74.8661" cy="121.312" rx="7.99329" ry="10.8437" transform="rotate(180 74.8661 121.312)" fill="#00AF91"/>
<ellipse cx="75.0282" cy="30.2246" rx="7.99329" ry="10.8437" transform="rotate(180 75.0282 30.2246)" fill="#00AF91"/>
<path d="M74.1939 76.6467C69.5382 71.991 65.3513 66.9578 61.8722 61.8344C58.393 56.711 55.6898 51.5977 53.9169 46.7866C52.1439 41.9754 51.336 37.5606 51.5392 33.7941C51.7423 30.0277 52.9526 26.9834 55.101 24.835C57.2494 22.6867 60.2937 21.4764 64.0602 21.2732C67.8266 21.07 72.2415 21.878 77.0527 23.6509C81.8638 25.4238 86.9771 28.127 92.1005 31.6062C97.2239 35.0853 102.257 39.2722 106.913 43.9279L103.641 47.1998C99.9164 43.4752 95.8898 40.1257 91.7911 37.3424C87.6924 34.5591 83.6017 32.3965 79.7528 30.9782C75.9039 29.5598 72.372 28.9135 69.3588 29.076C66.3456 29.2385 63.9102 30.2068 62.1915 31.9255C60.4728 33.6441 59.5045 36.0796 59.342 39.0928C59.1795 42.1059 59.8258 45.6378 61.2442 49.4867C62.6625 53.3357 64.8251 57.4263 67.6084 61.525C70.3917 65.6237 73.7413 69.6503 77.4658 73.3748L74.1939 76.6467Z" fill="white"/>
<path d="M75.5829 75.1987C80.2423 79.8582 84.434 84.8941 87.9185 90.0191C91.403 95.144 94.1122 100.258 95.8913 105.068C97.6704 109.878 98.4846 114.291 98.2875 118.054C98.0904 121.818 96.8857 124.858 94.7423 127.001C92.599 129.144 89.5589 130.349 85.7956 130.546C82.0323 130.743 77.6195 129.929 72.8092 128.15C67.9989 126.371 62.8853 123.662 57.7603 120.177C52.6353 116.693 47.5993 112.501 42.9399 107.842L46.2042 104.577C49.9317 108.305 53.9605 111.658 58.0605 114.446C62.1605 117.233 66.2514 119.401 70.0996 120.824C73.9479 122.247 77.4781 122.899 80.4887 122.741C83.4994 122.583 85.9315 121.62 87.6462 119.905C89.3609 118.19 90.3246 115.758 90.4823 112.747C90.64 109.737 89.9886 106.207 88.5653 102.358C87.142 98.5101 84.9747 94.4193 82.1871 90.3193C79.3995 86.2193 76.0462 82.1906 72.3186 78.463L75.5829 75.1987Z" fill="white"/>
<ellipse rx="8.07362" ry="10.7358" transform="matrix(0.707108 0.707105 -0.707108 0.707105 74.971 75.7539)" fill="white"/>
<ellipse rx="8.07362" ry="10.7358" transform="matrix(0.707108 0.707105 -0.707108 0.707105 106.969 43.9844)" fill="#E29E00"/>
<ellipse rx="8.07362" ry="10.7358" transform="matrix(0.707108 0.707105 -0.707108 0.707105 43.0882 107.638)" fill="#E29E00"/>
<path d="M75.872 76.5968C71.2627 81.2062 66.2711 85.343 61.1822 88.771C56.0933 92.1991 51.0068 94.8513 46.2131 96.5762C41.4194 98.3011 37.0124 99.0649 33.2438 98.8241C29.4751 98.5832 26.4185 97.3424 24.2485 95.1725C22.0786 93.0025 20.8378 89.946 20.5969 86.1773C20.3561 82.4086 21.1199 78.0016 22.8448 73.208C24.5697 68.4143 27.2219 63.3278 30.65 58.239C34.0781 53.1501 38.2149 48.1585 42.8242 43.5492L46.129 46.8539C42.4415 50.5414 39.1321 54.5347 36.3896 58.6058C33.6472 62.6769 31.5254 66.746 30.1455 70.581C28.7655 74.4159 28.1545 77.9415 28.3472 80.9564C28.5398 83.9714 29.5325 86.4166 31.2685 88.1526C33.0044 89.8885 35.4497 90.8812 38.4646 91.0739C41.4796 91.2665 45.0052 90.6555 48.8401 89.2756C52.6751 87.8956 56.7443 85.7739 60.8154 83.0314C64.8865 80.289 68.8798 76.9795 72.5672 73.2921L75.872 76.5968Z" fill="white"/>
<path d="M74.4107 75.1918C79.0237 70.5788 84.018 66.4373 89.1084 63.0039C94.1988 59.5705 99.2856 56.9123 104.078 55.1812C108.871 53.4501 113.276 52.68 117.041 52.9148C120.807 53.1496 123.859 54.3847 126.024 56.5496C128.189 58.7145 129.424 61.7668 129.659 65.5322C129.894 69.2977 129.124 73.7025 127.392 78.4953C125.661 83.288 123.003 88.3747 119.57 93.4651C116.136 98.5555 111.995 103.55 107.382 108.163L104.085 104.866C107.775 101.175 111.088 97.1798 113.835 93.1076C116.582 89.0353 118.708 84.9658 120.093 81.1317C121.478 77.2975 122.094 73.7736 121.906 70.7612C121.719 67.7489 120.73 65.307 118.998 63.5751C117.267 61.8432 114.825 60.8551 111.812 60.6673C108.8 60.4795 105.276 61.0956 101.442 62.4805C97.6077 63.8653 93.5383 65.9918 89.466 68.7386C85.3936 71.4853 81.3982 74.7985 77.7078 78.4889L74.4107 75.1918Z" fill="white"/>
<ellipse rx="11.666" ry="13.572" transform="matrix(0.707108 -0.707105 0.707108 0.707105 74.1663 76.6129)" fill="white"/>
<ellipse rx="7.99328" ry="10.8437" transform="matrix(0.707108 -0.707105 0.707108 0.707105 42.8804 43.4929)" fill="#E29E00"/>
<ellipse rx="7.99328" ry="10.8437" transform="matrix(0.707108 -0.707105 0.707108 0.707105 107.177 108.014)" fill="#E29E00"/>
</svg>
