<svg width="37" height="37" viewBox="0 0 37 37" fill="none" xmlns="http://www.w3.org/2000/svg">
<path d="M7.43427 36.8625C9.30812 36.8596 11.1118 36.1537 12.4848 34.8859C13.8578 33.6181 14.699 31.8819 14.8402 30.0243L22.1544 30.0632C22.2419 31.4896 22.7437 32.8601 23.599 34.0087C24.4543 35.1572 25.6263 36.0344 26.973 36.534C28.3197 37.0335 29.7833 37.134 31.1863 36.8232C32.5893 36.5123 33.8715 35.8036 34.8774 34.7828C35.8833 33.7621 36.5699 32.4731 36.8537 31.0722C37.1375 29.6713 37.0065 28.2187 36.4766 26.8903C35.9466 25.562 35.0404 24.415 33.8679 23.5884C32.6954 22.7618 31.3068 22.2911 29.8706 22.2333L23.5502 12.877C24.6653 11.8762 25.4493 10.5629 25.7988 9.11031C26.1484 7.65769 26.047 6.13388 25.5081 4.73968C24.9691 3.34548 24.018 2.14632 22.7799 1.30023C21.5418 0.454138 20.075 0.000815816 18.5726 1.10009e-06C17.0702 -0.000813616 15.6029 0.450918 14.3639 1.29567C13.1249 2.14042 12.1724 3.33854 11.632 4.73215C11.0915 6.12577 10.9885 7.64947 11.3364 9.10247C11.6843 10.5555 12.4669 11.8696 13.5809 12.8716L7.13435 22.0956C5.19059 22.1725 3.35469 23.0042 2.02101 24.4121C0.687324 25.82 -0.0377558 27.6917 0.00151597 29.6253C0.0407878 31.5588 0.841279 33.3999 2.23104 34.7531C3.62081 36.1063 5.48898 36.8637 7.43427 36.8625V36.8625ZM35.8936 29.609C35.8936 30.8532 35.5225 32.0695 34.8272 33.1041C34.1318 34.1387 33.1436 34.945 31.9873 35.4212C30.831 35.8973 29.5587 36.0219 28.3312 35.7792C27.1036 35.5365 25.9761 34.9373 25.0911 34.0575C24.2061 33.1777 23.6034 32.0568 23.3592 30.8365C23.115 29.6161 23.2403 28.3512 23.7192 27.2016C24.1981 26.0521 25.0092 25.0696 26.0498 24.3782C27.0904 23.6869 28.3138 23.3179 29.5653 23.3179C31.2431 23.3197 32.8516 23.9831 34.038 25.1625C35.2243 26.3419 35.8917 27.941 35.8936 29.609V29.609ZM12.2407 7.40672C12.2407 6.16244 12.6118 4.94611 13.3072 3.91154C14.0025 2.87697 14.9908 2.07062 16.1471 1.59447C17.3035 1.11832 18.5758 0.993747 19.8033 1.23651C21.0309 1.47928 22.1584 2.07848 23.0434 2.95833C23.9284 3.83818 24.531 4.95918 24.7752 6.17955C25.0193 7.39992 24.8939 8.66486 24.4149 9.8144C23.9359 10.9639 23.1248 11.9465 22.0841 12.6377C21.0435 13.3289 19.82 13.6978 18.5684 13.6978C16.8907 13.6959 15.2823 13.0325 14.096 11.8531C12.9097 10.6737 12.2425 9.07461 12.2407 7.40672V7.40672ZM18.5684 14.7977C20.0316 14.7988 21.4621 14.368 22.6788 13.56L28.5769 22.2911C26.9056 22.516 25.3606 23.2987 24.1955 24.511C23.0303 25.7233 22.3141 27.2932 22.1642 28.9633L14.8405 28.9243C14.7126 27.2387 14.0075 25.6475 12.8427 24.416C11.678 23.1844 10.1239 22.3869 8.43948 22.1562L14.4505 13.5553C15.6688 14.3665 17.1022 14.7989 18.5684 14.7977V14.7977ZM7.43423 23.1805C8.68578 23.1805 9.90922 23.5495 10.9498 24.2408C11.9904 24.9321 12.8015 25.9147 13.2804 27.0642C13.7593 28.2138 13.8846 29.4787 13.6404 30.699C13.3962 31.9194 12.7935 33.0403 11.9085 33.9201C11.0235 34.7999 9.89593 35.399 8.66843 35.6418C7.44092 35.8845 6.16858 35.7599 5.0123 35.2837C3.85603 34.8076 2.86774 34.0012 2.17242 32.9667C1.4771 31.9321 1.10598 30.7158 1.10598 29.4715C1.10778 27.8035 1.7751 26.2044 2.9615 25.0249C4.1479 23.8455 5.75648 23.1822 7.43427 23.1804L7.43423 23.1805Z" fill="black"/>
</svg>
