<svg width="32" height="39" viewBox="0 0 34 41" fill="none" xmlns="http://www.w3.org/2000/svg">
<path d="M3.35714 40.5C3.04155 40.5 2.78571 40.2442 2.78571 39.9286V7.92857C2.78571 7.61298 3.04155 7.35714 3.35714 7.35714H30.7857C31.1013 7.35714 31.3571 7.61298 31.3571 7.92857V39.9286C31.3571 40.2442 31.1013 40.5 30.7857 40.5H3.35714ZM30.2143 39.3571V8.5H3.92857V39.3571H30.2143ZM33.0714 2.78571C33.387 2.78571 33.6429 3.04155 33.6429 3.35714V7.92857C33.6429 8.24416 33.387 8.5 33.0714 8.5H1.07143C0.755837 8.5 0.5 8.24416 0.5 7.92857V3.35714C0.5 3.04155 0.755837 2.78571 1.07143 2.78571H8.83473L10.9531 0.667367C11.0602 0.560203 11.2056 0.5 11.3571 0.5H22.7857C22.9373 0.5 23.0826 0.560203 23.1898 0.667367L25.3081 2.78571H33.0714ZM32.5 3.92857H25.0714C24.9199 3.92857 24.7745 3.86837 24.6674 3.7612L22.549 1.64286H11.5938L9.47549 3.7612C9.36833 3.86837 9.22298 3.92857 9.07143 3.92857H1.64286V7.35714H32.5V3.92857Z" fill="black"/>
</svg>
