<svg width="117" height="56" viewBox="0 0 117 56" fill="none" xmlns="http://www.w3.org/2000/svg">
<rect x="0.482422" y="0.613281" width="116.518" height="54.6314" fill="#E29E00"/>
<path d="M33.1377 27.0273C33.2997 26.7453 33.5397 26.5113 33.8577 26.3253C34.1817 26.1333 34.5567 26.0373 34.9827 26.0373C35.4207 26.0373 35.8167 26.1423 36.1707 26.3523C36.5307 26.5623 36.8127 26.8593 37.0167 27.2433C37.2207 27.6213 37.3227 28.0623 37.3227 28.5663C37.3227 29.0643 37.2207 29.5083 37.0167 29.8983C36.8127 30.2883 36.5307 30.5913 36.1707 30.8073C35.8167 31.0233 35.4207 31.1313 34.9827 31.1313C34.5627 31.1313 34.1907 31.0383 33.8667 30.8523C33.5487 30.6603 33.3057 30.4233 33.1377 30.1413V33.3903H32.3187V26.1183H33.1377V27.0273ZM36.4857 28.5663C36.4857 28.1943 36.4107 27.8703 36.2607 27.5943C36.1107 27.3183 35.9067 27.1083 35.6487 26.9643C35.3967 26.8203 35.1177 26.7483 34.8117 26.7483C34.5117 26.7483 34.2327 26.8233 33.9747 26.9733C33.7227 27.1173 33.5187 27.3303 33.3627 27.6123C33.2127 27.8883 33.1377 28.2093 33.1377 28.5753C33.1377 28.9473 33.2127 29.2743 33.3627 29.5563C33.5187 29.8323 33.7227 30.0453 33.9747 30.1953C34.2327 30.3393 34.5117 30.4113 34.8117 30.4113C35.1177 30.4113 35.3967 30.3393 35.6487 30.1953C35.9067 30.0453 36.1107 29.8323 36.2607 29.5563C36.4107 29.2743 36.4857 28.9443 36.4857 28.5663ZM39.2197 26.9193C39.3637 26.6373 39.5677 26.4183 39.8317 26.2623C40.1017 26.1063 40.4287 26.0283 40.8127 26.0283V26.8743H40.5967C39.6787 26.8743 39.2197 27.3723 39.2197 28.3683V31.0503H38.4007V26.1183H39.2197V26.9193ZM43.9091 31.1313C43.4471 31.1313 43.0271 31.0263 42.6491 30.8163C42.2771 30.6063 41.9831 30.3093 41.7671 29.9253C41.5571 29.5353 41.4521 29.0853 41.4521 28.5753C41.4521 28.0713 41.5601 27.6273 41.7761 27.2433C41.9981 26.8533 42.2981 26.5563 42.6761 26.3523C43.0541 26.1423 43.4771 26.0373 43.9451 26.0373C44.4131 26.0373 44.8361 26.1423 45.2141 26.3523C45.5921 26.5563 45.8891 26.8503 46.1051 27.2343C46.3271 27.6183 46.4381 28.0653 46.4381 28.5753C46.4381 29.0853 46.3241 29.5353 46.0961 29.9253C45.8741 30.3093 45.5711 30.6063 45.1871 30.8163C44.8031 31.0263 44.3771 31.1313 43.9091 31.1313ZM43.9091 30.4113C44.2031 30.4113 44.4791 30.3423 44.7371 30.2043C44.9951 30.0663 45.2021 29.8593 45.3581 29.5833C45.5201 29.3073 45.6011 28.9713 45.6011 28.5753C45.6011 28.1793 45.5231 27.8433 45.3671 27.5673C45.2111 27.2913 45.0071 27.0873 44.7551 26.9553C44.5031 26.8173 44.2301 26.7483 43.9361 26.7483C43.6361 26.7483 43.3601 26.8173 43.1081 26.9553C42.8621 27.0873 42.6641 27.2913 42.5141 27.5673C42.3641 27.8433 42.2891 28.1793 42.2891 28.5753C42.2891 28.9773 42.3611 29.3163 42.5051 29.5923C42.6551 29.8683 42.8531 30.0753 43.0991 30.2133C43.3451 30.3453 43.6151 30.4113 43.9091 30.4113ZM49.549 26.0373C49.975 26.0373 50.347 26.1303 50.665 26.3163C50.989 26.5023 51.229 26.7363 51.385 27.0183V26.1183H52.213V31.1583C52.213 31.6083 52.117 32.0073 51.925 32.3553C51.733 32.7093 51.457 32.9853 51.097 33.1833C50.743 33.3813 50.329 33.4803 49.855 33.4803C49.207 33.4803 48.667 33.3273 48.235 33.0213C47.803 32.7153 47.548 32.2983 47.47 31.7703H48.28C48.37 32.0703 48.556 32.3103 48.838 32.4903C49.12 32.6763 49.459 32.7693 49.855 32.7693C50.305 32.7693 50.671 32.6283 50.953 32.3463C51.241 32.0643 51.385 31.6683 51.385 31.1583V30.1233C51.223 30.4113 50.983 30.6513 50.665 30.8433C50.347 31.0353 49.975 31.1313 49.549 31.1313C49.111 31.1313 48.712 31.0233 48.352 30.8073C47.998 30.5913 47.719 30.2883 47.515 29.8983C47.311 29.5083 47.209 29.0643 47.209 28.5663C47.209 28.0623 47.311 27.6213 47.515 27.2433C47.719 26.8593 47.998 26.5623 48.352 26.3523C48.712 26.1423 49.111 26.0373 49.549 26.0373ZM51.385 28.5753C51.385 28.2033 51.31 27.8793 51.16 27.6033C51.01 27.3273 50.806 27.1173 50.548 26.9733C50.296 26.8233 50.017 26.7483 49.711 26.7483C49.405 26.7483 49.126 26.8203 48.874 26.9643C48.622 27.1083 48.421 27.3183 48.271 27.5943C48.121 27.8703 48.046 28.1943 48.046 28.5663C48.046 28.9443 48.121 29.2743 48.271 29.5563C48.421 29.8323 48.622 30.0453 48.874 30.1953C49.126 30.3393 49.405 30.4113 49.711 30.4113C50.017 30.4113 50.296 30.3393 50.548 30.1953C50.806 30.0453 51.01 29.8323 51.16 29.5563C51.31 29.2743 51.385 28.9473 51.385 28.5753ZM54.416 26.9193C54.56 26.6373 54.764 26.4183 55.028 26.2623C55.298 26.1063 55.625 26.0283 56.009 26.0283V26.8743H55.793C54.875 26.8743 54.416 27.3723 54.416 28.3683V31.0503H53.597V26.1183H54.416V26.9193ZM56.6484 28.5663C56.6484 28.0623 56.7504 27.6213 56.9544 27.2433C57.1584 26.8593 57.4374 26.5623 57.7914 26.3523C58.1514 26.1423 58.5504 26.0373 58.9884 26.0373C59.4204 26.0373 59.7954 26.1303 60.1134 26.3163C60.4314 26.5023 60.6684 26.7363 60.8244 27.0183V26.1183H61.6524V31.0503H60.8244V30.1323C60.6624 30.4203 60.4194 30.6603 60.0954 30.8523C59.7774 31.0383 59.4054 31.1313 58.9794 31.1313C58.5414 31.1313 58.1454 31.0233 57.7914 30.8073C57.4374 30.5913 57.1584 30.2883 56.9544 29.8983C56.7504 29.5083 56.6484 29.0643 56.6484 28.5663ZM60.8244 28.5753C60.8244 28.2033 60.7494 27.8793 60.5994 27.6033C60.4494 27.3273 60.2454 27.1173 59.9874 26.9733C59.7354 26.8233 59.4564 26.7483 59.1504 26.7483C58.8444 26.7483 58.5654 26.8203 58.3134 26.9643C58.0614 27.1083 57.8604 27.3183 57.7104 27.5943C57.5604 27.8703 57.4854 28.1943 57.4854 28.5663C57.4854 28.9443 57.5604 29.2743 57.7104 29.5563C57.8604 29.8323 58.0614 30.0453 58.3134 30.1953C58.5654 30.3393 58.8444 30.4113 59.1504 30.4113C59.4564 30.4113 59.7354 30.3393 59.9874 30.1953C60.2454 30.0453 60.4494 29.8323 60.5994 29.5563C60.7494 29.2743 60.8244 28.9473 60.8244 28.5753ZM68.9675 26.0283C69.3515 26.0283 69.6935 26.1093 69.9935 26.2713C70.2935 26.4273 70.5305 26.6643 70.7045 26.9823C70.8785 27.3003 70.9655 27.6873 70.9655 28.1433V31.0503H70.1555V28.2603C70.1555 27.7683 70.0325 27.3933 69.7865 27.1353C69.5465 26.8713 69.2195 26.7393 68.8055 26.7393C68.3795 26.7393 68.0405 26.8773 67.7885 27.1533C67.5365 27.4233 67.4105 27.8163 67.4105 28.3323V31.0503H66.6005V28.2603C66.6005 27.7683 66.4775 27.3933 66.2315 27.1353C65.9915 26.8713 65.6645 26.7393 65.2505 26.7393C64.8245 26.7393 64.4855 26.8773 64.2335 27.1533C63.9815 27.4233 63.8555 27.8163 63.8555 28.3323V31.0503H63.0365V26.1183H63.8555V26.8293C64.0175 26.5713 64.2335 26.3733 64.5035 26.2353C64.7795 26.0973 65.0825 26.0283 65.4125 26.0283C65.8265 26.0283 66.1925 26.1213 66.5105 26.3073C66.8285 26.4933 67.0655 26.7663 67.2215 27.1263C67.3595 26.7783 67.5875 26.5083 67.9055 26.3163C68.2235 26.1243 68.5775 26.0283 68.9675 26.0283ZM72.7319 25.3173C72.5759 25.3173 72.4439 25.2633 72.3359 25.1553C72.2279 25.0473 72.1739 24.9153 72.1739 24.7593C72.1739 24.6033 72.2279 24.4713 72.3359 24.3633C72.4439 24.2553 72.5759 24.2013 72.7319 24.2013C72.8819 24.2013 73.0079 24.2553 73.1099 24.3633C73.2179 24.4713 73.2719 24.6033 73.2719 24.7593C73.2719 24.9153 73.2179 25.0473 73.1099 25.1553C73.0079 25.2633 72.8819 25.3173 72.7319 25.3173ZM73.1279 26.1183V31.0503H72.3089V26.1183H73.1279ZM76.9268 26.0283C77.5268 26.0283 78.0128 26.2113 78.3848 26.5773C78.7568 26.9373 78.9428 27.4593 78.9428 28.1433V31.0503H78.1328V28.2603C78.1328 27.7683 78.0098 27.3933 77.7638 27.1353C77.5178 26.8713 77.1818 26.7393 76.7558 26.7393C76.3238 26.7393 75.9788 26.8743 75.7208 27.1443C75.4688 27.4143 75.3428 27.8073 75.3428 28.3233V31.0503H74.5238V26.1183H75.3428V26.8203C75.5048 26.5683 75.7238 26.3733 75.9998 26.2353C76.2818 26.0973 76.5908 26.0283 76.9268 26.0283ZM82.3146 26.0373C82.7406 26.0373 83.1126 26.1303 83.4306 26.3163C83.7546 26.5023 83.9946 26.7363 84.1506 27.0183V26.1183H84.9786V31.1583C84.9786 31.6083 84.8826 32.0073 84.6906 32.3553C84.4986 32.7093 84.2226 32.9853 83.8626 33.1833C83.5086 33.3813 83.0946 33.4803 82.6206 33.4803C81.9726 33.4803 81.4326 33.3273 81.0006 33.0213C80.5686 32.7153 80.3136 32.2983 80.2356 31.7703H81.0456C81.1356 32.0703 81.3216 32.3103 81.6036 32.4903C81.8856 32.6763 82.2246 32.7693 82.6206 32.7693C83.0706 32.7693 83.4366 32.6283 83.7186 32.3463C84.0066 32.0643 84.1506 31.6683 84.1506 31.1583V30.1233C83.9886 30.4113 83.7486 30.6513 83.4306 30.8433C83.1126 31.0353 82.7406 31.1313 82.3146 31.1313C81.8766 31.1313 81.4776 31.0233 81.1176 30.8073C80.7636 30.5913 80.4846 30.2883 80.2806 29.8983C80.0766 29.5083 79.9746 29.0643 79.9746 28.5663C79.9746 28.0623 80.0766 27.6213 80.2806 27.2433C80.4846 26.8593 80.7636 26.5623 81.1176 26.3523C81.4776 26.1423 81.8766 26.0373 82.3146 26.0373ZM84.1506 28.5753C84.1506 28.2033 84.0756 27.8793 83.9256 27.6033C83.7756 27.3273 83.5716 27.1173 83.3136 26.9733C83.0616 26.8233 82.7826 26.7483 82.4766 26.7483C82.1706 26.7483 81.8916 26.8203 81.6396 26.9643C81.3876 27.1083 81.1866 27.3183 81.0366 27.5943C80.8866 27.8703 80.8116 28.1943 80.8116 28.5663C80.8116 28.9443 80.8866 29.2743 81.0366 29.5563C81.1866 29.8323 81.3876 30.0453 81.6396 30.1953C81.8916 30.3393 82.1706 30.4113 82.4766 30.4113C82.7826 30.4113 83.0616 30.3393 83.3136 30.1953C83.5716 30.0453 83.7756 29.8323 83.9256 29.5563C84.0756 29.2743 84.1506 28.9473 84.1506 28.5753Z" fill="black"/>
</svg>
