<svg width="123" height="38" viewBox="0 0 123 38" fill="none" xmlns="http://www.w3.org/2000/svg">
<rect width="123" height="38" rx="5" fill="white"/>
<path d="M46.5197 20.575C46.5197 20.835 46.5047 21.11 46.4747 21.4H39.9047C39.9547 22.21 40.2297 22.845 40.7297 23.305C41.2397 23.755 41.8547 23.98 42.5747 23.98C43.1647 23.98 43.6547 23.845 44.0447 23.575C44.4447 23.295 44.7247 22.925 44.8847 22.465H46.3547C46.1347 23.255 45.6947 23.9 45.0347 24.4C44.3747 24.89 43.5547 25.135 42.5747 25.135C41.7947 25.135 41.0947 24.96 40.4747 24.61C39.8647 24.26 39.3847 23.765 39.0347 23.125C38.6847 22.475 38.5097 21.725 38.5097 20.875C38.5097 20.025 38.6797 19.28 39.0197 18.64C39.3597 18 39.8347 17.51 40.4447 17.17C41.0647 16.82 41.7747 16.645 42.5747 16.645C43.3547 16.645 44.0447 16.815 44.6447 17.155C45.2447 17.495 45.7047 17.965 46.0247 18.565C46.3547 19.155 46.5197 19.825 46.5197 20.575ZM45.1097 20.29C45.1097 19.77 44.9947 19.325 44.7647 18.955C44.5347 18.575 44.2197 18.29 43.8197 18.1C43.4297 17.9 42.9947 17.8 42.5147 17.8C41.8247 17.8 41.2347 18.02 40.7447 18.46C40.2647 18.9 39.9897 19.51 39.9197 20.29H45.1097ZM52.6115 25L50.6615 21.94L48.7865 25H47.3615L50.0165 20.92L47.3615 16.78H48.9065L50.8565 19.825L52.7165 16.78H54.1415L51.5015 20.845L54.1565 25H52.6115ZM56.8642 18.295C57.1342 17.825 57.5342 17.435 58.0642 17.125C58.6042 16.805 59.2292 16.645 59.9392 16.645C60.6692 16.645 61.3292 16.82 61.9192 17.17C62.5192 17.52 62.9892 18.015 63.3292 18.655C63.6692 19.285 63.8392 20.02 63.8392 20.86C63.8392 21.69 63.6692 22.43 63.3292 23.08C62.9892 23.73 62.5192 24.235 61.9192 24.595C61.3292 24.955 60.6692 25.135 59.9392 25.135C59.2392 25.135 58.6192 24.98 58.0792 24.67C57.5492 24.35 57.1442 23.955 56.8642 23.485V28.9H55.4992V16.78H56.8642V18.295ZM62.4442 20.86C62.4442 20.24 62.3192 19.7 62.0692 19.24C61.8192 18.78 61.4792 18.43 61.0492 18.19C60.6292 17.95 60.1642 17.83 59.6542 17.83C59.1542 17.83 58.6892 17.955 58.2592 18.205C57.8392 18.445 57.4992 18.8 57.2392 19.27C56.9892 19.73 56.8642 20.265 56.8642 20.875C56.8642 21.495 56.9892 22.04 57.2392 22.51C57.4992 22.97 57.8392 23.325 58.2592 23.575C58.6892 23.815 59.1542 23.935 59.6542 23.935C60.1642 23.935 60.6292 23.815 61.0492 23.575C61.4792 23.325 61.8192 22.97 62.0692 22.51C62.3192 22.04 62.4442 21.49 62.4442 20.86ZM69.221 25.135C68.451 25.135 67.751 24.96 67.121 24.61C66.501 24.26 66.011 23.765 65.651 23.125C65.301 22.475 65.126 21.725 65.126 20.875C65.126 20.035 65.306 19.295 65.666 18.655C66.036 18.005 66.536 17.51 67.166 17.17C67.796 16.82 68.501 16.645 69.281 16.645C70.061 16.645 70.766 16.82 71.396 17.17C72.026 17.51 72.521 18 72.881 18.64C73.251 19.28 73.436 20.025 73.436 20.875C73.436 21.725 73.246 22.475 72.866 23.125C72.496 23.765 71.991 24.26 71.351 24.61C70.711 24.96 70.001 25.135 69.221 25.135ZM69.221 23.935C69.711 23.935 70.171 23.82 70.601 23.59C71.031 23.36 71.376 23.015 71.636 22.555C71.906 22.095 72.041 21.535 72.041 20.875C72.041 20.215 71.911 19.655 71.651 19.195C71.391 18.735 71.051 18.395 70.631 18.175C70.211 17.945 69.756 17.83 69.266 17.83C68.766 17.83 68.306 17.945 67.886 18.175C67.476 18.395 67.146 18.735 66.896 19.195C66.646 19.655 66.521 20.215 66.521 20.875C66.521 21.545 66.641 22.11 66.881 22.57C67.131 23.03 67.461 23.375 67.871 23.605C68.281 23.825 68.731 23.935 69.221 23.935ZM76.5957 18.115C76.8357 17.645 77.1757 17.28 77.6157 17.02C78.0657 16.76 78.6107 16.63 79.2507 16.63V18.04H78.8907C77.3607 18.04 76.5957 18.87 76.5957 20.53V25H75.2307V16.78H76.5957V18.115ZM82.4914 17.905V22.75C82.4914 23.15 82.5764 23.435 82.7464 23.605C82.9164 23.765 83.2114 23.845 83.6314 23.845H84.6364V25H83.4064C82.6464 25 82.0764 24.825 81.6964 24.475C81.3164 24.125 81.1264 23.55 81.1264 22.75V17.905H80.0614V16.78H81.1264V14.71H82.4914V16.78H84.6364V17.905H82.4914Z" fill="black"/>
</svg>
