<svg width="37" height="43" viewBox="0 0 37 43" fill="none" xmlns="http://www.w3.org/2000/svg">
<path d="M27.5018 36.0001L23 38.5L17.5 39.5L17.5009 34.0001L33.5 24.0001L32.0017 30.5001L27.5018 36.0001Z" fill="#FF265A"/>
<path d="M27.5 27.5L20.5 32L17.5 33.5L16.7452 29.6685L16.7462 24.1686L31.5009 15.5L33 19.5L33.5005 23.5L27.5 27.5Z" fill="#00C1FF"/>
<path d="M27.5 27.5L20.5 32L17.5 33.5L16.7452 29.6685L16.7462 24.1686L31.5009 15.5L33 19.5L33.5005 23.5L27.5 27.5Z" fill="#00C1FF"/>
<path d="M27.1496 17.8103L20.5001 22.5002L16.9474 23.8102L16.7453 20.1687L16.7463 14.6688L25.9459 8.81002L28.9474 11.8102L31 15L27.1496 17.8103Z" fill="#FFCC91"/>
<path d="M23.4993 10.4995L19.9992 12.9995L17.3673 14.5L17 8.5L17.3673 1.63406L19.5702 2.94118L22.6008 5.91116L26 9L23.4993 10.4995Z" fill="#A0AAB6"/>
<path d="M33.1107 23.1889C33.1057 25.9787 32.383 28.7382 30.9881 31.159C29.6437 33.499 27.708 35.4853 25.4034 36.8852C23.028 38.3307 20.2938 39.1343 17.5141 39.205C14.704 39.2758 11.9041 38.6137 9.43773 37.2693C7.0674 35.9755 5.03569 34.0904 3.58518 31.8161C2.09425 29.4811 1.22496 26.7772 1.0885 24.0076C0.926773 20.6467 1.81628 17.3009 3.64583 14.4757C4.89417 12.5502 6.58727 10.943 8.23488 9.36108C10.024 7.64271 11.8687 5.97489 13.7235 4.32728C14.8961 3.28615 16.0787 2.25513 17.2715 1.23422C17.327 1.18368 17.3877 1.13314 17.4433 1.08766C17.2058 1.08766 16.9682 1.08766 16.7307 1.08766C17.3119 1.58295 17.8931 2.0833 18.4693 2.5887C19.8136 3.75618 21.1479 4.93881 22.467 6.13156C23.968 7.49109 25.459 8.87084 26.8994 10.291C28.2033 11.5798 29.5022 12.8938 30.5079 14.4353C31.9989 16.7248 32.8985 19.3832 33.0754 22.1124C33.1006 22.4712 33.1107 22.83 33.1107 23.1889C33.1107 23.8408 34.1215 23.8408 34.1215 23.1889C34.1165 20.3333 33.3988 17.5031 32.0292 15.0014C31.0386 13.192 29.6892 11.6607 28.2437 10.2C26.8286 8.7647 25.3528 7.39001 23.8619 6.03048C22.472 4.76192 21.067 3.50853 19.6468 2.27029C18.9292 1.6436 18.2115 1.00679 17.4787 0.395255C17.4686 0.385147 17.4585 0.380093 17.4483 0.369985C17.226 0.182987 16.9581 0.182987 16.7357 0.369985C15.8462 1.12809 14.9668 1.8963 14.0874 2.66451C12.2326 4.2919 10.398 5.93446 8.59877 7.6225C6.98148 9.1387 5.32377 10.6701 3.9238 12.3935C1.67982 15.1429 0.335453 18.5291 0.0979146 22.0719C-0.104246 25.0942 0.517398 28.1468 1.87693 30.8507C3.15559 33.398 5.09128 35.5965 7.43129 37.2188C9.82689 38.8816 12.642 39.8823 15.5379 40.1501C18.4996 40.4231 21.5017 39.9025 24.2056 38.6643C26.8033 37.4766 29.0574 35.6167 30.7657 33.3323C32.5043 31.0074 33.601 28.2378 33.975 25.3621C34.071 24.6394 34.1165 23.9166 34.1165 23.1889C34.1215 22.5369 33.1107 22.5369 33.1107 23.1889Z" fill="black"/>
<path d="M17.5934 39.7361C17.5934 39.3874 17.5934 39.0437 17.5934 38.695C17.5934 37.7499 17.5934 36.8048 17.5934 35.8597C17.5934 34.4597 17.5934 33.0648 17.5934 31.6649C17.5934 29.9566 17.5934 28.2534 17.5934 26.5451C17.5934 24.6752 17.5934 22.8052 17.5934 20.9352C17.5934 19.05 17.5934 17.1598 17.5934 15.2747C17.5934 13.5159 17.5934 11.752 17.5934 9.99324C17.5934 8.49726 17.5934 7.00632 17.5934 5.51033C17.5934 4.43888 17.5934 3.37249 17.5934 2.30103C17.5934 1.79563 17.6035 1.29023 17.5934 0.779775C17.5934 0.759559 17.5934 0.73429 17.5934 0.714074C17.5934 0.0621057 16.5826 0.0621057 16.5826 0.714074C16.5826 1.0628 16.5826 1.40647 16.5826 1.7552C16.5826 2.7003 16.5826 3.6454 16.5826 4.5905C16.5826 5.99047 16.5826 7.38537 16.5826 8.78533C16.5826 10.4936 16.5826 12.1968 16.5826 13.9051C16.5826 15.775 16.5826 17.645 16.5826 19.515C16.5826 21.4002 16.5826 23.2904 16.5826 25.1755C16.5826 26.9343 16.5826 28.6982 16.5826 30.457C16.5826 31.9529 16.5826 33.4439 16.5826 34.9399C16.5826 36.0113 16.5826 37.0777 16.5826 38.1492C16.5826 38.6546 16.5725 39.16 16.5826 39.6704C16.5826 39.6906 16.5826 39.7159 16.5826 39.7361C16.5826 40.3881 17.5934 40.3881 17.5934 39.7361Z" fill="black"/>
<path d="M17.3427 15.2798C18.3788 14.6177 19.4199 13.9607 20.456 13.2986C22.1087 12.2473 23.7613 11.1961 25.414 10.1499C25.793 9.91239 26.167 9.6698 26.5461 9.43226C27.0919 9.08354 26.5865 8.20919 26.0356 8.55792C24.9995 9.21999 23.9584 9.87702 22.9223 10.5391C21.2697 11.5903 19.617 12.6416 17.9644 13.6877C17.5853 13.9253 17.2113 14.1679 16.8323 14.4054C16.2864 14.7541 16.7918 15.6285 17.3427 15.2798Z" fill="black"/>
<path d="M31.2311 14.633C29.6088 15.664 27.9814 16.695 26.3591 17.7311C23.7714 19.3736 21.1888 21.0162 18.6012 22.6587C18.0098 23.0327 17.4236 23.4067 16.8323 23.7807C16.2864 24.1295 16.7918 25.0038 17.3427 24.6551C18.9651 23.6241 20.5924 22.593 22.2148 21.557C24.8024 19.9144 27.385 18.2719 29.9727 16.6293C30.564 16.2553 31.1503 15.8813 31.7416 15.5073C32.2874 15.1535 31.782 14.2792 31.2311 14.633Z" fill="black"/>
<path d="M17.3427 34.2425C17.8885 33.8938 18.4344 33.5451 18.9853 33.2014C20.2993 32.3675 21.6134 31.5336 22.9274 30.6946C24.5245 29.6788 26.1215 28.6629 27.7186 27.647C29.0933 26.7727 30.468 25.8984 31.8427 25.0291C32.5098 24.6045 33.1921 24.1952 33.8441 23.7555C33.8542 23.7504 33.8643 23.7454 33.8744 23.7352C34.4202 23.3865 33.9148 22.5122 33.3639 22.8609C32.8181 23.2096 32.2723 23.5584 31.7214 23.902C30.4073 24.7359 29.0933 25.5698 27.7793 26.4088C26.1822 27.4247 24.5851 28.4405 22.9881 29.4564C21.6134 30.3307 20.2387 31.2051 18.864 32.0744C18.1968 32.4989 17.5146 32.9083 16.8626 33.348C16.8525 33.353 16.8424 33.3581 16.8323 33.3682C16.2864 33.7169 16.7918 34.5913 17.3427 34.2425Z" fill="black"/>
</svg>
