<svg width="70" height="70" viewBox="0 0 70 70" fill="none" xmlns="http://www.w3.org/2000/svg">
<path d="M67.9467 15.6489L54.3511 2.05333C53.7008 1.40221 52.9285 0.885701 52.0783 0.533367C51.2282 0.181033 50.3169 -0.000212512 49.3967 1.8699e-07H7C5.14348 1.8699e-07 3.36301 0.737498 2.05025 2.05025C0.737498 3.36301 0 5.14348 0 7V63C0 64.8565 0.737498 66.637 2.05025 67.9497C3.36301 69.2625 5.14348 70 7 70H63C64.8565 70 66.637 69.2625 67.9497 67.9497C69.2625 66.637 70 64.8565 70 63V20.6033C70.0002 19.6831 69.819 18.7718 69.4666 17.9217C69.1143 17.0715 68.5978 16.2992 67.9467 15.6489V15.6489ZM40.4444 4.66667V17.8889C40.4444 18.0952 40.3625 18.293 40.2166 18.4389C40.0708 18.5847 39.8729 18.6667 39.6667 18.6667H16.3333C16.1271 18.6667 15.9292 18.5847 15.7834 18.4389C15.6375 18.293 15.5556 18.0952 15.5556 17.8889V4.66667H40.4444ZM15.5556 65.3333V43.5556C15.5556 43.3493 15.6375 43.1514 15.7834 43.0056C15.9292 42.8597 16.1271 42.7778 16.3333 42.7778H53.6667C53.8729 42.7778 54.0708 42.8597 54.2166 43.0056C54.3625 43.1514 54.4444 43.3493 54.4444 43.5556V65.3333H15.5556ZM65.3333 63C65.3333 63.6188 65.0875 64.2123 64.6499 64.6499C64.2123 65.0875 63.6188 65.3333 63 65.3333H59.1111V43.5556C59.1111 42.1116 58.5375 40.7268 57.5165 39.7058C56.4954 38.6847 55.1106 38.1111 53.6667 38.1111H16.3333C14.8894 38.1111 13.5046 38.6847 12.4835 39.7058C11.4625 40.7268 10.8889 42.1116 10.8889 43.5556V65.3333H7C6.38116 65.3333 5.78767 65.0875 5.35008 64.6499C4.9125 64.2123 4.66667 63.6188 4.66667 63V7C4.66667 6.38116 4.9125 5.78767 5.35008 5.35008C5.78767 4.9125 6.38116 4.66667 7 4.66667H10.8889V17.8889C10.8889 19.3328 11.4625 20.7177 12.4835 21.7387C13.5046 22.7597 14.8894 23.3333 16.3333 23.3333H39.6667C41.1106 23.3333 42.4954 22.7597 43.5165 21.7387C44.5375 20.7177 45.1111 19.3328 45.1111 17.8889V4.66667H49.3967C49.7043 4.66591 50.009 4.726 50.2933 4.84346C50.5777 4.96093 50.8359 5.13345 51.0533 5.35111L64.6489 18.9467C64.8666 19.1641 65.0391 19.4223 65.1565 19.7067C65.274 19.991 65.3341 20.2957 65.3333 20.6033V63Z" fill="white"/>
<path d="M23.3329 51.0769H46.6662C47.0788 51.0769 47.4745 50.913 47.7662 50.6213C48.0579 50.3296 48.2218 49.9339 48.2218 49.5214C48.2218 49.1088 48.0579 48.7132 47.7662 48.4214C47.4745 48.1297 47.0788 47.9658 46.6662 47.9658H23.3329C22.9203 47.9658 22.5247 48.1297 22.233 48.4214C21.9412 48.7132 21.7773 49.1088 21.7773 49.5214C21.7773 49.9339 21.9412 50.3296 22.233 50.6213C22.5247 50.913 22.9203 51.0769 23.3329 51.0769Z" fill="white"/>
<path d="M23.3329 60.1453H46.6662C47.0788 60.1453 47.4745 59.9814 47.7662 59.6897C48.0579 59.398 48.2218 59.0023 48.2218 58.5897C48.2218 58.1772 48.0579 57.7815 47.7662 57.4898C47.4745 57.1981 47.0788 57.0342 46.6662 57.0342H23.3329C22.9203 57.0342 22.5247 57.1981 22.233 57.4898C21.9412 57.7815 21.7773 58.1772 21.7773 58.5897C21.7773 59.0023 21.9412 59.398 22.233 59.6897C22.5247 59.9814 22.9203 60.1453 23.3329 60.1453Z" fill="white"/>
</svg>
